<?xml version="1.0" encoding="UTF-8"?>
<svg width="16px" height="16px" viewBox="0 0 16 16" version="1.1" xmlns="http://www.w3.org/2000/svg" xmlns:xlink="http://www.w3.org/1999/xlink">
    <!-- Generator: Sketch 53 (72520) - https://sketchapp.com -->
    <title>Combined Shape</title>
    <desc>Created with Sketch.</desc>
    <g id="Page-1" stroke="none" stroke-width="1" fill="none" fill-rule="evenodd">
        <g id="Homepage" transform="translate(-42.000000, -735.000000)" fill="#1964A3">
            <g id="Group-3" transform="translate(42.000000, 683.000000)">
                <path d="M4.36719098,65.5960128 C4.38590861,65.5325226 4.47633172,65.5027804 4.56757339,65.5313702 C4.65799649,65.5588076 4.71725992,65.6320656 4.69848771,65.6961595 C4.67906066,65.7591559 4.58918325,65.7877457 4.49859643,65.7609668 C4.40806419,65.7333647 4.34896447,65.6596128 4.36719098,65.5960128 Z M5.77104656,65.5519099 C5.86556245,65.5353925 5.9503648,65.5742988 5.96237029,65.6400938 C5.97372092,65.7047365 5.9076362,65.7712448 5.81317489,65.7889146 C5.72029611,65.8060904 5.63445692,65.7660317 5.622506,65.701883 C5.61099166,65.6355392 5.67827693,65.5690308 5.77104656,65.5519099 Z M15.7779378,56.7268292 C16.0254144,58.321439 16.0355099,59.9263653 15.9551824,61.5341451 C15.9040499,62.5583302 15.7871602,63.5699491 15.4862591,64.556545 C14.9946347,66.1686599 13.9207443,67.1600847 12.323524,67.6050653 C11.55812,67.8183092 10.7796736,67.942985 9.99516995,68 C9.98829408,67.9675141 9.98452873,67.9346989 9.98452873,67.902597 C9.98452873,67.6376061 9.99375112,66.771296 9.99375112,65.6949797 C9.99375112,64.9445105 9.73808892,64.4550264 9.4511579,64.2054005 C11.2325532,64.0062594 13.1039349,63.3260301 13.1039349,60.2363536 C13.1039349,59.3581357 12.7935932,58.6405365 12.2806317,58.0771908 C12.3636878,57.8745378 12.637522,57.0564079 12.202105,55.9483189 C12.202105,55.9483189 11.5313805,55.7322216 10.0045015,56.772979 C9.365155,56.5946904 8.68029682,56.5053541 8.00051368,56.5022262 C7.32067598,56.5053541 6.6363635,56.5946904 5.99821756,56.772979 C4.46959228,55.7322216 3.79783099,55.9483189 3.79783099,55.9483189 C3.36345082,57.0564079 3.63728496,57.8745378 3.72034106,58.0771908 C3.20858011,58.6405365 2.89600101,59.3581357 2.89600101,60.2363536 C2.89600101,63.318622 4.76394487,64.0084544 6.54075621,64.2117659 C6.31188807,64.4126081 6.10468436,64.7676487 6.03286975,65.2874238 C5.57633401,65.4930401 4.41840527,65.8485197 3.70495222,64.618828 C3.70495222,64.618828 3.28192269,63.8465186 2.47870137,63.7897231 C2.47870137,63.7897231 1.69812676,63.7795163 2.42402186,64.2787682 C2.42402186,64.2787682 2.94827943,64.5260345 3.31220924,65.45578 C3.31220924,65.45578 3.7817873,66.891527 6.00727625,66.4048963 C6.01076875,67.077059 6.01813575,67.7108641 6.01813575,67.902597 C6.01813575,67.9152183 6.01704434,67.928059 6.01589837,67.9408449 C5.66446516,67.9189498 5.31341396,67.8931586 4.96301759,67.8617152 C4.01300197,67.7765494 3.0975294,67.5085404 2.27308021,66.9780098 C1.44879472,66.4475341 0.927483952,65.6988209 0.598206323,64.7912998 C0.26849213,63.882736 0.140142613,62.9346623 0.0742761735,61.9792354 C-0.0377022316,60.3547736 -0.0367745352,58.7297083 0.172448274,57.1113376 C0.32120711,55.9607207 0.589966197,54.8506014 1.32333744,53.9096065 C1.90707671,53.160619 2.69185325,52.7274914 3.5780761,52.4612932 C4.62877406,52.1457077 5.71177768,52.0406222 6.80253029,52.006051 C7.19232646,51.9937042 7.58283205,52.0040755 7.97301022,52.0040755 C9.36362703,51.9871741 10.7535344,52.0278912 12.1111907,52.3721215 C13.310593,52.6762382 14.3355883,53.2495163 14.9945801,54.3558493 C15.4307065,55.0881 15.6488243,55.8946513 15.7779378,56.7268292 Z M5.0093533,65.7500247 C5.0093533,65.6830225 5.0844967,65.6286414 5.18010399,65.6269952 C5.27522015,65.6251843 5.35320122,65.6784678 5.35320122,65.7443177 C5.35538403,65.8106066 5.27854895,65.8656461 5.18343279,65.8668534 C5.08782549,65.8690484 5.01039013,65.8153259 5.0093533,65.7500247 Z M2.82192719,64.065678 C2.83911685,64.0245767 2.90170907,64.0131627 2.95966281,64.0406002 C3.01778025,64.0668304 3.05090447,64.1218699 3.03087714,64.1619834 C3.01325091,64.2019872 2.95060413,64.2140048 2.8937418,64.1865125 C2.83562435,64.1602823 2.80315498,64.1057367 2.82192719,64.065678 Z M3.16807798,64.3210274 C3.20742321,64.2855782 3.27972896,64.3021504 3.33211652,64.3582874 C3.38450407,64.4149732 3.3947633,64.4893287 3.35487236,64.5254364 C3.31672767,64.5609404 3.2420754,64.5443682 3.19154324,64.4882312 C3.13910111,64.4320942 3.12944215,64.3570802 3.16807798,64.3210274 Z M3.49267892,64.7275516 C3.54222882,64.6931999 3.62124672,64.7241494 3.67145147,64.7950478 C3.72034652,64.8678119 3.72034652,64.9536362 3.67030549,64.9886464 C3.62124672,65.0229981 3.54108284,64.9908414 3.49153295,64.9192845 C3.44247418,64.8477277 3.44247418,64.7619033 3.49267892,64.7275516 Z M3.85127722,65.1999367 C3.89575207,65.1512078 3.98972225,65.1648717 4.05848092,65.2307764 C4.12794901,65.2955288 4.14906774,65.3881577 4.10241007,65.4362829 C4.05848092,65.4849021 3.96511101,65.471787 3.89678891,65.4054433 C3.82682969,65.340636 3.80740264,65.2485559 3.85127722,65.1999367 Z" id="Combined-Shape"></path>
            </g>
        </g>
    </g>
</svg>