<?xml version="1.0" encoding="UTF-8"?>
<svg width="157px" height="24px" viewBox="0 0 157 24" version="1.1" xmlns="http://www.w3.org/2000/svg" xmlns:xlink="http://www.w3.org/1999/xlink">
    <!-- Generator: Sketch 53 (72520) - https://sketchapp.com -->
    <title>Branding / Logos / Lettering / Small</title>
    <desc>Created with Sketch.</desc>
    <defs>
        <path d="M37.0152975,0 L37.0152975,2.99840764 L33.4148903,2.99840764 L33.4148903,14 L29.8033708,14 L29.8033708,2.99840764 L25.8029183,2.99840764 L25.8029183,0 L37.0152975,0 Z M38.2821075,0 L49.4944867,0 L49.4944867,2.99840764 L45.5051466,2.99840764 L45.5051466,14 L41.8936271,14 L41.8936271,2.99840764 L38.2821075,2.99840764 L38.2821075,0 Z M76.9753726,14 L73.5305385,14 L67.3853991,5.72929936 L67.3853991,14 L63.940565,14 L63.940565,0 L67.3853991,0 L73.5305385,8.38216561 L73.5305385,0 L76.9753726,0 L76.9753726,14 Z M51.2502409,14 L51.2502409,0 L61.4402822,0 L61.4402822,2.99840764 L54.8506481,2.99840764 L54.8506481,5.25 L60.4290568,5.25 L60.4290568,8.24840764 L54.8506481,8.24840764 L54.8506481,11.0015924 L61.4402822,11.0015924 L61.4402822,14 L54.8506481,14 L51.2502409,14 Z M79.7201275,14 L79.7201275,0 L90.2435399,0 L90.2435399,2.99840764 L83.331647,2.99840764 L83.331647,5.33917197 L89.1656402,5.33917197 L89.1656402,8.33757962 L83.331647,8.33757962 L83.331647,14 L79.7201275,14 Z M11.3790648,0 L14.8683483,0 L9.21215301,14 L5.65619527,14 L0,0 L3.48928353,0 L7.42306177,9.84235669 L7.44528651,9.84235669 L11.3790648,0 Z M116.768762,14 L116.768762,0 L120.380282,0 L120.380282,10.8901274 L126.736556,10.8901274 L126.736556,14 L116.768762,14 Z M105.245237,14 L105.245237,0 L108.856756,0 L108.856756,10.8901274 L115.213031,10.8901274 L115.213031,14 L105.245237,14 Z M100.578042,14 L99.5890413,11.5031847 L93.5216884,11.5031847 L92.5326877,14 L89.0434042,14 L94.7884984,0 L98.3222314,0 L104.067326,14 L100.578042,14 Z M94.65515,8.64968153 L98.433355,8.64968153 L96.5442525,3.86783439 L94.65515,8.64968153 Z M24.0805013,14 L23.0915005,11.5031847 L17.0241477,11.5031847 L16.0240345,14 L12.534751,14 L18.2798452,0 L21.8246906,0 L27.5697848,14 L24.0805013,14 Z M18.1576092,8.64968153 L21.8913648,8.64968153 L20.0022623,3.86783439 L18.1576092,8.64968153 Z" id="path-1"></path>
    </defs>
    <g id="Page-1" stroke="none" stroke-width="1" fill="none" fill-rule="evenodd">
        <g id="Homepage" transform="translate(-43.000000, -31.000000)">
            <g id="Branding-/-Logos-/-Lettering-/-Small" transform="translate(31.000000, 19.000000)">
                <path d="M157,12 C150.372583,12 145,17.372583 145,24 L169,24 C169,17.372583 163.627417,12 157,12 Z" id="Shape" fill="#FFDA00" fill-rule="nonzero"></path>
                <path d="M157,36 C150.372583,36 145,30.627417 145,24 L169,24 C169,30.627417 163.627417,36 157,36 Z" id="Shape" fill="#1964A3" fill-rule="nonzero"></path>
                <g id="Branding-/-Colorss" stroke-width="1" fill-rule="evenodd" transform="translate(12.000000, 18.000000)">
                    <mask id="mask-2" fill="white">
                        <use xlink:href="#path-1"></use>
                    </mask>
                    <use id="Mask" fill="#000000" fill-rule="nonzero" xlink:href="#path-1"></use>
                    <g id="Branding-/-Colors-/-Primary-/-Black" mask="url(#mask-2)" fill="#222222" fill-rule="nonzero">
                        <rect id="Rectangle" x="0" y="0" width="127" height="14"></rect>
                    </g>
                </g>
            </g>
        </g>
    </g>
</svg>