<svg xmlns="http://www.w3.org/2000/svg" viewBox="0 0 170.0787 170.0787"><defs><style>.cls-1{fill:#4e4b48;}.cls-2{fill:#ffda00;}.cls-3{fill:#2071b5;}</style></defs><title>VF_logo_stacked_grey_RGB</title><g id="::_Wordmark" data-name=":: Wordmark"><polygon class="cls-1" points="61.371 113.387 51.297 113.387 51.297 116.041 54.885 116.041 54.885 125.77 58.128 125.77 58.128 116.041 61.371 116.041 61.371 113.387"/><polygon class="cls-1" points="62.501 113.387 62.501 116.041 65.744 116.041 65.744 125.77 68.988 125.77 68.988 116.041 72.575 116.041 72.575 113.387 62.501 113.387"/><polygon class="cls-1" points="97.259 125.77 97.259 113.387 94.163 113.387 94.163 120.797 88.644 113.387 85.548 113.387 85.548 125.77 88.644 125.77 88.644 118.45 94.163 125.77 97.259 125.77"/><polygon class="cls-1" points="74.147 125.77 77.391 125.77 83.304 125.77 83.304 123.117 77.391 123.117 77.391 120.68 82.403 120.68 82.403 118.026 77.391 118.026 77.391 116.041 83.304 116.041 83.304 113.387 74.147 113.387 74.147 125.77"/><polygon class="cls-1" points="99.726 125.77 102.969 125.77 102.969 120.758 108.205 120.758 108.205 118.104 102.969 118.104 102.969 116.041 109.177 116.041 109.177 113.387 99.726 113.387 99.726 125.77"/><polygon class="cls-1" points="38.337 113.387 34.81 122.093 34.782 122.093 31.256 113.387 28.12 113.387 33.2 125.77 36.393 125.77 41.473 113.387 38.337 113.387"/><polygon class="cls-1" points="133.004 125.77 141.959 125.77 141.959 123.021 136.247 123.021 136.247 113.387 133.004 113.387 133.004 125.77"/><polygon class="cls-1" points="122.65 125.77 131.605 125.77 131.605 123.021 125.893 123.021 125.893 113.387 122.65 113.387 122.65 125.77"/><path class="cls-1" d="M118.4593,125.77h3.1357l-5.162-12.3834h-3.1762l-5.162,12.3834h3.1358l.8893-2.2114h5.45Zm-5.32-4.7318,1.6944-4.2293h.0214l1.7006,4.2289Z"/><path class="cls-1" d="M49.7461,125.77h3.1358L47.72,113.387H44.5437L39.3816,125.77h3.1359l.8893-2.2114h5.45Zm-5.3194-4.7318,1.6944-4.2293h.0214l1.7006,4.2289Z"/></g><g id="::_Symbol" data-name=":: Symbol"><path class="cls-2" d="M85.0392,44.3083A28.3464,28.3464,0,0,0,56.6929,72.6548h56.6929A28.3464,28.3464,0,0,0,85.0392,44.3083Z"/><path class="cls-3" d="M85.0392,101.0013A28.3464,28.3464,0,0,1,56.6929,72.6548h56.6929A28.3464,28.3464,0,0,1,85.0392,101.0013Z"/></g></svg>