<svg xmlns="http://www.w3.org/2000/svg" xmlns:xlink="http://www.w3.org/1999/xlink" width="36" height="36" viewBox="0 0 36 36">
    <defs>
        <path id="a" d="M28 17.996C28 11.8 23.52 9 17.996 9 12.473 9 8 11.8 8 17.996c0 6.195 4.48 9.002 9.996 9.002h.022C23.534 26.992 28 24.191 28 17.996zM18.018 25.1h-.007c-.508 0-.988-.394-1.418-1.17-.339-.621-.579-1.363-.748-2.145h4.31c-.211.996-.487 1.684-.74 2.146-.424.775-.896 1.17-1.397 1.17zm-2.441-5.206a23.327 23.327 0 0 1-.036-3.315h4.925c.028.488.042.962.042 1.397 0 .708-.028 1.343-.078 1.918h-4.853zm-5.573-1.898c0-.475.028-.95.098-1.424h3.436c-.021.448-.035.91-.035 1.397 0 .682.02 1.323.07 1.918h-3.386a8.96 8.96 0 0 1-.183-1.891zm7.386-6.917a1.097 1.097 0 0 1 1.22 0c.282.187.558.514.804.955.417.742.678 1.678.84 2.647h-4.508c.219-1.283.543-2.119.84-2.647.24-.434.522-.768.804-.955zm5.072 5.5h3.436c.07.468.098.942.098 1.423a9.067 9.067 0 0 1-.183 1.899h-3.386c.05-.602.07-1.244.07-1.919 0-.494-.014-.962-.035-1.403zm2.892-1.898h-3.082c-.205-1.377-.55-2.486-.995-3.349.96.288 1.799.716 2.483 1.277a5.6 5.6 0 0 1 1.594 2.072zm-13.121-2.072c.684-.561 1.524-.99 2.483-1.277-.444.87-.783 1.979-.995 3.349h-3.075a5.655 5.655 0 0 1 1.587-2.072zm-1.348 9.176h2.935c.212 1.163.536 2.119.931 2.88-.973-.287-1.82-.721-2.511-1.282a5.455 5.455 0 0 1-1.355-1.598zm12.882 1.598c-.691.56-1.53.989-2.497 1.276.395-.762.712-1.718.924-2.874h2.928a5.585 5.585 0 0 1-1.355 1.598z"/>
    </defs>
    <g fill="none" fill-rule="evenodd">
        <mask id="b" fill="#fff">
            <use xlink:href="#a"/>
        </mask>
        <use fill="#000" fill-rule="nonzero" xlink:href="#a"/>
        <g fill="#222" fill-rule="nonzero" mask="url(#b)">
            <path d="M0 0h36v36H0z"/>
        </g>
    </g>
</svg>
