<svg xmlns="http://www.w3.org/2000/svg" xmlns:xlink="http://www.w3.org/1999/xlink" width="36" height="36" viewBox="0 0 36 36">
    <defs>
        <path id="a" d="M27.998 26.584l-5.23-5.23c1.135-1.356 1.73-3.186 1.73-5.355 0-2.575-.838-4.672-2.425-6.067C20.628 8.669 18.617 8 16.25 8c-2.367 0-4.381.669-5.824 1.934C8.84 11.327 8 13.424 8 16s.839 4.672 2.425 6.067c1.443 1.266 3.457 1.935 5.824 1.935 1.952 0 3.663-.456 5.01-1.325L26.582 28l1.415-1.416zm-7.248-6.026c-1.071.94-2.628 1.437-4.5 1.437-1.874 0-3.43-.494-4.502-1.437-1.156-1.015-1.743-2.55-1.743-4.56s.587-3.543 1.743-4.558c1.071-.94 2.628-1.436 4.501-1.436 1.874 0 3.43.493 4.5 1.436 1.158 1.015 1.744 2.549 1.744 4.559 0 2.01-.586 3.544-1.743 4.559z"/>
    </defs>
    <g fill="none" fill-rule="evenodd">
        <mask id="b" fill="#fff">
            <use xlink:href="#a"/>
        </mask>
        <use fill="#000" fill-rule="nonzero" xlink:href="#a"/>
        <g fill="#222" fill-rule="nonzero" mask="url(#b)">
            <path d="M0 0h36v36H0z"/>
        </g>
    </g>
</svg>
