<svg class="vf-navbar__logo" xmlns="http://www.w3.org/2000/svg" viewBox="0 0 142 22" width="160">
  <path d="M131.13,0a10.93,10.93,0,0,0-10.87,11H142A10.93,10.93,0,0,0,131.13,0Z" style="fill: #ffda00" />
  <path d="M131.13,22a10.93,10.93,0,0,1-10.87-11H142A10.93,10.93,0,0,1,131.13,22Z" style="fill: #2071b5" />
  <polygon class="svg-text-color" points="33.31 5.05 23.22 5.05 23.22 7.74 26.82 7.74 26.82 17.61 30.07 17.61 30.07 7.74 33.31 7.74 33.31 5.05"
    style="fill: #4e4b48" />
  <polygon class="svg-text-color" points="34.45 5.05 34.45 7.74 37.7 7.74 37.7 17.61 40.95 17.61 40.95 7.74 44.54 7.74 44.54 5.05 34.45 5.05"
    style="fill: #4e4b48" />
  <polygon class="svg-text-color" points="69.27 17.61 69.27 5.05 66.17 5.05 66.17 12.57 60.64 5.05 57.54 5.05 57.54 17.61 60.64 17.61 60.64 10.19 66.17 17.61 69.27 17.61"
    style="fill: #4e4b48" />
  <polygon class="svg-text-color" points="46.12 17.61 49.36 17.61 55.29 17.61 55.29 14.92 49.36 14.92 49.36 12.45 54.38 12.45 54.38 9.76 49.36 9.76 49.36 7.74 55.29 7.74 55.29 5.05 46.12 5.05 46.12 17.61"
    style="fill: #4e4b48" />
  <polygon class="svg-text-color" points="71.74 17.61 74.99 17.61 74.99 12.53 80.24 12.53 80.24 9.84 74.99 9.84 74.99 7.74 81.21 7.74 81.21 5.05 71.74 5.05 71.74 17.61"
    style="fill: #4e4b48" />
  <polygon class="svg-text-color" points="10.24 5.05 6.7 13.88 6.68 13.88 3.14 5.05 0 5.05 5.09 17.61 8.29 17.61 13.38 5.05 10.24 5.05"
    style="fill: #4e4b48" />
  <polygon class="svg-text-color" points="105.08 17.61 114.05 17.61 114.05 14.82 108.33 14.82 108.33 5.05 105.08 5.05 105.08 17.61" style="fill: #4e4b48" />
  <polygon class="svg-text-color" points="94.71 17.61 103.68 17.61 103.68 14.82 97.96 14.82 97.96 5.05 94.71 5.05 94.71 17.61" style="fill: #4e4b48" />
  <path class="svg-text-color" d="M90.51,17.61h3.14L88.48,5.05H85.3L80.13,17.61h3.14l.89-2.24h5.46Zm-5.33-4.8,1.7-4.29h0l1.7,4.29Z" style="fill: #4e4b48" />
  <path class="svg-text-color" d="M21.67,17.61h3.14L19.64,5.05H16.45L11.28,17.61h3.14l.9-2.24h5.46Zm-5.33-4.8L18,8.52h0l1.7,4.29Z" style="fill: #4e4b48" />
</svg>
