<?xml version="1.0" encoding="utf-8"?>
<!-- Generator: Adobe Illustrator 23.1.1, SVG Export Plug-In . SVG Version: 6.00 Build 0)  -->
<svg version="1.1" xmlns="http://www.w3.org/2000/svg" xmlns:xlink="http://www.w3.org/1999/xlink" x="0px" y="0px"
	 viewBox="0 0 226.8 113.4" style="enable-background:new 0 0 226.8 113.4;" xml:space="preserve">
<g id="::_Wordmark">
	<g id="XMLID_553_">
		<path id="XMLID_571_" d="M39.7,53.4H44v17.3h-4.3V53.4z"/>
		<path id="XMLID_569_" d="M46,58.1h3.9v1.5c0.8-0.8,2-1.7,4.5-1.7c3.5,0,5.2,1.7,5.2,5.2v7.7h-4.1v-6.6c0-2.1-0.8-2.9-2.4-2.9
			c-1.9,0-3.1,1.2-3.1,3.3v6.2H46V58.1z"/>
		<path id="XMLID_567_" d="M61,62.1c0-6.1,4.2-9,9.3-9c4.6,0,7.8,2.4,8.2,6.4h-4.3c-0.3-1.5-1.6-2.8-4-2.8c-2.5,0-4.6,1.5-4.6,5.4
			c0,3.9,2.1,5.4,4.6,5.4c2.1,0,3.6-1,4-2.7h4.3C78,68.5,75.1,71,70.3,71C65.2,71,61,68.2,61,62.1z"/>
		<path id="XMLID_565_" d="M93.5,63.1v7.7h-4.1v-6.6c0-2.1-0.8-2.9-2.4-2.9c-1.9,0-3.1,1.2-3.1,3.3v6.2h-4.1V53.4h3.9v6.1
			c0.8-0.8,2-1.7,4.5-1.7C91.7,57.9,93.5,59.6,93.5,63.1z"/>
		<path id="XMLID_562_" d="M94.6,67.1c0-1.7,0.8-3,4-3.7l4.1-1c0.6-0.1,0.8-0.3,0.8-0.6c0-0.6-0.6-1.2-2.3-1.2
			c-1.6,0-2.3,0.5-2.3,1.5h-3.7c0-2.1,1.5-4.3,6.4-4.3c3.9,0,5.9,1.4,5.9,4.4v8.5h-3.6v-1.3c-0.8,0.7-2.1,1.6-4.4,1.6
			C96.2,71,94.6,69.4,94.6,67.1z M103.6,65.8v-1.1c-0.3,0.1-0.5,0.1-1,0.2l-2.5,0.6c-1.3,0.3-1.6,0.7-1.6,1.3c0,0.8,0.7,1.3,2,1.3
			C102.3,68.3,103.6,67.1,103.6,65.8z"/>
		<path id="XMLID_560_" d="M109.4,58.1h3.9v1.8c0.7-1.1,1.7-2.1,4.2-2.1h0.9v3.7H117c-2.6,0-3.5,0.6-3.5,3.4v5.8h-4.1V58.1z"/>
		<path id="XMLID_557_" d="M119.1,71.4h4.1c0.1,0.7,0.8,1.6,2.8,1.6c2,0,2.9-0.9,2.9-2.9v-1.2c-1,0.9-2.3,1.4-4.1,1.4
			c-3.7,0-6.3-2.2-6.3-6.2c0-4.1,2.7-6.3,6.3-6.3c1.7,0,2.9,0.5,4.1,1.4v-1.1h4.1v12.1c0,3.6-2.3,5.7-7.1,5.7
			C121,75.9,119.3,73.7,119.1,71.4z M129,64.1c0-2-1.2-3.2-3.2-3.2c-1.8,0-2.9,1.1-2.9,3.2c0,2.1,1.1,3.2,2.9,3.2
			C127.8,67.3,129,66.1,129,64.1z"/>
		<path id="XMLID_554_" d="M148.8,65.5h-10.4c0.3,2,1.7,2.7,3.5,2.7c1.8,0,2.4-0.8,2.7-1.3h3.8c-0.6,2.4-2.8,4.1-6.7,4.1
			c-4.6,0-7.3-2.5-7.3-6.5c0-4.1,2.8-6.7,7.4-6.7c4.4,0,6.9,2.4,6.9,6.7V65.5z M144.7,63.1c-0.1-1.3-0.9-2.4-3-2.4
			c-1.7,0-2.9,0.8-3.3,2.4H144.7z"/>
	</g>
</g>
<g id="::_Symbol">
	<g>
		<path id="XMLID_25_" d="M178.5,36.8l-14.4,12.4l5.2,1.2l-2.7,11.2l14.1-11.9l-5.6-1.3C175.2,48.3,178.6,36.6,178.5,36.8z"/>
		<path d="M157.2,61.7c0,8.2,6.7,14.9,14.9,14.9s14.9-6.7,14.9-14.9c0-4.1-1.7-7.9-4.4-10.6l-4.4,3.6c2,1.8,3.1,4.3,3.1,7
			c0,5.2-4.2,9.3-9.3,9.3s-9.3-4.1-9.3-9.3c0-2.7,1.1-5.2,3.1-7l-4.4-3.6C158.9,53.8,157.2,57.5,157.2,61.7"/>
	</g>
</g>
</svg>
