<?xml version="1.0" encoding="utf-8"?>
<!-- Generator: Adobe Illustrator 24.0.1, SVG Export Plug-In . SVG Version: 6.00 Build 0)  -->
<svg version="1.1" xmlns="http://www.w3.org/2000/svg" xmlns:xlink="http://www.w3.org/1999/xlink" x="0px" y="0px"
	 viewBox="0 0 226.7717 113.3858" style="enable-background:new 0 0 226.7717 113.3858;" xml:space="preserve">
<style type="text/css">
	.st0{fill:#4E4B48;}
	.st1{fill:#46EE76;}
	.st2{fill:#2071B5;}
</style>
<g id="::_Wordmark">
	<g id="XMLID_553_">
		<path id="XMLID_571_" class="st0" d="M39.685,53.4446h4.3186v17.2743H39.685V53.4446z"/>
		<path id="XMLID_569_" class="st0" d="M45.9775,58.1333h3.8867v1.5012c0.802-0.8431,1.9742-1.748,4.5448-1.748
			c3.4754,0,5.2439,1.6657,5.2439,5.1823v7.65h-4.0718v-6.5601c0-2.0976-0.7814-2.9407-2.4266-2.9407
			c-1.9331,0-3.1053,1.1516-3.1053,3.3315v6.1694h-4.0718V58.1333z"/>
		<path id="XMLID_567_" class="st0" d="M60.9784,62.1023c0-6.0871,4.154-8.9661,9.2541-8.9661c4.6476,0,7.7529,2.3855,8.2464,6.3544
			h-4.298c-0.3085-1.5012-1.6452-2.7762-4.0101-2.7762c-2.5294,0-4.627,1.4601-4.627,5.3674c0,3.8867,2.0976,5.3674,4.627,5.3674
			c2.077,0,3.5783-1.0077,3.969-2.6528h4.3186c-0.4524,3.6605-3.352,6.2311-8.2053,6.2311
			C65.153,71.0273,60.9784,68.21,60.9784,62.1023z"/>
		<path id="XMLID_565_" class="st0" d="M93.481,63.0688v7.65h-4.0718v-6.5601c0-2.0976-0.7814-2.9407-2.4266-2.9407
			c-1.9331,0-3.1053,1.1516-3.1053,3.3315v6.1694h-4.0718V53.4446h3.9484v6.1282c0.802-0.8226,1.9742-1.6863,4.4831-1.6863
			C91.7125,57.8865,93.481,59.5523,93.481,63.0688z"/>
		<path id="XMLID_562_" class="st0" d="M94.5763,67.1201c0-1.6657,0.8431-2.9613,4.0101-3.7016l4.1335-0.9666
			c0.6375-0.1439,0.8226-0.3085,0.8226-0.6375c0-0.6375-0.617-1.2133-2.2827-1.2133c-1.604,0-2.3032,0.5347-2.3444,1.4807h-3.6605
			c0-2.0976,1.5013-4.2569,6.375-4.2569c3.9073,0,5.8609,1.3778,5.8609,4.4008v8.4932h-3.64v-1.2545
			c-0.7609,0.7198-2.077,1.5629-4.4214,1.5629C96.2009,71.0273,94.5763,69.4233,94.5763,67.1201z M103.6042,65.8039V64.714
			c-0.2879,0.1028-0.4524,0.1234-0.9666,0.2467l-2.5294,0.6375c-1.2545,0.3085-1.6246,0.7198-1.6246,1.3162
			c0,0.7814,0.6581,1.3367,1.9742,1.3367C102.3291,68.2511,103.6042,67.1406,103.6042,65.8039z"/>
		<path id="XMLID_560_" class="st0" d="M109.3858,58.1333h3.9484v1.8097c0.7403-1.0899,1.7068-2.0564,4.154-2.0564h0.8637v3.6605
			h-1.3984c-2.55,0-3.496,0.617-3.496,3.4137v5.7581h-4.0718V58.1333z"/>
		<path id="XMLID_557_" class="st0" d="M119.1415,71.3564h4.1335c0.1028,0.6786,0.802,1.604,2.8173,1.604
			c1.9742,0,2.9202-0.9049,2.9202-2.9202V68.868c-1.0488,0.9254-2.2827,1.4189-4.0512,1.4189c-3.7427,0-6.3133-2.2004-6.3133-6.1899
			c0-4.0923,2.694-6.2722,6.3133-6.2722c1.7274,0,2.9202,0.4936,4.0718,1.419v-1.1105h4.0512v12.092
			c0,3.6194-2.3032,5.6758-7.0948,5.6758C120.9717,75.9011,119.2649,73.6596,119.1415,71.3564z M129.0331,64.1176
			c0-1.9536-1.2339-3.2286-3.1875-3.2286c-1.8303,0-2.9202,1.1311-2.9202,3.2286c0,2.0976,1.0899,3.2286,2.9202,3.2286
			C127.7992,67.3462,129.0331,66.0712,129.0331,64.1176z"/>
		<path id="XMLID_554_" class="st0" d="M148.763,65.4543h-10.3851c0.3085,1.9536,1.6863,2.7351,3.5165,2.7351
			c1.7891,0,2.4472-0.7609,2.7351-1.2956h3.825c-0.5759,2.3649-2.7762,4.1335-6.7246,4.1335c-4.6476,0-7.321-2.4678-7.321-6.4779
			c0-4.1335,2.8379-6.7246,7.4238-6.7246c4.4008,0,6.9303,2.3855,6.9303,6.6835V65.4543z M144.7323,63.1099
			c-0.0617-1.2544-0.946-2.4472-3.0024-2.4472c-1.7068,0-2.9202,0.802-3.3109,2.4472H144.7323z"/>
	</g>
</g>
<g id="::_Symbol">
	<g>
		<path id="XMLID_25_" class="st1" d="M178.5474,36.7506l-14.3813,12.3572l5.1806,1.2278l-2.6551,11.203l14.1013-11.9228
			l-5.6136-1.3304C175.1794,48.2854,178.5844,36.5942,178.5474,36.7506z"/>
		<path class="st2" d="M157.2236,61.6763c0,8.2272,6.6546,14.9315,14.9315,14.9315s14.9315-6.7043,14.9315-14.9315
			c0-4.1384-1.6719-7.8796-4.3867-10.5944l-4.4199,3.6253c2.003,1.7713,3.1452,4.304,3.1452,6.9691
			c0,5.1648-4.1716,9.2701-9.2701,9.2701s-9.2701-4.1053-9.2701-9.2701c0-2.6652,1.1422-5.1979,3.1452-6.9691l-4.4199-3.6253
			C158.8956,53.7967,157.2236,57.5378,157.2236,61.6763"/>
	</g>
</g>
</svg>
