<svg height="124" viewBox="0 0 172 124" width="172" xmlns="http://www.w3.org/2000/svg" xmlns:xlink="http://www.w3.org/1999/xlink"><defs><path id="a" d="m50.23516 0v4.06926752h-4.8862779v14.93073248h-4.9013591v-14.93073248h-5.4291977v-4.06926752zm16.9360807 0v4.06926752h-5.4141166v14.93073248h-4.9013591v-14.93073248h-4.901359v-4.06926752zm24.2805787 0 8.3398509 11.3757962v-11.3757962h4.6751427v19h-4.6751427l-8.3398509-11.22452229v11.22452229h-4.6751425v-19zm-8.0683911 0v4.06926752h-8.9430951v3.05573248h7.5707146v4.0692675h-7.5707146v3.736465h8.9430951v4.0692675h-13.8293731v-19zm39.0902237 0v4.06926752h-9.380447v3.17675159h7.91758v4.06926749h-7.91758v7.6847134h-4.901359v-19zm-117.7381851 0 5.3387111 13.3574841h.0301622l5.3387111-13.3574841h4.7354669l-7.6762823 19h-4.82595357l-7.67628233-19zm158.6381411 0v14.7794586h8.626392v4.2205414h-13.527751v-19zm-15.639106 0v14.7794586h8.626392v4.2205414h-13.527751v-19zm-14.296887 0 7.796931 19h-4.735467l-1.342218-3.388535h-8.234283l-1.342219 3.388535h-4.735466l7.796931-19zm-103.8183252 0 7.7969312 19h-4.7354669l-1.3422184-3.388535h-8.2342832l-1.3572994 3.388535h-4.7354669l7.7969312-19zm101.4053482 5.24920382-2.563787 6.48964968h5.127575zm-103.8786494 0-2.5034634 6.48964968h5.0672512z"/><mask id="b" fill="#fff"><use fill="#fff" fill-rule="evenodd" xlink:href="#a"/></mask></defs><g fill="none"><g transform="translate(0 105)"><use fill="#000" xlink:href="#a"/><g fill="#4e4b48" mask="url(#b)"><path d="m0 0h172v23h-172z" transform="translate(0 -3)"/></g></g><g transform="translate(43)"><path d="m44 0c-24.300529 0-44 19.699471-44 44h88c0-24.300529-19.699471-44-44-44z" fill="#ffda00"/><path d="m44 88c-24.300529 0-44-19.699471-44-44h88c0 24.300529-19.699471 44-44 44z" fill="#2071b5"/></g></g></svg>