<?xml version="1.0" encoding="UTF-8"?>
<svg width="36px" height="36px" viewBox="0 0 36 36" version="1.1" xmlns="http://www.w3.org/2000/svg" xmlns:xlink="http://www.w3.org/1999/xlink">
    <!-- Generator: Sketch 52.4 (67378) - http://www.bohemiancoding.com/sketch -->
    <title>Icon / Social / Linkedin</title>
    <desc>Created with Sketch.</desc>
    <defs>
        <path d="M30.4595486,5.54045138 C29.4886074,4.53742094 28.1463708,3.98015146 26.7505265,4.00054046 L9.2494735,4.00054046 C7.85362923,3.98015146 6.51139262,4.53742094 5.54045138,5.54045138 C4.53742094,6.51139262 3.98015146,7.85362923 4.00054046,9.2494735 L4.00054046,26.7505265 C3.98015146,28.1463708 4.53742094,29.4886074 5.54045138,30.4595486 C6.51139262,31.4625791 7.85362923,32.0198485 9.2494735,31.9994595 L26.7505265,31.9994595 C29.6474026,31.9945657 31.9945657,29.6474026 31.9994595,26.7505265 L31.9994595,9.2494735 C32.0198485,7.85362923 31.4625791,6.51139262 30.4595486,5.54045138 Z M12,28 L8,28 L8,15 L12,15 L12,28 Z M12.3035941,12.4248295 C11.8410129,12.8088775 11.2332673,13.0006005 10.4803574,12.9999986 L10.4626459,12.9999986 C9.73126752,12.9999986 9.13810782,12.8082756 8.68316684,12.4248295 C8.23402149,12.0541712 7.9862209,11.536452 8.00075537,10.9990964 C7.98420218,10.4558286 8.24038374,9.93305215 8.70296198,9.56613975 C9.17109973,9.18871325 9.77676161,9 10.5199476,9 C11.2631337,9 11.8590716,9.18871325 12.3077615,9.56613975 C12.7553664,9.94134694 13.0054818,10.4594312 12.9995496,10.9990964 C13.0121697,11.538508 12.7590554,12.0570374 12.3035941,12.4248295 Z M28,27.9970229 L23.7337028,27.9970229 L23.7337028,21.2012977 C23.7337028,19.2827226 23.0199851,18.3234351 21.5925498,18.3234351 C21.0962466,18.3079477 20.6106219,18.4683832 20.2228123,18.7759542 C19.8598706,19.0667138 19.5746656,19.441609 19.3923651,19.8675573 C19.3053182,20.088855 19.2622951,20.430229 19.2622951,20.8946565 L19.2622951,28 L15,28 C15.0373534,20.3316539 15.0373534,16.0949109 15,15.289771 L19.2652967,15.289771 L19.2652967,17.0839695 C20.1624464,15.6946565 21.4364658,15 23.0873547,15 C24.565484,15 25.7537905,15.4819593 26.6522743,16.4458779 C27.5507581,17.4097964 28,18.8321883 28,20.7130534 L28,27.9970229 Z" id="path-1"></path>
    </defs>
    <g id="Icon-/-Social-/-Linkedin" stroke="none" stroke-width="1" fill="none" fill-rule="evenodd">
        <mask id="mask-2" fill="white">
            <use xlink:href="#path-1"></use>
        </mask>
        <use id="Mask" fill="#000000" fill-rule="nonzero" xlink:href="#path-1"></use>
        <g id="Color-/-Primary-/-Blue-/-Default" mask="url(#mask-2)" fill="#1964A3" fill-rule="nonzero">
            <g transform="translate(2.000000, 2.000000)" id="Rectangle">
                <rect x="0" y="0" width="32" height="32"></rect>
            </g>
        </g>
    </g>
</svg>