<?xml version="1.0" encoding="UTF-8"?>
<svg width="36px" height="36px" viewBox="0 0 36 36" version="1.1" xmlns="http://www.w3.org/2000/svg" xmlns:xlink="http://www.w3.org/1999/xlink">
    <!-- Generator: Sketch 52.4 (67378) - http://www.bohemiancoding.com/sketch -->
    <title>Icon / Social / Slideshare</title>
    <desc>Created with Sketch.</desc>
    <defs>
        <path d="M7.68882463,4 L28.3534096,4 C28.3928244,4.01866442 28.4335663,4.03450668 28.4753157,4.04740249 C29.3220894,4.232925 30.02185,4.81436429 30.3472283,5.60279664 C30.5168876,6.01904303 30.4588751,6.66310391 30.4433591,7.11108398 L30.4433591,17.2221069 C30.5406032,17.1545982 31.2112898,17.2090374 31.3869558,17.164066 C31.7113669,17.1038254 31.9501416,17.2973855 31.9914486,17.6193274 C32.0327556,17.9412693 31.8977522,18.1921075 31.7002846,18.4152942 C31.0828527,19.1038671 30.3829707,19.716953 29.615792,20.2412775 C28.5981782,20.9448372 27.507357,21.5406963 26.361606,22.0188709 C25.8870792,22.2163812 25.8890942,22.2232941 26.0130152,22.7101571 C26.0331649,22.7901488 26.0492847,22.8701405 26.0694345,22.9501322 C26.4129879,24.3327048 26.5651186,25.7152774 26.3464937,27.1353769 C26.1772357,28.2364972 25.7863304,29.2447877 25.0730289,30.1256839 C24.2136417,31.185327 23.1084275,31.8183478 21.7362289,31.9724058 C20.9654515,32.0738807 20.1837136,31.8908491 19.5429277,31.4588789 C18.7933566,30.9502897 18.426631,30.2106134 18.4155487,29.3247794 C18.3933839,27.6113769 18.3964064,25.8979745 18.389354,24.184572 L18.389354,23.9090451 L17.6085508,23.7115347 L17.6085508,24.0078003 C17.6014984,25.7853936 17.598476,27.5540989 17.5843711,29.327742 C17.5878926,29.9453864 17.3647662,30.5436876 16.9556986,31.013493 C16.3894904,31.6642897 15.628837,31.9635179 14.7795247,31.9783312 C13.0839225,32.0079577 11.7711657,31.2465552 10.7818126,29.9419993 C9.96876982,28.8705055 9.63529132,27.6232275 9.56577465,26.3028707 C9.49625798,24.9825139 9.69876306,23.7194351 10.0584363,22.4642567 C10.1098181,22.2855099 10.0816085,22.2084808 9.89925316,22.1334269 C8.79138431,21.6816307 7.73061386,21.126023 6.73171109,20.4743398 C5.82729061,19.8951849 5.00798889,19.1974241 4.29661276,18.4004809 C4.15960957,18.2326848 4.06440097,18.0358915 4.01854609,17.8257258 C3.90772241,17.3586137 4.31044936,17.0759492 4.77691627,17.2221069 C4.91750848,17.2780675 5.43177374,17.1539658 5.55468726,17.2221069 C5.55468726,17.0927376 5.5297875,6.52552282 5.55468726,6.33331298 C5.68263823,5.51463251 5.97408017,4.82559334 6.71357631,4.39304563 C7.00776279,4.22022406 7.35937608,4.12936929 7.68882463,4 Z M18.2817452,21.491666 C18.3102985,21.3494586 18.3230982,21.2842801 18.3358979,21.2191017 C18.445188,20.6403963 18.7966884,20.2592013 19.3815378,20.1861225 C19.8234077,20.135765 20.2687946,20.1238699 20.7127102,20.1505706 C22.3756912,20.2355001 24.0248878,20.1604461 25.6475003,19.7555499 C26.6702193,19.4956409 27.6609146,19.122352 28.6012853,18.642579 C28.8405419,18.5230852 28.888787,18.3907532 28.8878025,18.148803 C28.8818949,14.8474172 28.8878025,11.5460314 28.8789411,8.24464565 C28.885732,7.84240649 28.8527509,7.44048276 28.7804816,7.04477016 C28.6259002,6.27546728 28.3187065,5.81131791 27.4138638,5.63652124 C27.0478197,5.5763935 26.6770242,5.55027722 26.3061944,5.55850464 C20.7924624,5.55455444 15.2787305,5.55455444 9.76499854,5.55850464 C9.42328467,5.55206412 9.08147169,5.56393164 8.74101975,5.59405651 C7.89623725,5.68688638 7.44233896,5.97327642 7.22966644,6.79689465 C7.16609602,7.0417053 7.13302406,7.29347527 7.13120694,7.5464465 C7.1200482,11.1674699 7.11348423,14.7884933 7.11151504,18.4095167 C7.10057375,18.5130748 7.16033985,18.6110939 7.2572351,18.6485043 C8.45952146,19.2709272 9.74886738,19.7071053 11.081402,19.9421972 C12.4476496,20.1679899 13.835756,20.2306423 15.216701,20.1288445 C15.5208968,20.1090999 15.8259802,20.1071215 16.1304052,20.1229192 C16.5645933,20.1439656 16.9762464,20.3230248 17.2882889,20.6265706 C17.5895749,20.9238237 17.9203989,21.1845374 18.2817452,21.491666 Z M21.9856983,17.9998779 C20.6266,17.9170853 19.6093272,17.3687058 19.051468,16.0985695 C18.5957006,15.0680447 18.7169347,14.0531045 19.3422475,13.1229049 C20.1507789,11.9228988 21.6484305,11.5040655 22.9583059,11.9540678 C24.429523,12.4576418 25.3082425,14.0745332 24.8980518,15.6612296 C24.5981569,16.8222745 23.8333792,17.5333171 22.7559452,17.8527992 C22.5018523,17.9165599 22.2447313,17.9656572 21.9856983,17.9998779 Z M14.2079884,17.9998779 C12.8488901,17.9170853 11.8316173,17.3687058 11.273758,16.0985695 C10.8179906,15.0680447 10.9392248,14.0531045 11.5645376,13.1229049 C12.3730689,11.9228988 13.8707205,11.5040655 15.1805959,11.9540678 C16.651813,12.4576418 17.5305325,14.0745332 17.1203419,15.6612296 C16.820447,16.8222745 16.0556693,17.5333171 14.9782352,17.8527992 C14.7241423,17.9165599 14.4670213,17.9656572 14.2079884,17.9998779 Z" id="path-1"></path>
    </defs>
    <g id="Icon-/-Social-/-Slideshare" stroke="none" stroke-width="1" fill="none" fill-rule="evenodd">
        <mask id="mask-2" fill="white">
            <use xlink:href="#path-1"></use>
        </mask>
        <use id="Mask" fill="#000000" fill-rule="nonzero" xlink:href="#path-1"></use>
        <g id="Color-/-Primary-/-Blue-/-Default" mask="url(#mask-2)" fill="#1964A3" fill-rule="nonzero">
            <g transform="translate(2.000000, 2.000000)" id="Rectangle">
                <rect x="0" y="0" width="32" height="32"></rect>
            </g>
        </g>
    </g>
</svg>