<?xml version="1.0" encoding="UTF-8"?>
<svg width="36px" height="36px" viewBox="0 0 36 36" version="1.1" xmlns="http://www.w3.org/2000/svg" xmlns:xlink="http://www.w3.org/1999/xlink">
    <!-- Generator: Sketch 52.4 (67378) - http://www.bohemiancoding.com/sketch -->
    <title>Icon / Social / Twitter</title>
    <desc>Created with Sketch.</desc>
    <defs>
        <path d="M4,27.0592057 C7.10661116,27.3067678 9.9040429,26.5504365 12.4308192,24.6615575 C9.78550766,24.4344632 8.01636915,23.1391484 7.03944119,20.6869196 C7.88971539,20.8374114 8.76265143,20.8085123 9.60079023,20.6021247 C6.72927397,19.7522266 5.20905948,17.9033085 5.04508573,14.9900685 C5.85310097,15.3380199 6.66309179,15.6196948 7.55803288,15.6196948 C5.00952515,13.5251639 4.44549496,11.0154305 5.82544274,8.01739564 C8.9804558,11.6762458 12.924716,13.6645394 17.7451492,13.9939724 C17.7076131,13.5875418 17.6562478,13.2230213 17.6463699,12.8565515 C17.5959924,11.4920362 17.9841953,10.2649472 18.847527,9.20354924 C20.2985959,7.41116102 22.2080011,6.72987806 24.4907924,7.09537321 C25.3911055,7.24206955 26.2359904,7.62139697 26.9395329,8.19478262 C27.0881637,8.29402881 27.2253009,8.40907755 27.3484795,8.53786074 C27.5173922,8.75228456 27.6971707,8.77762556 27.953997,8.71427307 C28.9761295,8.47811972 29.9615219,8.10769444 30.8837931,7.61291434 C30.9687434,7.56515631 31.0556692,7.5232462 31.1435829,7.48036143 C31.1775784,7.46903788 31.2126656,7.4611993 31.248289,7.45696975 C30.8047696,8.76300575 29.9858887,9.74545672 28.8578283,10.5037373 C29.9444013,10.4169931 30.9687434,10.1070533 32,9.7396088 C31.7530516,10.0563713 31.5159811,10.3819056 31.2561913,10.6879469 C30.6801436,11.3592288 30.0312369,11.966166 29.3211035,12.4978789 C29.2328436,12.5794996 29.1824796,12.6933376 29.1818246,12.812692 C29.2345233,14.4422343 29.0346599,16.0701594 28.5891484,17.640152 C28.2707901,18.773539 27.8327746,19.8708348 27.2822973,20.9140139 C26.7507306,21.9333896 26.1134901,22.8956432 25.3807945,23.7853438 C24.4978401,24.8599558 23.4740881,25.8140438 22.3364143,26.6225608 C21.3136325,27.3481552 20.2050624,27.9480889 19.0352078,28.4091011 C17.8777903,28.860083 16.6721963,29.1798704 15.4416143,29.3623125 C14.1639826,29.55181 12.8691095,29.6021446 11.5803288,29.5124092 C10.1782764,29.4370748 8.79522183,29.1575747 7.476046,28.6829788 C6.60184859,28.3593938 5.7543216,27.964659 4.9077824,27.5806455 C4.59626956,27.4224089 4.29326976,27.2483626 4,27.0592057 Z" id="path-1"></path>
    </defs>
    <g id="Icon-/-Social-/-Twitter" stroke="none" stroke-width="1" fill="none" fill-rule="evenodd">
        <mask id="mask-2" fill="white">
            <use xlink:href="#path-1"></use>
        </mask>
        <use id="Mask" fill="#1964A3" fill-rule="nonzero" xlink:href="#path-1"></use>
        <g id="Color-/-Primary-/-Blue-/-Default" mask="url(#mask-2)" fill="#1964A3" fill-rule="nonzero">
            <g transform="translate(2.000000, 2.000000)" id="Rectangle">
                <rect x="0" y="0" width="32" height="32"></rect>
            </g>
        </g>
    </g>
</svg>