<?xml version="1.0" encoding="UTF-8"?>
<svg width="342px" height="349px" viewBox="0 0 342 349" version="1.1" xmlns="http://www.w3.org/2000/svg" xmlns:xlink="http://www.w3.org/1999/xlink">
    <title>Logos/inCharge/Continental/Stacked</title>
    <g id="Guideline-&amp;-UI-Kit" stroke="none" stroke-width="1" fill="none" fill-rule="evenodd">
        <g id="InCharge-Continental-•-Guideline" transform="translate(-549.000000, -850.000000)">
            <g id="Logotype" transform="translate(154.000000, 765.000000)">
                <g id="Vattenfall-inCharge-logo" transform="translate(2.000000, 0.000000)">
                    <g id="InCharge_Continental_logo_stacked_grey_RGB" transform="translate(308.000000, 0.000000)">
                        <g id="Layer_1">
                            <g id="Group" transform="translate(85.000000, 292.000000)" fill="#4E4B48" fill-rule="nonzero">
                                <polygon id="Path" points="99.7886 0.2699 69.5666 0.2699 69.5666 8.2289 80.3306 8.2289 80.3306 37.4189 90.0596 37.4189 90.0596 8.2289 99.7886 8.2289"></polygon>
                                <polygon id="Path" points="103.1783 0.2699 103.1783 8.2289 112.9073 8.2289 112.9073 37.4189 122.6363 37.4189 122.6363 8.2289 133.4003 8.2289 133.4003 0.2699"></polygon>
                                <polygon id="Path" points="207.4502 37.4198 207.4502 0.2708 198.1622 0.2708 198.1622 22.5008 181.6082 0.2708 172.3202 0.2708 172.3202 37.4198 181.6082 37.4198 181.6082 15.4568 198.1622 37.4198"></polygon>
                                <polygon id="Path" points="138.1178 37.4198 147.8468 37.4198 165.5888 37.4198 165.5888 29.4578 147.8468 29.4578 147.8468 22.1468 162.8828 22.1468 162.8828 14.1878 147.8468 14.1878 147.8468 8.2298 165.5888 8.2298 165.5888 0.2708 138.1178 0.2708"></polygon>
                                <polygon id="Path" points="214.8536 37.4198 224.5826 37.4198 224.5826 22.3838 240.2906 22.3838 240.2906 14.4218 224.5826 14.4218 224.5826 8.2298 243.2066 8.2298 243.2066 0.2708 214.8536 0.2708"></polygon>
                                <polygon id="Path" points="30.686 0.2699 20.105 26.3879 20.021 26.3879 9.443 0.2699 0.035 0.2699 15.275 37.4189 24.854 37.4189 40.094 0.2699"></polygon>
                                <polygon id="Path" points="314.6855 37.4198 341.5505 37.4198 341.5505 29.1728 324.4145 29.1728 324.4145 0.2708 314.6855 0.2708"></polygon>
                                <polygon id="Path" points="283.625 37.4198 310.49 37.4198 310.49 29.1728 293.354 29.1728 293.354 0.2708 283.625 0.2708"></polygon>
                                <path d="M271.0529,37.4198 L280.4609,37.4198 L264.9749,0.2708 L264.8519,0.2708 L255.5669,0.2708 L255.4439,0.2708 L239.9579,37.4198 L249.3689,37.4198 L252.0329,30.7868 L268.3859,30.7868 L271.0529,37.4198 Z M255.0959,23.2238 L260.1779,10.5368 L260.2439,10.5368 L265.3439,23.2238 L255.0959,23.2238 Z" id="Shape"></path>
                                <path d="M64.9127,37.4198 L74.3207,37.4198 L58.8347,0.2708 L58.7147,0.2708 L49.4267,0.2708 L49.3067,0.2708 L33.8207,37.4198 L43.2287,37.4198 L45.8957,30.7868 L62.2457,30.7868 L64.9127,37.4198 Z M48.9557,23.2238 L54.0377,10.5368 L54.1037,10.5368 L59.2067,23.2238 L48.9557,23.2238 Z" id="Shape"></path>
                            </g>
                            <line x1="85.0404" y1="357.2916" x2="426.5517" y2="357.2916" id="Path" stroke="#4E4B48" stroke-width="0.9"></line>
                            <g id="Group" transform="translate(141.000000, 384.000000)" fill="#4E4B48" fill-rule="nonzero">
                                <rect id="Rectangle" x="0.0498" y="0.765" width="9.288" height="37.152"></rect>
                                <path d="M13.5813,10.8483 L21.9423,10.8483 L21.9423,14.0763 C23.6643,12.2643 26.1873,10.3173 31.7133,10.3173 C39.1893,10.3173 42.9933,13.8993 42.9933,21.4623 L42.9933,37.9143 L34.2363,37.9143 L34.2363,23.8053 C34.2363,19.2963 32.5563,17.4813 29.0163,17.4813 C24.8583,17.4813 22.3383,19.9593 22.3383,24.6483 L22.3383,37.9143 L13.5813,37.9143 L13.5813,10.8483 Z" id="Path"></path>
                                <path d="M45.843,19.3842 C45.843,6.2922 54.777,0.1032 65.745,0.1032 C75.741,0.1032 82.419,5.2332 83.478,13.7682 L74.235,13.7682 C73.572,10.5402 70.698,7.7982 65.613,7.7982 C60.171,7.7982 55.662,10.9392 55.662,19.3392 C55.662,27.6972 60.171,30.8832 65.613,30.8832 C70.08,30.8832 73.308,28.7172 74.148,25.1772 L83.436,25.1772 C82.464,33.0492 76.227,38.5782 65.787,38.5782 C54.822,38.5782 45.843,32.5182 45.843,19.3842" id="Path"></path>
                                <path d="M115.7424,21.4626 L115.7424,37.9146 L106.9884,37.9146 L106.9884,23.8056 C106.9884,19.2966 105.3054,17.4816 101.7684,17.4816 C97.6104,17.4816 95.0904,19.9596 95.0904,24.6486 L95.0904,37.9146 L86.3334,37.9146 L86.3334,0.7656 L94.8234,0.7656 L94.8234,13.9446 C96.5484,12.1746 99.0684,10.3176 104.4654,10.3176 C111.9384,10.3176 115.7424,13.8996 115.7424,21.4626" id="Path"></path>
                                <path d="M118.0968,30.1746 C118.0968,26.5926 119.9118,23.8056 126.7218,22.2156 L135.6108,20.1366 C136.9818,19.8276 137.3808,19.4736 137.3808,18.7656 C137.3808,17.3946 136.0548,16.1556 132.4728,16.1556 C129.0228,16.1556 127.5198,17.3046 127.4328,19.3416 L119.5608,19.3416 C119.5608,14.8296 122.7888,10.1856 133.2678,10.1856 C141.6738,10.1856 145.8738,13.1496 145.8738,19.6506 L145.8738,37.9146 L138.0468,37.9146 L138.0468,35.2176 C136.4088,36.7656 133.5798,38.5776 128.5368,38.5776 C121.5918,38.5776 118.0968,35.1306 118.0968,30.1746 M137.5158,27.3456 L137.5158,25.0026 C136.8948,25.2216 136.5408,25.2666 135.4368,25.5336 L129.9948,26.9046 C127.2978,27.5676 126.5028,28.4526 126.5028,29.7336 C126.5028,31.4136 127.9188,32.6076 130.7478,32.6076 C134.7738,32.6076 137.5158,30.2196 137.5158,27.3456" id="Shape"></path>
                                <path d="M149.9493,10.8483 L158.4393,10.8483 L158.4393,14.7393 C160.0323,12.3963 162.1113,10.3173 167.3763,10.3173 L169.2333,10.3173 L169.2333,18.1893 L166.2243,18.1893 C160.7403,18.1893 158.7063,19.5183 158.7063,25.5333 L158.7063,37.9143 L149.9493,37.9143 L149.9493,10.8483 Z" id="Path"></path>
                                <path d="M170.9283,39.2856 L179.8173,39.2856 C180.0393,40.7466 181.5423,42.7356 185.8803,42.7356 C190.1253,42.7356 192.1563,40.7886 192.1563,36.4566 L192.1563,33.9336 C189.9003,35.9256 187.2513,36.9876 183.4443,36.9876 C175.3953,36.9876 169.8693,32.2536 169.8693,23.6736 C169.8693,14.8746 175.6593,10.1856 183.4443,10.1856 C187.1583,10.1856 189.7263,11.2476 192.2013,13.2366 L192.2013,10.8486 L200.9133,10.8486 L200.9133,36.8526 C200.9133,44.6376 195.9603,49.0596 185.6553,49.0596 C174.8673,49.0596 171.1953,44.2386 170.9283,39.2856 M192.2013,23.7186 C192.2013,19.5186 189.5493,16.7766 185.3463,16.7766 C181.4103,16.7766 179.0673,19.2066 179.0673,23.7186 C179.0673,28.2306 181.4103,30.6606 185.3463,30.6606 C189.5493,30.6606 192.2013,27.9186 192.2013,23.7186" id="Shape"></path>
                                <path d="M234.636,26.592 L212.298,26.592 C212.964,30.795 215.925,32.475 219.864,32.475 C223.71,32.475 225.126,30.84 225.744,29.688 L233.97,29.688 C232.731,34.776 228,38.577 219.51,38.577 C209.514,38.577 203.766,33.27 203.766,24.648 C203.766,15.756 209.868,10.185 219.729,10.185 C229.194,10.185 234.636,15.315 234.636,24.558 L234.636,26.592 Z M225.966,21.552 C225.831,18.855 223.929,16.29 219.51,16.29 C215.838,16.29 213.228,18.012 212.388,21.552 L225.966,21.552 Z" id="Shape"></path>
                            </g>
                            <path d="M261.0006,0 C214.0326,0 175.9596,38.073 175.9596,85.038 L346.0416,85.038 C346.0416,38.073 307.9656,0 261.0006,0" id="Path"></path>
                            <path d="M0,343.1127 C0,390.0807 38.073,428.1537 85.038,428.1537 L85.038,258.0717 C38.073,258.0717 0,296.1477 0,343.1127" id="Path"></path>
                            <path d="M511.5855,318.816 C511.5855,271.848 473.5125,233.775 426.5475,233.775 L426.5475,403.857 C473.5125,403.857 511.5855,365.781 511.5855,318.816" id="Path"></path>
                            <rect id="Rectangle" x="321.4047" y="433.0629" width="9.288" height="37.152"></rect>
                        </g>
                        <g id="Symbol" transform="translate(170.000000, 85.000000)" fill-rule="nonzero">
                            <g id="Group">
                                <path d="M85.7941,0.0341 C38.8261,0.0341 0.7531,38.1071 0.7531,85.0721 L170.8351,85.0721 C170.8351,38.1071 132.7591,0.0341 85.7941,0.0341" id="Path" fill="#FFD900"></path>
                                <path d="M85.7941,170.1125 C38.8261,170.1125 0.7531,132.0395 0.7531,85.0715 L170.8351,85.0715 C170.8351,132.0395 132.7591,170.1125 85.7941,170.1125" id="Path" fill="#2071B5"></path>
                            </g>
                        </g>
                    </g>
                </g>
            </g>
        </g>
    </g>
</svg>