<?xml version="1.0" encoding="UTF-8"?>
<svg width="735px" height="66px" viewBox="0 0 735 66" version="1.1" xmlns="http://www.w3.org/2000/svg" xmlns:xlink="http://www.w3.org/1999/xlink">
    <title>Logos/inCharge/Continental/One Line</title>
    <g id="Guideline-&amp;-UI-Kit" stroke="none" stroke-width="1" fill="none" fill-rule="evenodd">
        <g id="InCharge-Continental-•-Guideline" transform="translate(-352.000000, -1384.000000)">
            <g id="Logotype" transform="translate(154.000000, 765.000000)">
                <g id="Group-2" transform="translate(197.000000, 618.000000)">
                    <g id="Group-4" transform="translate(1.000000, 1.000000)">
                        <g id="XMLID_1_" transform="translate(499.000000, 14.000000)" fill="#4E4B48" fill-rule="nonzero">
                            <polygon id="XMLID_19_" points="0.6619 1.1073 9.9502 1.1073 9.9502 38.2608 0.6619 38.2608"></polygon>
                            <path d="M14.1955,11.1918 L22.555,11.1918 L22.555,14.4207 C24.28,12.6072 26.8012,10.6611 32.3299,10.6611 C39.8047,10.6611 43.6087,14.2437 43.6087,21.8073 L43.6087,38.2611 L34.8511,38.2611 L34.8511,24.1515 C34.8511,19.6401 33.1705,17.8266 29.632,17.8266 C25.4743,17.8266 22.9531,20.3034 22.9531,24.9918 L22.9531,38.2608 L14.1955,38.2608 L14.1955,11.1918 Z" id="XMLID_17_"></path>
                            <path d="M46.4596,19.7283 C46.4596,6.6363 55.3942,0.444 66.3634,0.444 C76.3594,0.444 83.0383,5.5746 84.0997,14.1111 L74.8555,14.1111 C74.1919,10.8822 71.317,8.1399 66.2305,8.1399 C60.7903,8.1399 56.2786,11.2803 56.2786,19.6839 C56.2786,28.0434 60.79,31.2279 66.2305,31.2279 C70.6978,31.2279 73.9267,29.0607 74.767,25.5222 L84.0553,25.5222 C83.0821,33.3951 76.8457,38.9241 66.4075,38.9241 C55.4383,38.9241 46.4596,32.8647 46.4596,19.7283 Z" id="XMLID_15_"></path>
                            <path d="M116.3665,21.8073 L116.3665,38.2611 L107.6089,38.2611 L107.6089,24.1515 C107.6089,19.6401 105.9283,17.8266 102.3898,17.8266 C98.2321,17.8266 95.7109,20.3034 95.7109,24.9918 L95.7109,38.2611 L86.9533,38.2611 L86.9533,1.1073 L95.4454,1.1073 L95.4454,14.2878 C97.1704,12.5187 99.6916,10.6608 105.0877,10.6608 C112.5628,10.6611 116.3665,14.2437 116.3665,21.8073 Z" id="XMLID_13_"></path>
                            <path d="M118.7221,30.5205 C118.7221,26.9379 120.5356,24.1512 127.3471,22.5591 L136.2373,20.4801 C137.6083,20.1705 138.0067,19.8168 138.0067,19.1088 C138.0067,17.7375 136.6798,16.4991 133.0972,16.4991 C129.6472,16.4991 128.1433,17.649 128.0548,19.6836 L120.1819,19.6836 C120.1819,15.1722 123.4108,10.5279 133.8934,10.5279 C142.2973,10.5279 146.4991,13.4913 146.4991,19.9932 L146.4991,38.2605 L138.67,38.2605 L138.67,35.5623 C137.0335,37.1103 134.2027,38.9238 129.1606,38.9238 C122.2165,38.9244 118.7221,35.4744 118.7221,30.5205 Z M138.1393,27.6897 L138.1393,25.3455 C137.5201,25.5666 137.1661,25.611 136.0603,25.8762 L130.6201,27.2475 C127.9219,27.9111 127.126,28.7955 127.126,30.0783 C127.126,31.7589 128.5414,32.9532 131.3722,32.9532 C135.397,32.9532 138.1393,30.5649 138.1393,27.6897 Z" id="XMLID_10_"></path>
                            <path d="M150.5746,11.1918 L159.0667,11.1918 L159.0667,15.084 C160.6591,12.7398 162.7378,10.6611 168.001,10.6611 L169.8586,10.6611 L169.8586,18.534 L166.8511,18.534 C161.3665,18.534 159.3319,19.8609 159.3319,25.8762 L159.3319,38.2608 L150.5743,38.2608 L150.5743,11.1918 L150.5746,11.1918 Z" id="XMLID_8_"></path>
                            <path d="M171.5572,39.6321 L180.4474,39.6321 C180.6685,41.0916 182.1724,43.0821 186.5068,43.0821 C190.753,43.0821 192.7876,41.136 192.7876,36.8013 L192.7876,34.2801 C190.5319,36.2706 187.8781,37.332 184.0741,37.332 C176.0242,37.332 170.4955,32.5992 170.4955,24.0186 C170.4955,15.2169 176.2897,10.5282 184.0741,10.5282 C187.7896,10.5282 190.3549,11.5899 192.8317,13.5801 L192.8317,11.1918 L201.5452,11.1918 L201.5452,37.1991 C201.5452,44.9835 196.5913,49.4067 186.2857,49.4067 C175.4935,49.4067 171.8224,44.5857 171.5572,39.6321 Z M192.832,24.063 C192.832,19.8612 190.1782,17.1189 185.9764,17.1189 C182.0398,17.1189 179.6956,19.5516 179.6956,24.063 C179.6956,28.5744 182.0398,31.0071 185.9764,31.0071 C190.1782,31.0071 192.832,28.2648 192.832,24.063 Z" id="XMLID_5_"></path>
                            <path d="M235.2676,26.9379 L212.9311,26.9379 C213.5944,31.1397 216.5581,32.8206 220.4944,32.8206 C224.3425,32.8206 225.7579,31.1841 226.3771,30.0342 L234.604,30.0342 C233.3656,35.1207 228.6328,38.9244 220.1407,38.9244 C210.1447,38.9244 204.3946,33.6168 204.3946,24.9918 C204.3946,16.1016 210.4984,10.5285 220.3618,10.5285 C229.8271,10.5285 235.2676,15.6591 235.2676,24.9033 L235.2676,26.9379 L235.2676,26.9379 Z M226.5979,21.8955 C226.4653,19.1976 224.5633,16.632 220.1404,16.632 C216.4693,16.632 213.8596,18.357 213.0193,21.8955 L226.5979,21.8955 Z" id="XMLID_2_"></path>
                        </g>
                        <line x1="462.5081" y1="0.1544" x2="462.5081" y2="65.2595" id="Path" stroke="#4E4B48" stroke-width="1.8"></line>
                        <g id="Group" fill-rule="nonzero">
                            <g transform="translate(0.000000, 15.000000)" fill="#4E4B48">
                                <polygon id="Path" points="99.911 0.1109 69.6887 0.1109 69.6887 8.0717 80.4515 8.0717 80.4515 37.2608 90.1811 37.2608 90.1811 8.0717 99.911 8.0717"></polygon>
                                <polygon id="Path" points="103.3007 0.1109 103.3007 8.0717 113.0306 8.0717 113.0306 37.2608 122.7602 37.2608 122.7602 8.0717 133.5227 8.0717 133.5227 0.1109"></polygon>
                                <polygon id="Path" points="207.5729 37.2608 207.5729 0.1109 198.2858 0.1109 198.2858 22.3412 181.7294 0.1109 172.442 0.1109 172.442 37.2608 181.7294 37.2608 181.7294 15.2993 198.2858 37.2608"></polygon>
                                <polygon id="Path" points="138.2393 37.2611 147.9692 37.2611 165.7091 37.2611 165.7091 29.3 147.9692 29.3 147.9692 21.9893 163.0061 21.9893 163.0061 14.0282 147.9692 14.0282 147.9692 8.0717 165.7091 8.0717 165.7091 0.1109 138.2393 0.1109"></polygon>
                                <polygon id="Path" points="214.9754 37.2611 224.7053 37.2611 224.7053 22.2239 240.4112 22.2239 240.4112 14.2631 224.7053 14.2631 224.7053 8.0717 243.3296 8.0717 243.3296 0.1109 214.9754 0.1109"></polygon>
                                <polygon id="Path" points="30.8084 0.1109 20.2283 26.2292 20.1446 26.2292 9.5648 0.1109 0.1571 0.1109 15.3974 37.2608 24.9755 37.2608 40.2158 0.1109"></polygon>
                                <polygon id="Path" points="314.8091 37.2611 341.6738 37.2611 341.6738 29.0141 324.5387 29.0141 324.5387 0.1109 314.8091 0.1109"></polygon>
                                <polygon id="Path" points="283.7468 37.2611 310.6115 37.2611 310.6115 29.0141 293.4764 29.0141 293.4764 0.1109 283.7468 0.1109"></polygon>
                                <path d="M271.1753,37.2611 L280.5824,37.2611 L265.0964,0.1109 L264.9752,0.1109 L255.689,0.1109 L255.5681,0.1109 L240.0818,37.2611 L249.4895,37.2611 L252.1574,30.6269 L268.5077,30.6269 L271.1753,37.2611 Z M255.2168,23.0657 L260.3,10.3775 L260.3642,10.3775 L265.466,23.0642 L255.2168,23.0657 Z" id="Shape"></path>
                                <path d="M65.0357,37.2611 L74.4431,37.2611 L58.9571,0.1109 L58.8359,0.1109 L49.5494,0.1109 L49.4285,0.1109 L33.9422,37.2611 L43.3499,37.2611 L46.0178,30.6269 L62.3681,30.6269 L65.0357,37.2611 Z M49.0775,23.0657 L54.1607,10.3775 L54.2249,10.3775 L59.3267,23.0642 L49.0775,23.0657 Z" id="Shape"></path>
                            </g>
                            <g transform="translate(360.000000, 0.000000)" id="Path">
                                <path d="M32.8013,0.1544 C14.8232,0.1544 0.2492,14.7287 0.2492,32.7068 L65.354,32.7068 C65.354,14.7287 50.7797,0.1544 32.8013,0.1544 Z" fill="#FFDA00"></path>
                                <path d="M32.8013,65.2595 C14.8232,65.2595 0.2492,50.6852 0.2492,32.7071 L65.354,32.7071 C65.354,50.6852 50.7797,65.2595 32.8013,65.2595 Z" fill="#2071B5"></path>
                            </g>
                        </g>
                    </g>
                </g>
            </g>
        </g>
    </g>
</svg>