<?xml version="1.0" encoding="UTF-8"?>
<svg width="16px" height="16px" viewBox="0 0 16 16" version="1.1" xmlns="http://www.w3.org/2000/svg" xmlns:xlink="http://www.w3.org/1999/xlink">
    <!-- Generator: Sketch 53 (72520) - https://sketchapp.com -->
    <title>Shape</title>
    <desc>Created with Sketch.</desc>
    <g id="Page-1" stroke="none" stroke-width="1" fill="none" fill-rule="evenodd">
        <g id="Homepage" transform="translate(-42.000000, -696.000000)" fill="#1964A3">
            <g id="Group-3" transform="translate(42.000000, 683.000000)">
                <path d="M12.2352941,25.3076923 L12.2352941,16.6923077 L3.76470588,16.6923077 L3.76470588,18.2179476 L10.7817431,18.2179476 L10.7817431,25.3076923 L12.2352941,25.3076923 Z M6.5628328,25.3072612 C8.28122505,25.3356339 9.70556237,23.9598087 9.72528181,22.2524025 C9.74505727,20.5448317 8.35494886,19.172903 6.58580147,19.1540245 C4.88875327,19.1359143 3.47534007,20.4994465 3.451307,22.1778764 C3.42665771,23.8967523 4.80018386,25.2780654 6.5628328,25.3072612 Z M15.7779374,17.7156778 C16.0254145,19.3065256 16.03551,20.9076656 15.9551823,22.5116524 C15.9040498,23.5334761 15.7871598,24.5426536 15.4863128,25.5269219 C14.9946875,27.1352883 13.9207408,28.1243195 12.3235178,28.5682503 C11.1517808,28.8939309 9.94959341,29.013714 8.74151245,28.9987684 C7.48115298,28.983166 6.21795584,28.9365229 4.96305342,28.8242947 C4.01303618,28.7393298 3.09750748,28.4720078 2.27311146,27.9427288 C1.44877001,27.4135046 0.92745835,26.6665031 0.598180161,25.7611777 C0.268465409,24.8547026 0.140115674,23.9089203 0.074249122,22.9556927 C-0.0376749028,21.3350633 -0.0368017753,19.7138317 0.17247596,18.0992791 C0.321235049,16.9514314 0.589940021,15.8438763 1.32331251,14.9051014 C1.90705278,14.1578809 2.69183064,13.7257751 3.578055,13.460205 C4.62880931,13.1453639 5.7117602,13.0405264 6.80251467,13.0060368 C7.1923115,12.993719 7.58281775,13.0040659 7.97299658,13.0040659 C9.36361575,12.9872591 10.7535801,13.0278254 12.1111841,13.3712436 C13.3105884,13.6746429 14.33564,14.2466233 14.9945784,15.3502914 C15.4307055,16.0808693 15.6488237,16.8854631 15.7779374,17.7156778 Z M6.56863586,20.692348 C7.44503965,20.6862736 8.14663602,21.3681557 8.15676341,22.235815 C8.16656055,23.0678885 7.45037854,23.768316 6.58900071,23.7692298 C5.73373232,23.7701437 5.02828314,23.0963786 5.01969688,22.2703257 C5.01061526,21.397936 5.69735081,20.6983685 6.56863586,20.692348 Z" id="Shape"></path>
            </g>
        </g>
    </g>
</svg>