<?xml version="1.0" encoding="utf-8"?>
<!-- Generator: Adobe Illustrator 23.1.1, SVG Export Plug-In . SVG Version: 6.00 Build 0)  -->
<svg version="1.1" xmlns="http://www.w3.org/2000/svg" xmlns:xlink="http://www.w3.org/1999/xlink" x="0px" y="0px"
	 viewBox="0 0 170.1 226.8" style="enable-background:new 0 0 170.1 226.8;" xml:space="preserve">
<g id="::_Wordmark">
	<g id="XMLID_874_">
		<path id="XMLID_914_" d="M30.5,171.7h4.3V189h-4.3V171.7z"/>
		<path id="XMLID_912_" d="M36.8,176.4h3.9v1.5c0.8-0.8,2-1.7,4.5-1.7c3.5,0,5.2,1.7,5.2,5.2v7.7h-4.1v-6.6c0-2.1-0.8-2.9-2.4-2.9
			c-1.9,0-3.1,1.2-3.1,3.3v6.2h-4.1V176.4z"/>
		<path id="XMLID_910_" d="M51.8,180.4c0-6.1,4.2-9,9.3-9c4.6,0,7.8,2.4,8.3,6.4H65c-0.3-1.5-1.6-2.8-4-2.8c-2.5,0-4.6,1.5-4.6,5.4
			c0,3.9,2.1,5.4,4.6,5.4c2.1,0,3.6-1,4-2.7h4.3c-0.5,3.7-3.4,6.2-8.2,6.2C56,189.3,51.8,186.5,51.8,180.4z"/>
		<path id="XMLID_908_" d="M84.3,181.4v7.7h-4.1v-6.6c0-2.1-0.8-2.9-2.4-2.9c-1.9,0-3.1,1.2-3.1,3.3v6.2h-4.1v-17.3h4v6.1
			c0.8-0.8,2-1.7,4.5-1.7C82.5,176.2,84.3,177.8,84.3,181.4z"/>
		<path id="XMLID_883_" d="M85.4,185.4c0-1.7,0.8-3,4-3.7l4.1-1c0.6-0.1,0.8-0.3,0.8-0.6c0-0.6-0.6-1.2-2.3-1.2
			c-1.6,0-2.3,0.5-2.3,1.5h-3.7c0-2.1,1.5-4.3,6.4-4.3c3.9,0,5.9,1.4,5.9,4.4v8.5h-3.6v-1.3c-0.8,0.7-2.1,1.6-4.4,1.6
			C87,189.3,85.4,187.7,85.4,185.4z M94.4,184.1V183c-0.3,0.1-0.5,0.1-1,0.2l-2.5,0.6c-1.3,0.3-1.6,0.7-1.6,1.3c0,0.8,0.7,1.3,2,1.3
			C93.1,186.5,94.4,185.4,94.4,184.1z"/>
		<path id="XMLID_881_" d="M100.2,176.4h4v1.8c0.7-1.1,1.7-2.1,4.2-2.1h0.9v3.7h-1.4c-2.6,0-3.5,0.6-3.5,3.4v5.8h-4.1V176.4z"/>
		<path id="XMLID_878_" d="M110,189.7h4.1c0.1,0.7,0.8,1.6,2.8,1.6c2,0,2.9-0.9,2.9-2.9v-1.2c-1,0.9-2.3,1.4-4.1,1.4
			c-3.7,0-6.3-2.2-6.3-6.2c0-4.1,2.7-6.3,6.3-6.3c1.7,0,2.9,0.5,4.1,1.4v-1.1h4.1v12.1c0,3.6-2.3,5.7-7.1,5.7
			C111.8,194.2,110.1,192,110,189.7z M119.9,182.4c0-2-1.2-3.2-3.2-3.2c-1.8,0-2.9,1.1-2.9,3.2c0,2.1,1.1,3.2,2.9,3.2
			C118.6,185.6,119.9,184.4,119.9,182.4z"/>
		<path id="XMLID_875_" d="M139.6,183.7h-10.4c0.3,2,1.7,2.7,3.5,2.7c1.8,0,2.4-0.8,2.7-1.3h3.8c-0.6,2.4-2.8,4.1-6.7,4.1
			c-4.6,0-7.3-2.5-7.3-6.5c0-4.1,2.8-6.7,7.4-6.7c4.4,0,6.9,2.4,6.9,6.7V183.7z M135.6,181.4c-0.1-1.3-0.9-2.4-3-2.4
			c-1.7,0-2.9,0.8-3.3,2.4H135.6z"/>
	</g>
</g>
<g id="::_Symbol">
	<g>
		<path id="XMLID_25_" d="M104.6,32.5l-44,37.8L76.5,74l-8.1,34.3l43.1-36.5l-17.2-4.1C94.3,67.8,104.7,32,104.6,32.5z"/>
		<path d="M39.4,108.7c0,25.2,20.3,45.7,45.7,45.7s45.7-20.5,45.7-45.7c0-12.7-5.1-24.1-13.4-32.4l-13.5,11.1
			c6.1,5.4,9.6,13.2,9.6,21.3c0,15.8-12.8,28.3-28.3,28.3s-28.3-12.6-28.3-28.3c0-8.1,3.5-15.9,9.6-21.3L52.8,76.3
			C44.5,84.6,39.4,96.1,39.4,108.7"/>
	</g>
</g>
</svg>
