<?xml version="1.0" encoding="utf-8"?>
<!-- Generator: Adobe Illustrator 23.0.6, SVG Export Plug-In . SVG Version: 6.00 Build 0)  -->
<svg version="1.1" xmlns="http://www.w3.org/2000/svg" xmlns:xlink="http://www.w3.org/1999/xlink" x="0px" y="0px"
	 viewBox="0 0 170.0787 226.7717" style="enable-background:new 0 0 170.0787 226.7717;" xml:space="preserve">
<style type="text/css">
	.st0{fill:#FFFFFF;}
	.st1{fill:#46EE76;}
	.st2{fill:#2071B5;}
</style>
<g id="::_Wordmark">
	<g id="XMLID_874_">
		<path id="XMLID_914_" class="st0" d="M30.4726,171.7304h4.3208v17.2831h-4.3208V171.7304z"/>
		<path id="XMLID_912_" class="st0" d="M36.7683,176.4215h3.8887v1.502c0.8024-0.8436,1.9752-1.7489,4.5471-1.7489
			c3.4772,0,5.2466,1.6666,5.2466,5.1849v7.6539h-4.0739V182.45c0-2.0987-0.7818-2.9422-2.4278-2.9422
			c-1.9341,0-3.1068,1.1522-3.1068,3.3332v6.1725h-4.0739V176.4215z"/>
		<path id="XMLID_910_" class="st0" d="M51.7768,180.3925c0-6.0902,4.1562-8.9707,9.2588-8.9707c4.65,0,7.7568,2.3867,8.2506,6.3577
			H64.986c-0.3087-1.502-1.646-2.7776-4.0122-2.7776c-2.5307,0-4.6294,1.4608-4.6294,5.3701c0,3.8887,2.0987,5.3701,4.6294,5.3701
			c2.0781,0,3.5801-1.0082,3.971-2.6542h4.3208c-0.4527,3.6623-3.3537,6.2342-8.2095,6.2342
			C55.9536,189.3221,51.7768,186.5033,51.7768,180.3925z"/>
		<path id="XMLID_908_" class="st0" d="M84.296,181.3595v7.6539h-4.0739V182.45c0-2.0987-0.7818-2.9422-2.4278-2.9422
			c-1.9341,0-3.1068,1.1522-3.1068,3.3332v6.1725h-4.0739v-17.2831h3.9504v6.1314c0.8024-0.823,1.9752-1.6871,4.4853-1.6871
			C82.5266,176.1746,84.296,177.8412,84.296,181.3595z"/>
		<path id="XMLID_883_" class="st0" d="M85.3918,185.4128c0-1.6666,0.8436-2.9628,4.0121-3.7035l4.1356-0.9671
			c0.6378-0.144,0.823-0.3086,0.823-0.6378c0-0.6378-0.6173-1.2139-2.2838-1.2139c-1.6048,0-2.3044,0.535-2.3455,1.4814h-3.6624
			c0-2.0986,1.502-4.259,6.3783-4.259c3.9093,0,5.8639,1.3785,5.8639,4.4031v8.4975h-3.6418v-1.2551
			c-0.7613,0.7201-2.0781,1.5637-4.4236,1.5637C87.0173,189.3221,85.3918,187.7172,85.3918,185.4128z M94.4243,184.096v-1.0905
			c-0.2881,0.1029-0.4527,0.1234-0.967,0.2469l-2.5307,0.6378c-1.2551,0.3087-1.6255,0.7201-1.6255,1.3168
			c0,0.7818,0.6584,1.3374,1.9752,1.3374C93.1486,186.5444,94.4243,185.4334,94.4243,184.096z"/>
		<path id="XMLID_881_" class="st0" d="M100.2089,176.4215h3.9504v1.8106c0.7407-1.0905,1.7077-2.0575,4.1561-2.0575h0.8642v3.6623
			h-1.3991c-2.5513,0-3.4978,0.6173-3.4978,3.4155v5.761h-4.0739V176.4215z"/>
		<path id="XMLID_878_" class="st0" d="M109.9695,189.6513h4.1356c0.1029,0.679,0.8024,1.6048,2.8188,1.6048
			c1.9752,0,2.9217-0.9053,2.9217-2.9217v-1.1727c-1.0493,0.9259-2.2838,1.4197-4.0533,1.4197
			c-3.7446,0-6.3165-2.2015-6.3165-6.1931c0-4.0944,2.6953-6.2754,6.3165-6.2754c1.7283,0,2.9217,0.4938,4.0739,1.4197v-1.1111
			h4.0533v12.0981c0,3.6212-2.3044,5.6787-7.0984,5.6787C111.8007,194.1984,110.093,191.9557,109.9695,189.6513z M119.8661,182.4088
			c0-1.9546-1.2345-3.2303-3.1891-3.2303c-1.8312,0-2.9217,1.1317-2.9217,3.2303c0,2.0987,1.0905,3.2303,2.9217,3.2303
			C118.6316,185.6391,119.8661,184.3635,119.8661,182.4088z"/>
		<path id="XMLID_875_" class="st0" d="M139.6061,183.7462h-10.3904c0.3086,1.9546,1.6871,2.7365,3.5183,2.7365
			c1.79,0,2.4484-0.7613,2.7365-1.2962h3.827c-0.5761,2.3661-2.7776,4.1356-6.7281,4.1356c-4.6499,0-7.3247-2.469-7.3247-6.4811
			c0-4.1356,2.8394-6.7281,7.4276-6.7281c4.4031,0,6.9338,2.3867,6.9338,6.6869V183.7462z M135.5734,181.4007
			c-0.0617-1.2551-0.9464-2.4484-3.0039-2.4484c-1.7077,0-2.9217,0.8024-3.3126,2.4484H135.5734z"/>
	</g>
</g>
<g id="::_Symbol">
	<g>
		<path id="XMLID_25_" class="st1" d="M104.585,32.4903L60.6113,70.2751l15.8408,3.7542l-8.1185,34.2555l43.1178-36.4564
			l-17.1648-4.0681C94.2866,67.7603,104.6984,32.0121,104.585,32.4903z"/>
		<path class="st2" d="M39.3831,108.7058c0,25.1565,20.3479,45.6562,45.6562,45.6562s45.6562-20.4997,45.6562-45.6562
			c0-12.6542-5.1123-24.0935-13.4134-32.3947l-13.5146,11.085c6.1246,5.416,9.6172,13.1603,9.6172,21.3096
			c0,15.7924-12.7554,28.3453-28.3453,28.3453S56.694,124.4982,56.694,108.7058c0-8.1493,3.4925-15.8936,9.6172-21.3096
			l-13.5146-11.085C44.4954,84.6123,39.3831,96.0516,39.3831,108.7058"/>
	</g>
</g>
</svg>
