<?xml version="1.0" encoding="UTF-8"?>
<svg width="43px" height="40px" viewBox="0 0 43 40" version="1.1" xmlns="http://www.w3.org/2000/svg" xmlns:xlink="http://www.w3.org/1999/xlink">
    <title>VF_alert_rgb</title>
    <g id="WIP" stroke="none" stroke-width="1" fill="none" fill-rule="evenodd">
        <g id="Confirmation" transform="translate(-269.000000, -1019.000000)" fill="#F93B18" fill-rule="nonzero">
            <g id="VF_alert_rgb" transform="translate(269.000000, 1019.000000)">
                <path d="M21.3488372,0.0620155039 L0.108527132,39.8914729 L42.5891473,39.8914729 L21.3488372,0.0620155039 Z M21.3488372,9.39534884 L35.2713178,35.4883721 L7.44186047,35.4883721 L21.3488372,9.39534884 Z" id="Shape"></path>
                <rect id="Rectangle" x="19.1627907" y="17.9224806" width="4.3875969" height="8.79069767"></rect>
                <path d="M22.8837209,28.1705426 C22.4186047,27.9069767 21.8914729,27.7829457 21.3643411,27.7984496 C21.3023256,27.7984496 21.2248062,27.7984496 21.1627907,27.7984496 C20.4341085,27.8294574 19.7674419,28.0465116 19.2403101,28.6511628 C18.6666667,29.3333333 18.5426357,30.1550388 18.6511628,31.0387597 C18.7906977,32.1085271 19.3643411,32.7906977 20.2945736,33.1162791 C20.7131783,33.255814 21.1472868,33.3023256 21.5813953,33.2713178 C22.9302326,33.1937984 23.9689922,32.3565891 24.0930233,30.7596899 C24.1705426,29.6589147 23.7209302,28.6666667 22.8837209,28.1705426 Z" id="Path"></path>
            </g>
        </g>
    </g>
</svg>