<?xml version="1.0" encoding="UTF-8"?>
<svg width="550px" height="149px" viewBox="0 0 550 149" version="1.1" xmlns="http://www.w3.org/2000/svg" xmlns:xlink="http://www.w3.org/1999/xlink">
    <title>Group 3</title>
    <g id="Guideline-&amp;-UI-Kit" stroke="none" stroke-width="1" fill="none" fill-rule="evenodd">
        <g id="InCharge-Nordic-•-Guideline-" transform="translate(-445.000000, -1746.000000)" fill-rule="nonzero">
            <g id="Group-3" transform="translate(445.000000, 1746.000000)">
                <g id="XMLID_553_" transform="translate(0.000000, 60.000000)" fill="#4E4B48">
                    <polygon id="XMLID_571_" points="0.013605448 1.65618946 16.1009195 1.65618946 16.1009195 66.005073 0.013605448 66.005073"></polygon>
                    <path d="M23.4535662,19.1221713 L37.9323724,19.1221713 L37.9323724,24.7143252 C40.9199206,21.5736744 45.2865092,18.2028111 54.8623091,18.2028111 C67.8085998,18.2028111 74.3964789,24.4077476 74.3964789,37.5075134 L74.3964789,66.005073 L59.2285251,66.005073 L59.2285251,41.5675244 C59.2285251,33.7537074 56.3177144,30.6130567 50.1891429,30.6130567 C42.9881086,30.6130567 38.62152,34.9029077 38.62152,43.0233023 L38.62152,66.005073 L23.4535662,66.005073 L23.4535662,19.1221713 L23.4535662,19.1221713 Z" id="XMLID_569_"></path>
                    <path d="M79.3341288,33.9071825 C79.3341288,11.2319893 94.8082876,0.507361684 113.806785,0.507361684 C131.119664,0.507361684 142.687287,9.3936414 144.525635,24.1782801 L128.515059,24.1782801 C127.365858,18.5861262 122.386487,13.836595 113.576945,13.836595 C104.15462,13.836595 96.340803,19.2756464 96.340803,33.8308175 C96.340803,48.3092511 104.15462,53.82504 113.576945,53.82504 C121.314024,53.82504 126.906551,50.071234 128.361956,43.943035 L144.44927,43.943035 C142.764025,57.5788459 131.962659,67.1546458 113.883522,67.1546458 C94.8850252,67.1539008 79.3341288,56.6591132 79.3341288,33.9071825 Z" id="XMLID_567_"></path>
                    <path d="M200.410295,37.5075134 L200.410295,66.005073 L185.242341,66.005073 L185.242341,41.5675244 C185.242341,33.7537074 182.331531,30.6130567 176.202959,30.6130567 C169.001925,30.6130567 164.635336,34.9029077 164.635336,43.0233023 L164.635336,66.005073 L149.467383,66.005073 L149.467383,1.65618946 L164.175656,1.65618946 L164.175656,24.4844851 C167.163204,21.4201994 171.529793,18.2028111 180.875753,18.2028111 C193.822416,18.2028111 200.410295,24.4081201 200.410295,37.5075134 Z" id="XMLID_565_"></path>
                    <path d="M204.490422,52.5991021 C204.490422,46.3941656 207.631073,41.5678969 219.428536,38.8101887 L234.826329,35.2094853 C237.201095,34.6734402 237.890615,34.060285 237.890615,32.8347197 C237.890615,30.4599541 235.592215,28.3150286 229.387278,28.3150286 C223.412182,28.3150286 220.807576,30.3068516 220.654101,33.8308175 L207.01829,33.8308175 C207.01829,26.0170005 212.610816,17.9733435 230.765946,17.9733435 C245.321117,17.9733435 252.598516,23.1058173 252.598516,34.3668626 L252.598516,66.005073 L239.03907,66.005073 L239.03907,61.3319068 C236.204625,64.01325 231.301991,67.1539008 222.568814,67.1539008 C210.542256,67.1539008 204.490422,61.1788043 204.490422,52.5991021 Z M238.120455,47.6960959 L238.120455,43.6360849 C237.047992,44.0190275 236.43521,44.095765 234.519752,44.5550726 L225.097427,46.9298382 C220.424261,48.0790385 219.045593,49.6111814 219.045593,51.8328444 C219.045593,54.7436552 221.497096,56.8122157 226.39973,56.8122157 C233.370552,56.8122157 238.120455,52.6754672 238.120455,47.6960959 Z" id="XMLID_562_"></path>
                    <path d="M259.657623,19.1221713 L274.365897,19.1221713 L274.365897,25.8635255 C277.123605,21.8035145 280.723936,18.2031836 289.840056,18.2031836 L293.057444,18.2031836 L293.057444,31.8389945 L287.848233,31.8389945 C278.349171,31.8389945 274.825205,34.1373951 274.825205,44.5554451 L274.825205,66.005073 L259.657251,66.005073 L259.657251,19.1221713 L259.657623,19.1221713 Z" id="XMLID_560_"></path>
                    <path d="M295.998801,68.3798386 L311.396595,68.3798386 C311.779537,70.9077067 314.384143,74.3549351 321.891382,74.3549351 C329.245519,74.3549351 332.769485,70.9840717 332.769485,63.4768323 L332.769485,59.1102438 C328.862577,62.5574721 324.266148,64.3958201 317.678269,64.3958201 C303.736253,64.3958201 294.160453,56.1990605 294.160453,41.3376843 C294.160453,26.0933655 304.195933,17.972971 317.678269,17.972971 C324.113045,17.972971 328.556372,19.8116915 332.846223,23.2589198 L332.846223,19.1221713 L347.937439,19.1221713 L347.937439,64.1663525 C347.937439,77.6490609 339.357737,85.3094028 321.50844,85.3094028 C302.81652,85.3094028 296.458481,76.9595407 295.998801,68.3798386 Z M332.846223,41.4144219 C332.846223,34.1370225 328.249794,29.3874914 320.972395,29.3874914 C314.154303,29.3874914 310.094292,33.6009774 310.094292,41.4144219 C310.094292,49.2282388 314.154303,53.4413523 320.972395,53.4413523 C328.249794,53.4413523 332.846223,48.6918212 332.846223,41.4144219 Z" id="XMLID_557_"></path>
                    <path d="M406.342517,46.3937931 L367.656747,46.3937931 C368.805948,53.6711924 373.938421,56.5823756 380.756141,56.5823756 C387.420757,56.5823756 389.87226,53.7479299 390.944723,51.7561069 L405.193317,51.7561069 C403.048019,60.5656491 394.851632,67.1539008 380.143358,67.1539008 C362.830479,67.1539008 352.871736,57.9610435 352.871736,43.0229297 C352.871736,27.6251359 363.443261,17.972971 380.526301,17.972971 C396.91982,17.972971 406.342517,26.8592507 406.342517,42.8698272 L406.342517,46.3937931 L406.342517,46.3937931 Z M391.327666,37.6606159 C391.097826,32.9878223 387.8037,28.5444961 380.143358,28.5444961 C373.785319,28.5444961 369.265255,31.5320444 367.80985,37.6606159 L391.327666,37.6606159 Z" id="XMLID_554_"></path>
                </g>
                <g id="Group" transform="translate(437.000000, 0.000000)">
                    <path d="M80.2667045,0.124758109 L26.6946003,46.1568418 L45.9929699,50.7305472 L36.1023972,92.4630945 L88.631467,48.049204 L67.7201194,43.0933011 C67.7204919,43.0933011 80.404534,-0.457851049 80.2667045,0.124758109 Z" id="XMLID_25_" fill="#46EE76"></path>
                    <path d="M0.83293739,92.9760439 C0.83293739,123.623372 25.6221375,148.59771 56.4546039,148.59771 C87.2870703,148.59771 112.07627,123.623372 112.07627,92.9760439 C112.07627,77.559997 105.848238,63.6235687 95.7352756,53.5106061 L79.2706067,67.0152927 C86.7320271,73.6136022 90.986862,83.0482199 90.986862,92.9760439 C90.986862,112.215557 75.447141,127.508302 56.4546039,127.508302 C37.4620669,127.508302 21.9223459,112.215557 21.9223459,92.9760439 C21.9223459,83.0478474 26.1771808,73.6132297 33.6386012,67.0152927 L17.1739322,53.5106061 C7.0613422,63.6235687 0.83293739,77.5596244 0.83293739,92.9760439" id="Path" fill="#2071B5"></path>
                </g>
            </g>
        </g>
    </g>
</svg>