<?xml version="1.0" encoding="UTF-8"?>
<svg width="285px" height="105px" viewBox="0 0 285 105" version="1.1" xmlns="http://www.w3.org/2000/svg" xmlns:xlink="http://www.w3.org/1999/xlink">
    <title>Logos/inCharge/Continental/Linear</title>
    <g id="Guideline-&amp;-UI-Kit" stroke="none" stroke-width="1" fill="none" fill-rule="evenodd">
        <g id="InCharge-Continental-•-Guideline" transform="translate(-865.000000, -1748.000000)">
            <g id="Logotype" transform="translate(154.000000, 765.000000)">
                <g id="Group-2" transform="translate(197.000000, 618.000000)">
                    <g id="Incharge_Continental_logo_linear_grey_RGB" transform="translate(493.000000, 354.000000)">
                        <g id="::_Wordmark">
                            <path d="M122.436,129.7692 C134.4214,129.7692 144.1374,120.053 144.1374,108.0676 L100.7344,108.0676 C100.7344,120.053 110.4504,129.7692 122.436,129.7692 Z" id="Path"></path>
                            <path d="M326.8678,53.9448 C326.8678,41.9594 317.1516,32.2434 305.1662,32.2434 L305.1662,75.6466 C317.1516,75.6466 326.8678,65.9304 326.8678,53.9448 Z" id="Path"></path>
                            <path d="M0,56.2616 C0,68.247 9.7162,77.963 21.7016,77.963 L21.7016,34.56 C9.7162,34.56 0,44.2762 0,56.2616 Z" id="Path"></path>
                            <g id="XMLID_21_" transform="translate(80.000000, 82.000000)" fill="#4E4B48" fill-rule="nonzero">
                                <polygon id="XMLID_39_" points="0.5176 1.2992 6.7098 1.2992 6.7098 26.0682 0.5176 26.0682"></polygon>
                                <path d="M9.5402,8.0222 L15.1132,8.0222 L15.1132,10.1748 C16.2632,8.9658 17.944,7.6684 21.6298,7.6684 C26.613,7.6684 29.149,10.0568 29.149,15.0992 L29.149,26.0684 L23.3106,26.0684 L23.3106,16.662 C23.3106,13.6544 22.1902,12.4454 19.8312,12.4454 C17.0594,12.4454 15.3786,14.0966 15.3786,17.2222 L15.3786,26.0682 L9.5402,26.0682 L9.5402,8.0222 Z" id="XMLID_37_"></path>
                                <path d="M31.0496,13.713 C31.0496,4.985 37.006,0.8568 44.3188,0.8568 C50.9828,0.8568 55.4354,4.2772 56.143,9.9682 L49.9802,9.9682 C49.5378,7.8156 47.6212,5.9874 44.2302,5.9874 C40.6034,5.9874 37.5956,8.081 37.5956,13.6834 C37.5956,19.2564 40.6032,21.3794 44.2302,21.3794 C47.2084,21.3794 49.361,19.9346 49.9212,17.5756 L56.1134,17.5756 C55.4646,22.8242 51.307,26.5102 44.3482,26.5102 C37.0354,26.5102 31.0496,22.4708 31.0496,13.713 Z" id="XMLID_35_"></path>
                                <path d="M77.654,15.099 L77.654,26.0682 L71.8156,26.0682 L71.8156,16.6618 C71.8156,13.6542 70.6952,12.4452 68.3362,12.4452 C65.5644,12.4452 63.8836,14.0964 63.8836,17.222 L63.8836,26.0682 L58.0452,26.0682 L58.0452,1.2992 L63.7066,1.2992 L63.7066,10.0862 C64.8566,8.9068 66.5374,7.6682 70.1348,7.6682 C75.1182,7.6682 77.654,10.0568 77.654,15.099 Z" id="XMLID_33_"></path>
                                <path d="M79.2246,20.908 C79.2246,18.5196 80.4336,16.6618 84.9746,15.6004 L90.9014,14.2144 C91.8156,14.008 92.0808,13.7722 92.0808,13.3002 C92.0808,12.386 91.1962,11.5604 88.8078,11.5604 C86.5078,11.5604 85.5052,12.327 85.4464,13.6834 L80.1976,13.6834 C80.1976,10.6758 82.3502,7.5796 89.3386,7.5796 C94.9412,7.5796 97.7424,9.5552 97.7424,13.8898 L97.7424,26.068 L92.5232,26.068 L92.5232,24.2692 C91.4322,25.3012 89.545,26.5102 86.1834,26.5102 C81.554,26.5104 79.2246,24.2104 79.2246,20.908 Z M92.1694,19.0208 L92.1694,17.458 C91.7566,17.6054 91.5206,17.635 90.7834,17.8118 L87.1566,18.726 C85.3578,19.1684 84.8272,19.758 84.8272,20.6132 C84.8272,21.7336 85.7708,22.5298 87.658,22.5298 C90.3412,22.5298 92.1694,20.9374 92.1694,19.0208 Z" id="XMLID_30_"></path>
                                <path d="M100.4596,8.0222 L106.1212,8.0222 L106.1212,10.617 C107.1828,9.0542 108.5686,7.6684 112.0774,7.6684 L113.3158,7.6684 L113.3158,12.917 L111.3106,12.917 C107.6542,12.917 106.2978,13.8016 106.2978,17.8118 L106.2978,26.0682 L100.4594,26.0682 L100.4594,8.0222 L100.4596,8.0222 Z" id="XMLID_28_"></path>
                                <path d="M114.4478,26.9822 L120.3746,26.9822 C120.522,27.9552 121.5246,29.2822 124.4142,29.2822 C127.245,29.2822 128.6014,27.9848 128.6014,25.095 L128.6014,23.4142 C127.0976,24.7412 125.3284,25.4488 122.7924,25.4488 C117.4258,25.4488 113.74,22.2936 113.74,16.5732 C113.74,10.7054 117.6028,7.5796 122.7924,7.5796 C125.2694,7.5796 126.9796,8.2874 128.6308,9.6142 L128.6308,8.022 L134.4398,8.022 L134.4398,25.3602 C134.4398,30.5498 131.1372,33.4986 124.2668,33.4986 C117.0722,33.4986 114.6248,30.2848 114.4478,26.9822 Z M128.631,16.6028 C128.631,13.8016 126.8618,11.9734 124.0606,11.9734 C121.4362,11.9734 119.8734,13.5952 119.8734,16.6028 C119.8734,19.6104 121.4362,21.2322 124.0606,21.2322 C126.8618,21.2322 128.631,19.404 128.631,16.6028 Z" id="XMLID_25_"></path>
                                <path d="M156.9212,18.5196 L142.0304,18.5196 C142.4726,21.3208 144.4484,22.4414 147.0726,22.4414 C149.638,22.4414 150.5816,21.3504 150.9944,20.5838 L156.479,20.5838 C155.6534,23.9748 152.4982,26.5106 146.8368,26.5106 C140.1728,26.5106 136.3394,22.9722 136.3394,17.2222 C136.3394,11.2954 140.4086,7.58 146.9842,7.58 C153.2944,7.58 156.9212,11.0004 156.9212,17.1632 L156.9212,18.5196 Z M151.1418,15.158 C151.0534,13.3594 149.7854,11.649 146.8368,11.649 C144.3894,11.649 142.6496,12.799 142.0894,15.158 L151.1418,15.158 Z" id="XMLID_22_"></path>
                            </g>
                            <line x1="21.702" y1="64.7222" x2="305.1666" y2="64.7222" id="Path" stroke="#4E4B48" stroke-width="1.2"></line>
                            <g id="Group" transform="translate(21.000000, 21.000000)" fill="#4E4B48" fill-rule="nonzero">
                                <polygon id="Path" points="67.2058 0.7002 47.0578 0.7002 47.0578 6.0074 54.2328 6.0074 54.2328 25.4668 60.7192 25.4668 60.7192 6.0074 67.2058 6.0074"></polygon>
                                <polygon id="Path" points="69.4658 0.7002 69.4658 6.0074 75.9522 6.0074 75.9522 25.4668 82.4386 25.4668 82.4386 6.0074 89.6138 6.0074 89.6138 0.7002"></polygon>
                                <polygon id="Path" points="138.9806 25.4668 138.9806 0.7002 132.789 0.7002 132.789 15.5204 121.7516 0.7002 115.56 0.7002 115.56 25.4668 121.7516 25.4668 121.7516 10.8258 132.789 25.4668"></polygon>
                                <polygon id="Path" points="92.7582 25.467 99.2448 25.467 111.0714 25.467 111.0714 20.1598 99.2448 20.1598 99.2448 15.2858 109.2694 15.2858 109.2694 9.9786 99.2448 9.9786 99.2448 6.0074 111.0714 6.0074 111.0714 0.7002 92.7582 0.7002"></polygon>
                                <polygon id="Path" points="143.9156 25.467 150.402 25.467 150.402 15.4424 160.8728 15.4424 160.8728 10.1352 150.402 10.1352 150.402 6.0074 162.8184 6.0074 162.8184 0.7002 143.9156 0.7002"></polygon>
                                <polygon id="Path" points="21.1374 0.7002 14.084 18.1124 14.0284 18.1124 6.975 0.7002 0.7032 0.7002 10.8636 25.4668 17.249 25.4668 27.409 0.7002"></polygon>
                                <polygon id="Path" points="210.4712 25.467 228.3812 25.467 228.3812 19.969 216.9576 19.969 216.9576 0.7002 210.4712 0.7002"></polygon>
                                <polygon id="Path" points="189.763 25.467 207.673 25.467 207.673 19.969 196.2494 19.969 196.2494 0.7002 189.763 0.7002"></polygon>
                                <path d="M181.382,25.467 L187.6536,25.467 L177.3296,0.7002 L177.2488,0.7002 L171.0578,0.7002 L170.9772,0.7002 L160.653,25.467 L166.9248,25.467 L168.7034,21.0442 L179.6036,21.0442 L181.382,25.467 Z M170.7432,16.0034 L174.132,7.5446 L174.1748,7.5446 L177.576,16.0024 L170.7432,16.0034 Z" id="Shape"></path>
                                <path d="M43.9558,25.467 L50.2274,25.467 L39.9034,0.7002 L39.8226,0.7002 L33.6316,0.7002 L33.551,0.7002 L23.2268,25.467 L29.4986,25.467 L31.2772,21.0442 L42.1774,21.0442 L43.9558,25.467 Z M33.3168,16.0034 L36.7056,7.5446 L36.7484,7.5446 L40.1496,16.0024 L33.3168,16.0034 Z" id="Shape"></path>
                            </g>
                            <path d="M224.1604,0 C212.175,0 202.459,9.7162 202.459,21.7016 L245.8622,21.7016 C245.8622,9.7162 236.146,0 224.1604,0 Z" id="Path"></path>
                        </g>
                        <g id="::_Symbol" transform="translate(261.000000, 11.000000)" fill-rule="nonzero">
                            <g id="Group">
                                <path d="M22.4662,0.7294 C10.4808,0.7294 0.7648,10.4456 0.7648,22.431 L44.168,22.431 C44.168,10.4454 34.4518,0.7294 22.4662,0.7294 Z" id="Path" fill="#FFDA00"></path>
                                <path d="M22.4662,44.1326 C10.4808,44.1326 0.7648,34.4164 0.7648,22.431 L44.168,22.431 C44.168,34.4164 34.4518,44.1326 22.4662,44.1326 Z" id="Path" fill="#2071B5"></path>
                            </g>
                        </g>
                    </g>
                </g>
            </g>
        </g>
    </g>
</svg>