<?xml version="1.0" encoding="UTF-8"?>
<svg width="270px" height="400px" viewBox="0 0 270 400" version="1.1" xmlns="http://www.w3.org/2000/svg" xmlns:xlink="http://www.w3.org/1999/xlink">
    <title>InCharge_logo_stacked_grey_RGB</title>
    <g id="Guideline-&amp;-UI-Kit" stroke="none" stroke-width="1" fill="none" fill-rule="evenodd">
        <g id="InCharge-Nordic-•-Guideline-" transform="translate(-585.000000, -1045.000000)" fill-rule="nonzero">
            <g id="InCharge_logo_stacked_grey_RGB" transform="translate(585.000000, 1045.000000)">
                <g id="XMLID_874_" transform="translate(0.000000, 342.706999)" fill="#4E4B48">
                    <polygon id="XMLID_914_" points="0.0932861228 0.900815135 10.7516304 0.900815135 10.7516304 43.5339455 0.0932861228 43.5339455"></polygon>
                    <path d="M15.6232199,12.4725979 L25.2156804,12.4725979 L25.2156804,16.1776601 C27.1950026,14.0967077 30.08801,11.8635567 36.4322508,11.8635567 C45.0096426,11.8635567 49.3743145,15.9746464 49.3743145,24.6534218 L49.3743145,43.5339455 L39.3250115,43.5339455 L39.3250115,27.3434154 C39.3250115,22.1664419 37.3965043,20.0857361 33.3362297,20.0857361 C28.5652837,20.0857361 25.672523,22.9279284 25.672523,28.3079156 L25.672523,43.5339455 L15.6232199,43.5339455 L15.6232199,12.4725979 Z" id="XMLID_912_"></path>
                    <path d="M52.645475,22.2680721 C52.645475,7.24505592 62.8977918,0.139575309 75.4846432,0.139575309 C86.9550424,0.139575309 94.6187491,6.02697353 95.8368315,15.8224478 L85.2293023,15.8224478 C84.4678158,12.1173855 81.1690277,8.97079598 75.3321979,8.97079598 C69.0895873,8.97079598 63.9126138,12.5742281 63.9126138,22.2175037 C63.9126138,31.8099642 69.0895873,35.4642113 75.3321979,35.4642113 C80.4583563,35.4642113 84.1634186,32.9772314 85.1276721,28.9169568 L95.7860164,28.9169568 C94.6693175,37.9509445 87.5132685,44.2951853 75.5352116,44.2951853 C62.9486069,44.2951853 52.645475,37.3419033 52.645475,22.2680721 Z" id="XMLID_910_"></path>
                    <path d="M132.862293,24.6534218 L132.862293,43.5339455 L122.81299,43.5339455 L122.81299,27.3434154 C122.81299,22.1664419 120.884483,20.0857361 116.824209,20.0857361 C112.053263,20.0857361 109.160502,22.9279284 109.160502,28.3079156 L109.160502,43.5339455 L99.1111988,43.5339455 L99.1111988,0.900815135 L108.855858,0.900815135 L108.855858,16.0254615 C110.83518,13.9953242 113.728187,11.8638033 119.919983,11.8638033 C128.497621,11.8635567 132.862293,15.9746464 132.862293,24.6534218 Z" id="XMLID_908_"></path>
                    <path d="M135.565361,34.6519097 C135.565361,30.54082 137.646313,27.3434154 145.462219,25.5162918 L155.66372,23.1306954 C157.237015,22.7754831 157.693858,22.3694556 157.693858,21.5574007 C157.693858,19.9841059 156.171131,18.5630098 152.060288,18.5630098 C148.101644,18.5630098 146.375904,19.8827224 146.27452,22.217257 L137.240286,22.217257 C137.240286,17.0405302 140.945348,11.711358 152.973973,11.711358 C162.617249,11.711358 167.438763,15.1117764 167.438763,22.572716 L167.438763,43.5339455 L158.455344,43.5339455 L158.455344,40.4379244 C156.577405,42.2142329 153.329186,44.2951853 147.543418,44.2951853 C139.575067,44.2951853 135.565361,40.3362942 135.565361,34.6519097 Z M157.846303,31.40369 L157.846303,28.7136964 C157.135631,28.9675252 156.729604,29.0180937 155.460953,29.3227376 L149.218343,30.8960324 C146.122322,31.6575189 145.208636,32.6723408 145.208636,34.1442521 C145.208636,36.0727592 146.832746,37.4432869 150.080966,37.4432869 C154.699467,37.4432869 157.846303,34.7027248 157.846303,31.40369 Z" id="XMLID_883_"></path>
                    <path d="M172.115479,12.4725979 L181.860139,12.4725979 L181.860139,16.9389 C183.687262,14.2489063 186.072612,11.8635567 192.112209,11.8635567 L194.243976,11.8635567 L194.243976,20.8975444 L190.792743,20.8975444 C184.499317,20.8975444 182.164536,22.4202707 182.164536,29.3227376 L182.164536,43.5336988 L172.115233,43.5336988 L172.115233,12.4725979 L172.115479,12.4725979 Z" id="XMLID_881_"></path>
                    <path d="M196.192464,45.1072403 L206.393966,45.1072403 C206.647795,46.7821652 208.373288,49.0658847 213.347248,49.0658847 C218.219577,49.0658847 220.554359,46.8327336 220.554359,41.8587739 L220.554359,38.9660132 C217.965995,41.2499794 214.920789,42.4680617 210.555871,42.4680617 C201.318869,42.4680617 194.974628,37.0375061 194.974628,27.1912168 C194.974628,17.0913453 201.623266,11.711358 210.555871,11.711358 C214.819159,11.711358 217.762981,12.9294404 220.605174,15.2134066 L220.605174,12.4725979 L230.603662,12.4725979 L230.603662,42.3156164 C230.603662,51.2482206 224.919277,56.3235639 213.093666,56.3235639 C200.709581,56.3235639 196.497108,50.7916247 196.192464,45.1072403 Z M220.604927,27.2417852 C220.604927,22.4202707 217.559721,19.2734345 212.738207,19.2734345 C208.221089,19.2734345 205.531096,22.0650584 205.531096,27.2417852 C205.531096,32.4187587 208.221089,35.2101358 212.738207,35.2101358 C217.559721,35.2101358 220.604927,32.0635463 220.604927,27.2417852 Z" id="XMLID_878_"></path>
                    <path d="M269.298622,30.54082 L243.668076,30.54082 C244.429316,35.3623345 247.829734,37.2910882 252.346852,37.2910882 C256.762339,37.2910882 258.386448,35.4131496 259.09712,34.0936836 L268.537382,34.0936836 C267.116286,39.9302668 261.68573,44.2951853 251.940824,44.2951853 C240.470672,44.2951853 233.872602,38.2047734 233.872602,28.3079156 C233.872602,18.1064139 240.876699,11.711358 252.194653,11.711358 C263.056011,11.711358 269.298622,17.5987563 269.298622,28.2062854 L269.298622,30.54082 Z M259.350949,24.755052 C259.19875,21.6590309 257.016414,18.7154551 251.941071,18.7154551 C247.728598,18.7154551 244.73396,20.6947773 243.769706,24.755052 L259.350949,24.755052 Z" id="XMLID_875_"></path>
                </g>
                <g id="Group" transform="translate(22.029172, 0.000000)">
                    <path d="M160.881063,0.136947642 L52.4088277,93.342698 L91.4841609,102.60338 L71.4578306,187.103221 L177.818772,97.1743047 L135.477459,87.1393088 C135.477459,87.1393088 161.160792,-1.04265341 160.881063,0.136947642 Z" id="XMLID_25_" fill="#46EE76"></path>
                    <path d="M0.0441119871,188.141724 C0.0441119871,250.196583 50.2373455,300.76427 112.666658,300.76427 C175.095971,300.76427 225.289204,250.196583 225.289204,188.141724 C225.289204,156.926944 212.678425,128.709022 192.201666,108.232016 L158.864493,135.575968 C173.972365,148.935899 182.587745,168.039171 182.587745,188.141477 C182.587745,227.09742 151.12333,258.062317 112.666905,258.062317 C74.2104798,258.062317 42.7458181,227.097666 42.7458181,188.141724 C42.7458181,168.039418 51.3609512,148.936146 66.4690703,135.576214 L33.1318968,108.232016 C12.6548909,128.709022 0.0441119871,156.926944 0.0441119871,188.141724" id="Path" fill="#2071B5"></path>
                </g>
            </g>
        </g>
    </g>
</svg>