<?xml version="1.0" standalone="no"?>
<!DOCTYPE svg PUBLIC "-//W3C//DTD SVG 1.1//EN" "http://www.w3.org/Graphics/SVG/1.1/DTD/svg11.dtd" >
<svg xmlns="http://www.w3.org/2000/svg">
<metadata>Generated by IcoMoon</metadata>
<defs>
<font id="vf-icons" horiz-adv-x="1024">
<font-face units-per-em="1024" ascent="960" descent="-64" />
<missing-glyph horiz-adv-x="1024" />
<glyph unicode="&#x20;" horiz-adv-x="512" d="" />
<glyph unicode="&#xe900;" glyph-name="Available" d="M1024 448c0-282.77-229.23-512-512-512s-512 229.23-512 512c0 282.77 229.23 512 512 512s512-229.23 512-512z" />
<glyph unicode="&#xe901;" glyph-name="Charging" d="M716.8 524.8h-179.2l25.6 230.4-256-384h179.2l-25.6-230.4z" />
<glyph unicode="&#xe902;" glyph-name="Error" d="M511.99 357.49l313.995-313.981c-184.186-143.345-443.781-143.346-627.967-0.002l313.972 313.983zM916.493 761.982c143.343-184.185 143.343-443.779 0-627.964l-313.994 313.982 313.994 313.982zM107.509 761.985l313.971-313.985-313.971-313.985c-143.346 184.187-143.346 443.784 0 627.971zM198.018 852.493c184.186 143.343 443.782 143.343 627.967-0.002l-313.995-313.981-313.972 313.983z" />
<glyph unicode="&#xe903;" glyph-name="Unavailable" d="M916.53 761.934c156.28-200.858 142.116-491.365-42.492-675.973s-475.115-198.771-675.973-42.492l718.465 718.465zM149.961 810.039c184.623 184.623 475.164 198.774 676.024 42.452l-718.476-718.476c-156.322 200.86-142.171 491.401 42.452 676.024z" />
<glyph unicode="&#xe904;" glyph-name="Unknown" d="M512 960c282.77 0 512-229.23 512-512s-229.23-512-512-512c-282.77 0-512 229.23-512 512s229.23 512 512 512zM512 832c-212.077 0-384-171.923-384-384s171.923-384 384-384c212.077 0 384 171.923 384 384s-171.923 384-384 384z" />
<glyph unicode="&#xe905;" glyph-name="Ccs" horiz-adv-x="975" d="M835.863 959.985c86.215-87.953 139.375-208.428 139.375-341.319 0-127.356-48.824-243.309-128.776-330.162 48.5-35.46 80.014-92.811 80.014-157.524 0-107.722-87.326-195.048-195.048-195.048h-487.619c-107.722 0-195.048 87.326-195.048 195.048 0 64.712 31.515 122.064 80.034 157.545-79.971 86.831-128.795 202.784-128.795 330.14 0 132.891 53.16 253.366 139.375 341.319h696.488zM792.040 862.476h-608.89l-4.010-4.976c-49.326-63.551-78.099-141.043-81.313-223.347l-0.302-15.486c0-99.303 37.123-192.537 103.007-264.072 37.643-40.872 33.327-104.332-8.011-139.902l-6.157-4.886c-25.073-18.336-40.077-47.24-40.077-78.825 0-51.413 39.784-93.533 90.245-97.256l7.278-0.267h487.619c53.861 0 97.524 43.663 97.524 97.524 0 28.711-12.398 55.207-33.471 73.546l-6.579 5.251c-46.987 34.354-53.614 101.952-14.192 144.777 65.883 71.57 103.004 164.812 103.004 264.111 0 88.050-29.207 171.31-81.615 238.834l-4.059 4.976zM316.952 228.505c40.396 0 73.143-32.747 73.143-73.143s-32.747-73.143-73.143-73.143c-40.396 0-73.143 32.747-73.143 73.143s32.747 73.143 73.143 73.143zM658.286 228.505c40.396 0 73.143-32.747 73.143-73.143s-32.747-73.143-73.143-73.143c-40.396 0-73.143 32.747-73.143 73.143s32.747 73.143 73.143 73.143zM365.714 472.381c40.396 0 73.143-32.747 73.143-73.143s-32.747-73.143-73.143-73.143c-40.396 0-73.143 32.747-73.143 73.143s32.747 73.143 73.143 73.143zM609.524 472.381c40.396 0 73.143-32.747 73.143-73.143s-32.747-73.143-73.143-73.143c-40.396 0-73.143 32.747-73.143 73.143s32.747 73.143 73.143 73.143zM268.19 667.362c40.396 0 73.143-32.747 73.143-73.143s-32.747-73.143-73.143-73.143c-40.396 0-73.143 32.747-73.143 73.143s32.747 73.143 73.143 73.143zM487.619 667.362c40.396 0 73.143-32.747 73.143-73.143s-32.747-73.143-73.143-73.143c-40.396 0-73.143 32.747-73.143 73.143s32.747 73.143 73.143 73.143zM707.048 667.362c40.396 0 73.143-32.747 73.143-73.143s-32.747-73.143-73.143-73.143c-40.396 0-73.143 32.747-73.143 73.143s32.747 73.143 73.143 73.143zM365.714 813.714c26.93 0 48.762-21.831 48.762-48.762s-21.831-48.762-48.762-48.762c-26.93 0-48.762 21.831-48.762 48.762s21.831 48.762 48.762 48.762zM609.524 813.714c26.93 0 48.762-21.831 48.762-48.762s-21.831-48.762-48.762-48.762c-26.93 0-48.762 21.831-48.762 48.762s21.831 48.762 48.762 48.762z" />
<glyph unicode="&#xe906;" glyph-name="Chademo" d="M512 960c282.77 0 512-229.23 512-512s-229.23-512-512-512c-282.77 0-512 229.23-512 512s229.23 512 512 512zM512 857.6c-226.216 0-409.6-183.384-409.6-409.6s183.384-409.6 409.6-409.6c226.216 0 409.6 183.384 409.6 409.6s-183.384 409.6-409.6 409.6zM512 294.4c56.554 0 102.4-45.846 102.4-102.4s-45.846-102.4-102.4-102.4c-56.554 0-102.4 45.846-102.4 102.4s45.846 102.4 102.4 102.4zM307.2 601.6c84.831 0 153.6-68.769 153.6-153.6s-68.769-153.6-153.6-153.6c-84.831 0-153.6 68.769-153.6 153.6s68.769 153.6 153.6 153.6zM716.8 601.6c84.831 0 153.6-68.769 153.6-153.6s-68.769-153.6-153.6-153.6c-84.831 0-153.6 68.769-153.6 153.6s68.769 153.6 153.6 153.6zM307.2 499.2c-28.277 0-51.2-22.923-51.2-51.2s22.923-51.2 51.2-51.2c28.277 0 51.2 22.923 51.2 51.2s-22.923 51.2-51.2 51.2zM716.8 499.2c-28.277 0-51.2-22.923-51.2-51.2s22.923-51.2 51.2-51.2c28.277 0 51.2 22.923 51.2 51.2s-22.923 51.2-51.2 51.2zM512 806.4c56.554 0 102.4-45.846 102.4-102.4s-45.846-102.4-102.4-102.4c-56.554 0-102.4 45.846-102.4 102.4s45.846 102.4 102.4 102.4z" />
<glyph unicode="&#xe907;" glyph-name="Schuko" d="M563.256 957.471c180.703-17.966 333.761-129.881 409.629-286.204l-0.085-172.067 48.671 0.005c1.672-16.842 2.529-33.923 2.529-51.205s-0.856-34.363-2.529-51.205l-48.671 0.005 0.078-172.082c-75.871-156.315-228.924-268.223-409.622-286.189l-0.056 99.871h-102.4l-0.005-99.871c-180.68 17.941-333.729 129.81-409.623 286.087l0.029 172.184-48.671-0.005c-1.672 16.842-2.529 33.923-2.529 51.205s0.856 34.363 2.529 51.205l48.671-0.005-0.036 172.169c75.892 156.285 228.945 268.161 409.631 286.102l0.005-99.871h102.4l0.056 99.871zM665.549 827.853l-0.007-72.653h-307.137l-0.005 72.653-13.149-5.627c-78.518-35.036-144.778-94.337-188.317-169.833l-3.386-6.044v-396.646l3.392-6.106c43.539-75.492 109.799-134.79 188.314-169.824l13.145-5.574 0.005 72.602h307.137l0.007-72.602 13.247 5.597c78.52 35.049 144.778 94.366 188.306 169.876l3.349 6.082v396.493l-3.342 6.071c-43.243 75.021-108.921 134.058-186.771 169.195l-14.789 6.341zM332.8 524.8c42.415 0 76.8-34.385 76.8-76.8s-34.385-76.8-76.8-76.8c-42.415 0-76.8 34.385-76.8 76.8s34.385 76.8 76.8 76.8zM691.2 524.8c42.415 0 76.8-34.385 76.8-76.8s-34.385-76.8-76.8-76.8c-42.415 0-76.8 34.385-76.8 76.8s34.385 76.8 76.8 76.8z" />
<glyph unicode="&#xe908;" glyph-name="Type2" horiz-adv-x="1205" d="M1032.537 959.982c106.501-108.648 172.169-257.47 172.169-421.629 0-332.67-269.683-602.353-602.353-602.353s-602.353 269.683-602.353 602.353c0 164.159 65.668 312.981 172.169 421.629h860.368zM978.402 839.529h-752.158l-4.954-6.147c-60.932-78.505-96.475-174.229-100.446-275.9l-0.373-19.13c0-266.136 215.746-481.882 481.882-481.882s481.882 215.746 481.882 481.882c0 108.768-36.079 211.619-100.819 295.030l-5.014 6.147zM451.765 357.647c49.901 0 90.353-40.452 90.353-90.353s-40.452-90.353-90.353-90.353c-49.901 0-90.353 40.452-90.353 90.353s40.452 90.353 90.353 90.353zM752.941 357.647c49.901 0 90.353-40.452 90.353-90.353s-40.452-90.353-90.353-90.353c-49.901 0-90.353 40.452-90.353 90.353s40.452 90.353 90.353 90.353zM331.294 598.506c49.901 0 90.353-40.452 90.353-90.353s-40.452-90.353-90.353-90.353c-49.901 0-90.353 40.452-90.353 90.353s40.452 90.353 90.353 90.353zM602.353 598.506c49.901 0 90.353-40.452 90.353-90.353s-40.452-90.353-90.353-90.353c-49.901 0-90.353 40.452-90.353 90.353s40.452 90.353 90.353 90.353zM873.412 598.506c49.901 0 90.353-40.452 90.353-90.353s-40.452-90.353-90.353-90.353c-49.901 0-90.353 40.452-90.353 90.353s40.452 90.353 90.353 90.353zM451.765 779.294c33.267 0 60.235-26.968 60.235-60.235s-26.968-60.235-60.235-60.235c-33.267 0-60.235 26.968-60.235 60.235s26.968 60.235 60.235 60.235zM752.941 779.294c33.267 0 60.235-26.968 60.235-60.235s-26.968-60.235-60.235-60.235c-33.267 0-60.235 26.968-60.235 60.235s26.968 60.235 60.235 60.235z" />
<glyph unicode="&#xe909;" glyph-name="Custom-add-card" d="M884.364 820.364c77.119 0 139.636-62.517 139.636-139.636v0-465.455c0-77.119-62.517-139.636-139.636-139.636v0h-744.727c-77.119 0-139.636 62.517-139.636 139.636v0 465.455c0 77.119 62.517 139.636 139.636 139.636v0zM884.364 727.273h-744.727c-25.706 0-46.545-20.839-46.545-46.545v0-465.455c0-25.706 20.839-46.545 46.545-46.545v0h744.727c25.706 0 46.545 20.839 46.545 46.545v0 465.455c0 25.706-20.839 46.545-46.545 46.545v0zM558.545 634.182v-139.636h139.636v-93.091h-139.636v-139.636h-93.091v139.636h-139.636v93.091h139.636v139.636h93.091z" />
<glyph unicode="&#xe90a;" glyph-name="Custom-charge-card" d="M884.364 820.364c77.119 0 139.636-62.517 139.636-139.636v0-465.455c0-77.119-62.517-139.636-139.636-139.636v0h-744.727c-77.119 0-139.636 62.517-139.636 139.636v0 465.455c0 77.119 62.517 139.636 139.636 139.636v0zM884.364 727.273h-744.727c-25.706 0-46.545-20.839-46.545-46.545v0-465.455c0-25.706 20.839-46.545 46.545-46.545v0h744.727c25.706 0 46.545 20.839 46.545 46.545v0 465.455c0 25.706-20.839 46.545-46.545 46.545v0zM605.091 680.727l-46.545-186.182h116.364l-256-279.273 46.545 186.182h-116.364l256 279.273z" />
<glyph unicode="&#xe90b;" glyph-name="Custom-charging-fast" d="M931.039 960l-97.571-316.952h144.4l-429.803-680.522v412.332h-157.97l196.023 585.143h344.921zM438.857 228.571v-97.524h-438.857l32.67 97.524h406.187zM798.994 862.476h-142.726l-130.682-390.095h120.003v-172.763l155.307 245.906h-99.424l97.522 316.952zM341.333 521.143l-32.67-97.524h-211.139l32.67 97.524h211.139zM438.857 813.714l-32.67-97.524h-211.139l32.67 97.524h211.139z" />
<glyph unicode="&#xe90c;" glyph-name="Custom-charging-slow" d="M735.992 960h-344.921l-196.023-585.143h157.97v-412.332l429.803 680.522h-144.4l97.571 316.952zM461.22 862.476h142.726l-97.522-316.952h99.424l-155.307-245.906v172.763h-120.003l130.682 390.095z" />
<glyph unicode="&#xe90d;" glyph-name="Custom-eye-closed" d="M161.745 657.455l13.276-17.597c93.114-119.955 196.162-182.564 310.414-190.897l13.233-0.721 13.333-0.24c124.904 0 236.702 62.675 336.979 191.857l10.7 14.096 2.529 3.502h113.4l-17.878-26.221c-10.055-14.747-20.272-28.915-30.651-42.502l72.341-60.69-59.838-71.312-73.032 61.258c-29.182-30.233-59.487-56.323-90.894-78.221l47.047-84.858-81.419-45.131-46.525 83.971c-43.558-19.483-88.979-31.687-136.215-36.497l0.002-95.434h-93.091l0.002 95.434c-47.236 4.81-92.657 17.014-136.215 36.497l-46.525-83.971-81.419 45.131 47.047 84.858c-31.566 22.007-62.018 48.251-91.335 78.678l-73.547-61.715-59.838 71.312 72.944 61.152c-6.481 8.496-12.9 17.219-19.255 26.168l-11.043 15.871-17.878 26.221h113.353z" />
<glyph unicode="&#xe90e;" glyph-name="Custom-filters" d="M716.8 294.4v-307.2h-102.4v102.4h-614.4v102.4h614.4v102.4h102.4zM1024 192v-102.4h-204.8v102.4h204.8zM307.2 601.6v-307.2h-102.4v102.4h-204.8v102.4h204.8v102.4h102.4zM1024 499.2v-102.4h-614.4v102.4h614.4zM614.4 908.8v-307.2h-102.4v102.4h-512v102.4h512v102.4h102.4zM1024 806.4v-102.4h-307.2v102.4h307.2z" />
<glyph unicode="&#xe90f;" glyph-name="Custom-location" d="M563.2 960l0.044-104.391c209.162-16.718 339.055-138.484 356.373-356.409h104.383v-102.4l-104.362-0.060c-17.237-217.896-147.198-339.631-356.377-356.348l-0.061-104.392h-102.4l-0.005 104.393c-209 16.73-339.038 138.559-356.403 356.352l-104.392 0.055v102.4l104.358 0.009c17.222 217.946 147.207 339.7 356.432 356.403l0.010 104.387h102.4zM512 755.2c-204.539 0-307.2-100.307-307.2-307.007 0-206.831 102.822-307.393 307.2-307.393 204.539 0 307.2 100.307 307.2 307.007 0 206.992-102.641 307.393-307.2 307.393zM512 550.4c56.554 0 102.4-45.846 102.4-102.4s-45.846-102.4-102.4-102.4c-56.554 0-102.4 45.846-102.4 102.4s45.846 102.4 102.4 102.4z" />
<glyph unicode="&#xe910;" glyph-name="Custom-lost-card" d="M884.364 820.364c77.119 0 139.636-62.517 139.636-139.636v0-465.455c0-77.119-62.517-139.636-139.636-139.636v0h-744.727c-77.119 0-139.636 62.517-139.636 139.636v0 465.455c0 77.119 62.517 139.636 139.636 139.636v0zM884.364 727.273h-744.727c-25.706 0-46.545-20.839-46.545-46.545v0-465.455c0-25.706 20.839-46.545 46.545-46.545v0h744.727c25.706 0 46.545 20.839 46.545 46.545v0 465.455c0 25.706-20.839 46.545-46.545 46.545v0zM500.27 343.097c9.217 0.595 18.434-0.297 27.354-2.973 19.623-6.541 31.814-19.623 34.787-40.436 2.379-16.948-0.297-33.003-12.488-46.085-11.001-11.893-25.273-16.056-40.733-16.65v0h-4.163c-11.298-0.595-22.299 2.081-32.408 7.136-17.839 9.217-27.354 28.543-25.57 50.248 2.379 31.219 24.678 47.275 53.221 48.761zM520.955 657.431c24.639 0 49.278-2.955 73.004-9.456 20.076-5.91 38.936-14.184 54.449-28.959 31.635-30.437 35.285-75.648 9.126-110.813-10.951-14.48-24.639-26.004-38.631-37.529-16.73-13.593-33.46-27.482-49.886-41.666-13.384-10.638-20.38-26.891-18.859-43.734v0-7.092h-98.252v18.321c0 13.002 2.129 26.004 6.084 38.415 6.692 18.617 19.468 32.801 35.285 44.916 16.73 13.002 34.069 25.413 51.103 38.415 6.084 4.728 11.559 9.752 16.426 15.366 11.863 14.48 7.605 30.732-9.734 38.415-9.734 3.842-20.076 5.91-30.723 5.91-11.863 0.887-24.031 0-35.59-2.66-21.901-5.024-32.244-16.253-35.285-37.824 0-0.887 0-1.773-0.304-2.955v0h-100.077c0.913 7.979 1.521 15.957 3.042 23.936 9.126 46.098 38.936 73.875 83.651 88.059 27.681 8.865 56.274 11.229 85.172 10.934z" />
<glyph unicode="&#xe911;" glyph-name="Custom-new-route" d="M512 935.006l487.006-487.006-487.006-487.006-487.006 487.006 487.006 487.006zM512 814.293l-366.293-366.293 366.293-366.293 366.293 366.293-366.293 366.293zM587.444 603.315l129.429-155.315-129.429-155.315-65.555 54.629 48.299 58.028-143.522 0.034v-128.043l-85.333 85.333v128l228.855 0.009-48.299 58.010 65.555 54.629z" />
<glyph unicode="&#xe912;" glyph-name="Custom-remove_card" d="M884.364 820.364c77.119 0 139.636-62.517 139.636-139.636v0-465.455c0-77.119-62.517-139.636-139.636-139.636v0h-744.727c-77.119 0-139.636 62.517-139.636 139.636v0 465.455c0 77.119 62.517 139.636 139.636 139.636v0zM884.364 727.273h-744.727c-25.706 0-46.545-20.839-46.545-46.545v0-465.455c0-25.706 20.839-46.545 46.545-46.545v0h744.727c25.706 0 46.545 20.839 46.545 46.545v0 465.455c0 25.706-20.839 46.545-46.545 46.545v0zM670.255 624.873l55.855-74.473-136.611-102.4 136.611-102.4-55.855-74.473-158.301 118.737-158.208-118.737-55.855 74.473 136.518 102.4-136.518 102.4 55.855 74.473 158.208-118.691 158.301 118.691z" />
<glyph unicode="&#xe913;" glyph-name="Custom-right-small" d="M234.298 830.624l134.716 104.779 379.091-487.403-379.084-487.394-134.716 104.779 297.577 382.615z" />
<glyph unicode="&#xe914;" glyph-name="Custom-service" d="M486.39 601.6c131.835 0 204.81-78.818 204.81-179.2 0-39.883-11.519-76.361-33.673-105.845 27.596-10.754 52.954-24.59 75.662-41.448 69.942-51.924 111.611-148.833 111.611-235.975v0-102.4h-716.8v102.4c0 87.212 41.512 183.931 111.537 235.954 22.738 16.893 48.098 30.742 75.672 41.589-22.11 29.355-33.609 65.823-33.609 105.725 0 100.436 72.942 179.2 204.79 179.2zM502.978 243.649l-4.015-0.205-12.574-0.244c-5.659 0-11.21 0.145-16.651 0.431-69.203-2.359-127.37-19.716-169.134-50.743-45.066-33.481-70.204-101.864-70.204-153.756v0h512c0 51.892-25.319 120.4-70.25 153.756-41.648 30.919-99.903 48.376-169.172 50.762zM486.39 499.2c-89.096 0-102.39-48.117-102.39-76.8v0l0.068-3.539c1.051-27.283 15.002-68.121 87.984-72.816l14.348 0.287c4.771 0 9.515-0.057 14.229-0.171 69.848 4.375 85.698 41.986 87.883 69.032v0l0.288 7.208c0 28.61-13.315 76.8-102.41 76.8zM742.4 960c66.88 0 123.777-42.744 144.861-102.405l-144.861 0.005c-28.277 0-51.2-22.923-51.2-51.2 0-26.257 19.765-47.898 45.229-50.856l5.971-0.344 144.844-0.046c-21.099-59.634-77.982-102.354-144.844-102.354s-123.745 42.72-144.844 102.354l-469.556 0.046v102.4l469.539-0.005c21.085 59.66 77.981 102.405 144.861 102.405z" />
<glyph unicode="&#xe915;" glyph-name="Custom-undo" d="M665.6 934.4v-332.8h102.4l0.018 166.94c98.72-62.356 153.582-170.051 153.582-320.359 0-251.716-153.87-384.181-409.6-384.181-255.861 0-409.6 132.202-409.6 383.819 0 251.836 153.656 384.181 409.6 384.181v102.4c-282.919 0-512-151.718-512-486.581s229.442-486.219 512-486.219c282.558 0 512 151.718 512 486.581 0 178.41-65.13 304.73-168.722 383.822l168.722-0.002v102.4h-358.4z" />
<glyph unicode="&#xe916;" glyph-name="Placeholder" d="M512 977.067c256 0 465.067-209.067 465.067-465.067s-209.067-465.067-465.067-465.067-465.067 209.067-465.067 465.067 209.067 465.067 465.067 465.067zM512 1019.733c-281.6 0-507.733-226.133-507.733-507.733s226.133-507.733 507.733-507.733 507.733 226.133 507.733 507.733-226.133 507.733-507.733 507.733zM674.133 704c-42.667 38.4-102.4 59.733-162.133 59.733-64 0-119.467-21.333-162.133-59.733l-302.933 302.933-29.867-29.867 302.933-302.933c-38.4-42.667-59.733-102.4-59.733-162.133 0-64 21.333-119.467 59.733-162.133l-302.933-302.933 29.867-29.867 302.933 302.933c42.667-38.4 102.4-59.733 162.133-59.733 64 0 119.467 21.333 162.133 59.733l302.933-302.933 29.867 29.867-302.933 302.933c38.4 42.667 59.733 102.4 59.733 162.133 0 64-21.333 119.467-59.733 162.133l302.933 302.933-29.867 29.867-302.933-302.933zM644.267 674.133l-132.267-132.267-132.267 132.267c38.4 29.867 81.067 46.933 132.267 46.933s98.133-17.067 132.267-46.933zM674.133 644.267c29.867-38.4 46.933-81.067 46.933-132.267s-17.067-98.133-46.933-132.267l-132.267 132.267 132.267 132.267zM349.867 379.733c-29.867 34.133-46.933 81.067-46.933 132.267s17.067 98.133 46.933 132.267l132.267-132.267-132.267-132.267zM379.733 349.867l132.267 132.267 132.267-132.267c-38.4-29.867-81.067-46.933-132.267-46.933s-98.133 17.067-132.267 46.933z" />
<glyph unicode="&#xe917;" glyph-name="Dropbox" d="M255.639 857.6l-255.639-162.975 255.639-162.614 255.279 162.614-255.279 162.975zM766.558 857.6l-255.639-162.975 255.639-162.614 255.639 162.614-255.639 162.975zM0 369.037l255.639-162.614 255.279 162.614-255.279 162.975-255.639-162.975zM766.558 532.011l-255.639-162.975 255.639-162.614 255.639 162.614-255.639 162.975zM255.639 151.977l255.279-162.614 255.639 162.614-255.639 162.975-255.279-162.975z" />
<glyph unicode="&#xe918;" glyph-name="Facebook" d="M1022.197 449.082c0-254.918-186.772-466.569-431.234-504.789v356.958h118.986l22.715 147.831h-141.701v95.91c0 9.014 1.082 17.668 3.245 25.961 0 0.361 0.361 1.082 0.361 1.442 1.442 5.408 3.606 10.456 6.13 15.504 11.177 21.273 33.893 36.777 73.555 36.777h64.541v125.837c0 0-58.411 10.096-114.299 10.096-58.411 0-106.727-17.668-140.259-51.561-33.532-33.532-52.642-83.29-52.642-147.47v-112.496h-129.803v-147.831h129.803v-356.958c-244.823 38.22-431.594 249.51-431.594 504.789 0 281.961 228.958 510.918 510.918 510.918s511.279-228.958 511.279-510.918z" />
<glyph unicode="&#xe919;" glyph-name="Flickr" d="M1022.197 425.645c0-125.476-102.4-227.155-228.958-227.155s-228.958 101.679-228.958 227.155c0 125.476 102.4 227.155 228.958 227.155 126.197 0 228.958-101.679 228.958-227.155v0zM228.958 652.8c-126.558 0-228.958-101.679-228.958-227.155s102.4-227.155 228.958-227.155c126.558 0 228.958 101.679 228.958 227.155s-102.4 227.155-228.958 227.155v0z" />
<glyph unicode="&#xe91a;" glyph-name="Instagram" d="M739.876 960c155.763 0 282.321-126.558 281.961-281.961v0-457.915c0-155.403-126.559-281.961-281.961-281.961v0h-457.915c-155.403 0-281.961 126.558-281.961 281.961v0 457.915c0 155.403 126.558 281.961 281.961 281.961v0zM739.876 869.499h-457.915c-105.285 0-191.459-86.175-191.459-191.459v0-457.915c0-105.645 85.814-191.459 191.459-191.459v0h457.915c105.645 0 191.459 85.814 191.459 191.459v0 457.915c0 105.645-85.814 191.459-191.459 191.459v0zM510.918 712.293c145.307 0 263.572-118.265 263.212-263.211 0-144.946-117.905-263.211-263.212-263.211-144.946 0-263.211 117.904-263.211 263.211 0 144.946 117.904 263.211 263.211 263.211zM510.918 621.792c-95.189 0-172.71-77.521-172.71-172.71s77.521-172.71 172.71-172.71c95.189 0 172.71 77.521 172.71 172.71s-77.521 172.71-172.71 172.71zM785.307 789.093c17.668 0 34.975-6.851 46.873-19.47 12.259-12.62 19.47-29.566 19.47-47.234 0-17.307-7.211-34.614-19.47-46.873s-29.206-19.47-46.873-19.47c-17.307 0-34.614 7.211-46.873 19.47s-19.47 29.566-19.47 46.873c0 17.668 7.211 34.975 19.47 47.234s29.566 19.47 46.873 19.47z" />
<glyph unicode="&#xe91b;" glyph-name="LinkedIn" d="M965.949 903.752c-37.499 37.499-82.569 56.248-135.572 56.248h-638.918c-52.642 0-97.713-18.749-135.211-56.248s-56.248-82.569-56.248-135.211v-638.918c0-52.642 18.749-98.073 56.248-135.572s82.569-56.248 135.572-56.248h638.918c52.642 0 98.073 18.749 135.211 56.248 37.499 37.499 56.248 82.569 56.248 135.572v638.918c0 52.642-18.749 97.713-56.248 135.211v0zM311.527 104.383h-153.961v461.521h153.6v-461.521h0.361zM297.465 651.718c-15.865-15.144-37.138-23.076-63.099-23.076h-0.721c-25.239 0-45.792 7.572-61.656 23.076s-23.437 34.254-23.437 56.969c0 23.076 7.932 42.186 24.158 57.33s37.138 22.715 62.738 22.715c25.6 0 46.513-7.572 62.017-22.715s23.437-34.254 23.797-57.33c0-22.715-7.932-41.825-23.797-56.969v0zM864.27 104.383h-153.6v246.986c0 69.589-25.6 104.563-77.161 104.563-19.47 0-36.056-5.408-49.397-16.225s-23.437-24.158-29.927-39.662c-3.245-7.932-4.687-20.552-4.687-37.138v-258.163h-153.6c1.442 278.715 1.442 432.676 0 461.882h153.6v-65.262c32.451 50.479 78.242 75.718 137.735 75.718 53.363 0 95.91-17.668 128.361-52.642s48.676-86.896 48.676-155.042v-265.014z" />
<glyph unicode="&#xe91c;" glyph-name="Pinterest" d="M41.104 649.915c-26.321-61.656-41.104-129.803-41.104-200.834 0 0 0 0 0 0 0-6.13 0-11.899 0.361-17.668 0-1.442 0-2.885 0-4.327 0.361-5.769 0.721-11.899 1.082-17.668 0-0.361 0-1.082 0-1.442 0.361-5.408 1.082-10.817 1.442-16.225 0-1.442 0.361-2.524 0.361-3.966 0.721-5.769 1.442-11.538 2.524-17.307 0-0.721 0.361-1.442 0.361-2.163 0.721-5.408 1.803-10.456 2.885-15.865 0.361-1.082 0.361-2.163 0.721-3.245 1.082-5.769 2.524-11.538 3.606-17.307 0-0.721 0.361-1.442 0.361-2.163 1.442-5.408 2.524-10.817 3.966-15.865 0.361-0.721 0.361-1.442 0.721-2.163 1.442-5.769 3.245-11.538 5.048-17.307 0-0.361 0.361-1.082 0.361-1.442 1.803-5.769 3.606-11.177 5.769-16.946 0 0 0-0.361 0-0.361 2.163-5.769 4.327-11.538 6.49-17.307 0-0.361 0.361-0.721 0.361-0.721 52.642-129.803 156.845-232.924 287.369-284.124-4.327 40.383-8.654 102.4 1.803 146.749 9.375 40.023 59.854 254.197 59.854 254.197s-15.144 30.648-15.144 75.718c0 71.031 41.104 124.034 92.304 124.034 43.628 0 64.541-32.811 64.541-72.113 0-43.989-27.763-109.251-42.186-170.186-11.899-50.839 25.6-92.304 75.718-92.304 90.862 0 160.811 95.91 160.811 234.006 0 122.231-87.977 208.045-213.454 208.045-145.307 0-230.761-108.89-230.761-221.746 0-43.989 16.946-90.862 37.859-116.462 4.327-5.048 4.687-9.375 3.606-14.783-3.966-16.225-12.62-50.839-14.062-58.051-2.163-9.375-7.572-11.177-16.946-6.851-63.82 29.566-103.842 122.952-103.842 197.949 0 161.172 117.183 309.363 337.487 309.363 177.397 0 315.132-126.197 315.132-295.301 0-175.955-111.054-318.017-265.014-318.017-51.921 0-100.597 27.042-117.183 58.772 0 0-25.6-97.713-31.73-121.51-11.538-44.349-42.546-99.876-63.459-134.13 5.408-1.803 11.177-3.245 16.946-4.687 0.721-0.361 1.803-0.361 2.524-0.721 11.177-2.885 22.715-5.769 34.254-7.932 1.082-0.361 2.163-0.361 3.245-0.721 11.538-2.163 22.715-3.966 34.614-5.408 1.082 0 2.524-0.361 3.606-0.361 11.538-1.442 23.076-2.163 34.614-2.524 1.442 0 2.885 0 4.327 0 5.769-0.361 11.538-0.361 17.668-0.361 70.67 0 137.735 14.423 199.031 40.023 5.769 2.524 11.538 5.048 16.946 7.572 1.803 0.721 3.966 1.803 5.769 2.524 171.268 82.569 289.172 257.803 289.172 460.439 0.36 282.321-228.598 511.279-510.919 511.279v0c-60.214 0-118.265-10.456-171.989-29.927-134.13-47.594-242.299-149.994-297.825-280.158z" />
<glyph unicode="&#xe91d;" glyph-name="Skype" d="M269.341 960c12.98 0 25.961 0 39.301 0 2.163-0.721 3.966-1.442 6.13-1.803 39.301-3.966 76.439-15.144 110.332-34.614 9.375-5.408 17.668-6.13 27.763-5.048 77.161 10.456 152.518 0.721 225.352-26.321 49.397-18.389 94.468-44.349 134.851-78.242 42.907-35.696 78.963-77.521 107.087-126.197 35.696-61.296 56.608-127.279 63.099-197.949 3.245-36.417 1.803-72.113-2.885-108.169-0.361-4.327 0.361-9.375 2.524-12.98 36.417-64.18 47.955-132.327 32.451-204.8-14.783-68.868-50.479-124.755-106.727-167.662-42.907-32.811-91.223-51.561-144.225-57.33-58.411-6.13-113.938 5.048-165.138 33.532-10.817 5.769-20.552 7.211-32.451 5.769-66.704-8.654-132.327-2.163-196.507 17.668-59.854 19.11-113.577 48.315-161.172 87.617-42.907 35.696-78.963 77.521-107.087 126.197-35.335 60.575-55.887 125.837-62.738 195.425-3.606 36.777-1.803 73.194 2.524 109.972 0.721 4.687-0.721 10.456-2.885 14.423-14.062 24.879-24.879 50.839-31.008 78.603-3.245 14.423-5.408 28.845-7.932 43.268 0 12.98 0 25.961 0 39.301 0.361 1.803 1.082 3.606 1.442 5.408 5.048 55.887 23.797 106.727 58.411 151.437 39.662 51.561 90.862 85.814 153.6 102.4 18.389 4.687 37.138 6.851 55.887 10.096zM509.837 755.921c-10.096 0-20.192 0.361-30.287 0-47.955-2.885-94.107-12.62-136.293-37.499-36.777-21.994-62.738-53.003-71.752-95.549-3.606-16.946-3.245-34.975-2.524-52.642 1.082-23.437 9.014-44.71 22.715-63.459 22.355-30.648 53.363-49.758 87.977-63.82 43.989-17.307 89.78-27.403 135.572-37.859 28.124-6.49 56.969-12.62 82.569-27.403 32.090-19.11 44.349-52.282 30.287-85.814-7.932-18.749-23.076-31.008-40.383-39.662-38.58-19.47-79.685-21.994-121.51-13.701-33.172 6.49-58.411 24.518-74.276 54.445-6.13 11.538-11.899 23.076-17.668 34.975-10.096 20.913-22.715 39.301-47.955 43.989-37.499 7.211-75.358-20.552-71.031-61.296 1.803-19.11 7.211-36.777 16.225-53.363 28.485-50.839 71.392-84.011 126.918-100.597 44.71-13.701 90.862-16.586 137.375-14.062 43.268 2.163 85.093 10.456 124.394 29.566 43.628 20.913 76.439 52.282 94.468 97.713 10.456 26.682 12.98 54.445 10.096 82.569-3.606 35.335-17.307 65.983-43.628 90.501-26.682 24.518-58.772 40.383-93.386 50.118-47.955 13.701-96.631 25.6-144.946 38.22-27.763 7.211-55.166 15.144-76.8 35.335-14.423 13.341-18.749 35.696-10.456 53.003 9.014 19.11 25.6 29.927 44.349 37.499 27.403 11.177 56.248 11.177 85.093 9.014 18.749-1.442 37.138-5.769 52.642-17.668 14.062-10.817 24.518-24.158 33.893-39.301 7.932-12.62 16.225-25.239 24.879-37.138 13.701-18.749 33.172-21.634 54.085-18.028 20.913 3.966 35.696 16.946 43.628 36.777 8.293 20.552 3.245 40.744-5.048 60.214-14.783 33.172-40.744 55.887-71.752 73.194-45.431 25.239-95.549 32.090-147.47 31.73z" />
<glyph unicode="&#xe91e;" glyph-name="Slidehare" d="M871.451 960c1.442-0.721 2.885-1.442 4.327-1.803 31.73-7.932 54.085-27.042 67.065-56.608 6.851-15.144 8.293-31.369 8.293-47.955v-388.327c4.687 2.885 7.572 5.408 10.817 6.851 5.769 2.885 11.538 6.13 18.028 7.211 11.538 2.163 20.192-4.687 21.634-16.586 1.442-11.538-3.245-20.913-10.456-29.206-21.994-25.239-47.234-47.234-74.637-66.704-36.417-25.961-75.358-47.594-116.462-64.901-16.946-7.211-16.946-7.572-12.62-25.239 0.721-2.885 1.442-5.769 2.163-8.654 12.259-50.479 17.668-101.318 10.096-152.879-6.13-40.023-20.192-77.161-45.431-109.251-30.648-38.58-70.31-61.656-119.346-67.425-28.124-3.245-55.166 2.524-78.603 18.749-26.682 18.389-40.023 45.431-40.383 77.882-0.721 62.738-0.721 125.115-1.082 187.854v10.096c-9.375 2.524-17.668 4.687-27.763 7.211v-10.817l-0.721-194.344c-0.361-23.076-7.572-43.989-22.355-61.656-20.192-23.797-47.594-34.614-77.882-35.335-60.575-1.082-107.808 26.682-143.144 74.276-29.206 39.301-41.104 84.732-43.628 132.687-2.524 47.594 4.687 94.468 17.668 140.259 1.803 6.49 0.721 9.375-5.769 12.259-39.662 16.586-77.521 36.417-113.217 60.575-32.090 21.634-62.017 46.152-87.256 75.718-5.048 5.769-8.293 13.701-10.096 20.913-3.966 16.946 9.735 28.845 26.321 23.437 5.048-1.803 9.735-5.048 14.423-7.572 2.885-1.442 5.769-3.245 10.096-5.769v388.327c0 7.211 0 14.062 1.082 21.273 4.687 29.927 18.028 54.806 44.349 70.67 10.817 6.851 23.437 10.096 34.975 14.783h739.515zM807.631 908.079h-605.746c-12.62 0-25.239 0-37.499-1.442-31.008-3.245-47.594-13.701-55.527-43.989-2.163-9.014-3.606-18.389-3.606-27.403-0.361-132.327-0.361-264.293-0.721-396.62 0-4.327 1.442-6.851 5.408-8.654 44.349-22.715 90.862-38.941 139.899-47.234 50.118-8.654 100.597-10.096 151.437-6.851 11.177 0.721 22.355 0.721 33.532 0.361 16.225-0.721 30.287-7.211 42.546-18.389 11.899-11.538 24.158-20.913 37.138-32.090 1.082 5.048 1.442 7.572 1.803 10.096 3.966 21.273 16.946 34.975 38.22 37.859 16.225 2.163 32.451 2.163 48.676 1.442 60.935-3.245 121.149-0.361 180.642 14.423 37.499 9.375 73.555 23.437 108.169 40.744 8.654 4.327 10.456 9.375 10.456 18.028-0.361 120.428 0 241.217-0.361 361.645 0 14.783-0.721 29.566-3.606 43.628-5.769 28.124-16.946 45.070-50.118 51.561-13.341 2.524-27.042 2.885-40.744 2.885zM693.333 646.31c58.051-18.749 93.025-78.603 76.8-137.375-11.899-42.907-42.186-69.228-84.732-81.127-11.177-2.885-22.715-3.966-30.648-5.408-53.724 2.885-94.107 23.437-116.101 70.31-18.028 38.22-13.341 75.718 11.538 110.332 32.090 44.349 91.223 59.854 143.144 43.268zM423.631 638.017c77.882-38.941 85.093-140.98 15.865-191.099-22.355-15.865-47.594-23.076-77.521-24.158-48.315 2.885-87.617 23.797-110.693 70.31-20.913 41.825-7.211 99.876 29.206 128.721 44.349 35.335 93.025 41.465 143.144 16.225z" />
<glyph unicode="&#xe91f;" glyph-name="Snapchat" d="M1001.052 189.485c-138.33 22.995-200.848 164.918-203.363 171.026 0 0.359-0.359 0.719-0.359 1.078-7.545 15.091-8.982 27.666-5.030 37.367 7.905 18.684 37.367 28.025 56.769 34.493 5.389 1.796 10.42 3.234 14.731 5.030 34.493 13.653 51.739 30.54 51.38 49.942-0.359 15.091-12.216 28.744-30.9 35.571v0c-6.467 2.515-14.013 3.952-21.199 3.952-5.030 0-12.575-0.719-19.402-3.952-16.528-7.545-31.259-11.857-43.834-12.575-8.264 0.359-14.013 2.515-17.246 4.312 0.359 7.186 0.719 14.372 1.437 21.917v2.874c4.312 69.345 9.701 155.217-12.935 205.878-67.189 150.546-209.83 162.403-251.868 162.403v0c-0.719 0-1.796 0-2.515 0 0 0-16.168 0-17.606 0-42.038 0-184.32-11.857-251.509-162.403-22.636-50.661-17.246-136.893-12.935-205.878 0.359-8.264 1.078-16.528 1.437-24.792-3.593-1.796-9.701-4.312-19.761-4.312-13.294 0-29.103 4.312-46.709 12.575-4.671 2.156-10.060 3.234-16.168 3.234-20.839 0-45.631-13.653-49.583-34.133-2.874-14.731 3.952-35.93 51.020-54.613 4.312-1.796 9.342-3.234 14.731-5.030 19.402-6.108 48.865-15.45 56.769-34.493 4.312-9.701 2.515-22.276-5.030-37.367 0-0.359-0.359-0.719-0.359-1.078-2.515-6.108-65.033-148.031-203.363-171.026-10.779-1.796-18.324-11.138-17.606-21.917 0.359-3.234 1.078-6.467 2.156-9.342 10.42-24.432 54.254-42.038 134.018-54.613 2.515-3.593 5.389-16.168 7.186-24.073 1.796-7.545 3.234-15.45 5.749-23.714s8.623-17.965 24.792-17.965c6.467 0 14.013 1.437 22.995 3.234 13.294 2.515 31.618 6.108 54.254 6.108 12.575 0 25.869-1.078 38.804-3.234 25.869-4.312 47.787-19.761 72.938-37.726 36.289-25.51 77.249-54.613 139.767-54.613 1.796 0 9.701 0 12.575 0 62.518 0 103.478 29.103 139.767 54.613 25.51 17.965 47.068 33.415 72.938 37.726 13.294 2.156 26.229 3.234 38.804 3.234 21.917 0 38.804-2.874 54.254-5.749 9.701-1.796 17.246-2.874 22.995-2.874h1.437c11.857 0 20.121 6.108 23.714 17.606 2.515 8.264 3.952 15.809 5.749 23.714s4.312 20.48 7.186 24.073c79.764 12.216 123.599 30.181 134.018 54.254 1.437 3.234 2.156 6.467 2.156 9.701 1.078 10.060-6.467 19.761-17.246 21.558zM849.428 61.575c-0.719-2.156-0.719-2.515-3.234-2.515-0.359 0-0.719 0-1.078 0-4.312 0-11.138 1.078-19.043 2.515-14.013 2.874-33.415 6.108-58.206 6.108-13.653 0-28.025-1.078-42.397-3.593-30.54-5.030-55.332-22.636-81.561-41.319-35.211-25.151-71.86-50.661-127.551-50.661-2.515 0-11.138 0-12.575 0-55.691 0-92.34 25.869-127.551 50.661-26.229 18.684-51.020 36.289-81.561 41.319-14.372 2.515-28.385 3.593-42.397 3.593-24.792 0-44.194-3.952-58.206-6.467-7.905-1.437-14.372-2.874-19.043-2.874-3.593 0-3.593 0.359-4.312 2.874-2.156 7.545-3.952 15.091-5.389 22.276-4.312 20.48-8.264 38.086-24.073 40.241-99.885 15.45-116.053 35.93-118.568 42.038-0.359 1.078-0.719 1.796-0.719 2.515 149.109 24.432 215.22 173.541 219.172 183.601 10.060 20.839 12.216 39.164 5.389 54.973-11.857 27.666-46.709 38.804-70.063 46.349-5.389 1.796-10.060 3.234-13.294 4.671-30.181 11.857-39.523 23.714-38.086 31.259 1.437 8.264 16.168 16.887 28.744 16.887 2.874 0 5.389-0.359 7.186-1.437 20.48-9.701 39.523-14.372 55.691-14.372 25.869 0 37.367 12.216 38.804 13.294l2.874 3.234-0.359 4.312c-0.359 9.701-1.078 20.121-1.796 30.54-4.312 66.829-9.342 150.187 11.138 196.177 62.159 139.048 193.662 149.827 232.466 149.827 1.078 0 17.965 0 17.965 0 0.719 0 1.437 0 2.156 0 38.445 0 170.667-10.42 232.825-149.827 20.48-45.99 15.091-129.347 11.138-196.177-0.719-10.779-1.437-20.839-1.796-30.9l-0.359-4.312 2.874-3.234c1.078-1.437 11.857-12.575 35.571-13.294h0.719c15.809 0.719 33.415 5.389 52.458 14.372 2.874 1.437 6.467 1.796 10.42 1.796 4.671 0 9.342-0.719 13.294-2.515l0.719-0.359c10.060-3.593 17.246-10.060 17.246-16.168 0-3.593-2.515-15.809-38.086-29.822-3.593-1.437-7.905-2.874-13.294-4.671-23.354-7.545-58.206-18.324-70.063-46.349-6.467-15.809-4.671-34.133 5.389-54.973 4.312-9.701 70.422-158.81 219.172-183.601 0-0.719-0.359-1.437-0.719-2.515-2.515-6.108-18.684-26.588-118.568-42.038-15.809-2.515-19.402-19.761-24.073-40.241-1.437-6.108-3.234-13.653-5.389-21.199z" />
<glyph unicode="&#xe920;" glyph-name="Twitter" d="M0 115.56c113.217-9.014 215.617 18.749 307.921 88.699-96.631 8.293-161.172 56.248-196.868 147.11 32.090-5.769 62.017-4.327 93.386 3.245-104.924 31.369-160.451 99.876-166.22 207.685 29.566-12.98 59.132-23.437 91.583-23.437-93.025 77.521-113.577 170.186-63.099 281.239 115.020-135.211 259.245-209.127 435.2-221.025-1.442 15.144-3.245 28.485-3.606 42.186-1.803 50.479 12.259 95.91 43.989 135.211 52.642 65.983 122.231 91.223 205.521 77.521 33.172-5.408 63.099-19.47 89.42-40.744 5.048-3.966 10.817-7.572 14.783-12.62 6.13-7.932 12.62-9.014 21.994-6.49 37.499 9.375 73.194 21.994 107.087 40.744 3.245 1.803 6.13 3.245 9.375 5.048 0.721 0.361 1.442 0.361 3.966 0.721-16.225-48.315-46.152-84.732-87.256-112.856 39.662 3.245 77.161 14.783 114.659 28.124-9.014-11.538-17.668-23.797-27.042-34.975-20.913-24.879-44.71-47.234-70.67-67.065-2.885-2.163-5.048-7.932-5.048-11.538 2.163-60.575-5.769-120.068-21.634-178.479-11.538-41.825-27.763-82.208-47.594-121.149-19.47-37.859-42.546-73.194-69.228-106.366-32.451-39.662-69.228-74.997-111.054-104.924-37.499-27.042-77.521-49.037-120.428-65.983-42.186-16.946-86.175-28.124-131.245-35.335-46.873-7.211-93.746-8.654-140.98-5.408-51.2 3.245-101.679 12.62-149.634 30.648-31.73 11.899-62.738 26.682-93.746 40.744-11.899 5.408-22.715 12.98-33.532 19.47z" />
<glyph unicode="&#xe921;" glyph-name="Vimeo" d="M1021.476 704.166c-4.687-99.515-73.915-235.808-208.406-408.518-138.817-180.642-256.361-270.783-352.631-270.783-59.493 0-109.972 54.806-151.076 165.138-27.403 100.958-54.806 201.555-82.569 302.513-30.648 109.972-63.459 165.138-98.434 165.138-7.572 0-34.254-16.225-80.045-47.955l-48.315 61.296c50.479 44.349 100.237 88.699 149.273 133.048 67.065 58.051 117.544 88.699 151.437 91.583 79.685 7.572 128.361-46.873 146.749-162.975 19.831-125.476 33.532-203.718 41.465-234.366 23.076-104.203 48.315-156.124 75.718-156.124 21.273 0 53.363 33.893 96.27 101.318s65.623 118.986 68.868 154.321c6.13 58.411-16.946 87.617-68.868 87.617-24.518 0-49.758-5.769-75.718-16.586 50.118 164.417 146.389 244.462 287.73 239.775 105.285-3.245 154.682-71.031 148.552-204.439z" />
<glyph unicode="&#xe922;" glyph-name="Whatsapp" d="M873.645 811.444c-95.549 95.549-225.352 148.913-360.563 148.554-280.518 0-508.755-227.157-508.755-506.233 0-89.059 23.437-176.315 67.786-253.476l-72.113-262.49 269.701 70.31c74.637-40.383 158.287-61.656 243.020-61.656h0.361c280.518 0 508.755 227.155 508.755 506.231 1.082 134.851-52.642 263.932-148.192 358.761zM513.082 32.267v0c-76.079 0-150.355 20.192-215.617 58.772l-15.504 9.014-160.090-41.465 42.907 155.042-10.096 15.865c-124.034 196.868-64.18 456.834 133.769 580.146s458.997 63.82 583.392-132.687c124.394-196.507 64.18-456.834-133.408-580.146-67.786-42.186-145.668-64.541-225.352-64.541zM745.285 347.399c-12.62 6.49-75.358 37.138-86.896 41.104-11.538 4.327-20.192 6.49-28.485-6.49s-32.811-41.104-40.383-49.397c-7.572-8.293-14.783-9.375-27.403-3.245s-53.724 19.831-102.4 62.738c-37.859 33.893-63.459 74.997-70.67 87.617s-0.721 19.47 5.408 25.961c5.769 5.769 12.62 14.783 19.11 22.355 5.408 6.49 9.375 13.701 12.62 21.273 3.606 7.211 2.885 15.504-1.082 22.355-3.245 6.49-28.485 68.507-39.301 94.107-10.456 24.879-20.913 21.273-28.485 21.994-7.211 0-15.865 0-24.158 0-12.98-0.361-25.239-6.13-33.893-15.865-11.538-12.62-44.349-43.268-44.349-105.645s45.431-122.231 51.921-130.885c6.49-8.654 89.78-136.293 217.059-191.099 23.797-10.096 47.955-19.11 72.473-26.682 25.961-7.932 53.363-9.735 80.045-5.048 24.518 3.606 75.358 30.648 85.814 60.214s10.456 54.806 7.572 60.214c-2.885 5.408-11.899 8.293-24.518 14.423z" />
<glyph unicode="&#xe923;" glyph-name="Xing" d="M813.070 959.869c64.541-2.163 128.361-0.361 200.113-0.361-67.425-118.625-130.885-230.039-194.344-341.093-48.315-85.093-96.27-170.546-146.028-254.918-11.538-19.47-10.817-32.811 0.361-51.921 64.18-109.611 126.558-219.583 189.656-329.915 7.211-12.259 12.98-25.239 22.355-43.268-77.521 0-150.715-0.721-223.91 0.721-7.932 0-17.668 11.177-22.715 19.47-68.146 118.265-136.293 236.53-202.637 356.237-6.851 12.62-6.851 35.696 0.361 48.315 106.006 188.575 214.175 375.707 320.541 563.921 13.341 23.797 27.763 34.254 56.248 32.811zM309.003 772.016c6.851 0 15.144-10.817 19.47-18.389 37.499-64.541 75.358-129.442 111.054-195.065 5.408-10.096 4.687-28.485-1.082-38.58-49.037-83.29-99.155-165.859-150.715-247.346-6.851-10.817-23.076-22.355-35.335-22.715-64.18-2.524-128.361-1.442-201.194-1.442 52.282 86.175 99.155 167.662 150.715 245.904 21.634 32.811 21.994 57.33 1.082 90.501-37.499 58.772-69.589 120.789-107.808 187.854 74.997 0 144.225 0.361 213.814-0.721z" />
<glyph unicode="&#xe924;" glyph-name="Youtube" d="M513.815 806.455c39.607-0.101 319.49-1.522 393.243-21.412 43.82-11.789 78.331-46.524 90.044-90.629 19.863-74.612 21.187-224.881 21.275-244.585v-4.297c-0.088-19.704-1.412-169.973-21.276-244.586-11.713-44.105-46.224-78.839-90.044-90.628-69.971-18.871-325.472-21.117-385.314-21.385h-25.201c-59.842 0.267-315.344 2.514-385.315 21.385-43.82 11.789-78.331 46.524-90.044 90.628-19.154 71.948-21.069 214.245-21.261 241.985v9.5c0.192 27.74 2.107 170.036 21.261 241.984 11.713 44.105 46.224 78.84 90.044 90.629 73.753 19.89 353.637 21.311 393.244 21.412zM404.98 599.114v-302.869l266.194 151.43-266.194 151.44z" />
<glyph unicode="&#xe925;" glyph-name="Alarm" d="M998.4 217.4h-102.59v281.4c0 115.233-39.736 220.352-111.621 295.488-70.802 73.691-167.251 114.511-272.008 114.511s-201.568-40.458-272.37-114.15c-72.247-75.136-111.621-179.894-111.621-295.488v-281.4h-102.59v-102.59h307.409v-25.648c0-84.528 80.194-153.524 178.81-153.524s179.171 68.634 179.171 153.524v25.648h307.409v102.229zM230.419 499.162c0 178.088 118.484 307.409 281.4 307.409s281.762-129.321 281.762-307.409v-281.4h-563.162v281.4zM589.123 89.524c0-27.454-36.123-51.295-76.943-51.295s-76.943 23.841-76.943 51.295v25.648h154.246v-25.648h-0.361z" />
<glyph unicode="&#xe926;" glyph-name="Cloudy" d="M429.431 653.157c110.332 0 202.276-68.868 221.025-159.73 26.682 11.899 55.887 18.028 85.454 18.028 101.679 0 183.887-71.392 183.887-159.369s-82.569-159.369-183.887-159.369h-510.918c-67.786 0-122.592 47.594-122.592 106.006 0 55.166 48.676 100.597 111.054 105.645-5.769 17.307-8.654 35.335-8.654 53.724-0.361 107.808 100.237 195.065 224.631 195.065zM429.431 755.198c-84.732 0-164.777-29.207-226.073-81.85-30.287-25.961-55.166-58.051-73.194-94.107-16.225-32.811-25.6-68.507-27.763-104.924-14.062-8.293-26.682-18.028-38.58-29.206-40.383-37.499-63.459-90.141-63.82-145.668 0.361-58.772 26.321-114.299 71.392-152.158 42.907-36.417 97.352-56.248 153.6-55.887h510.918c72.113-0.721 142.062 24.879 196.868 71.752 56.608 49.037 89.059 118.265 89.059 190.017s-32.451 140.62-89.059 190.017c-54.806 46.873-124.755 72.113-196.868 71.392-9.014 0-18.028-0.361-27.042-1.082-58.051 85.814-162.614 142.062-279.437 141.703v0z" />
<glyph unicode="&#xe927;" glyph-name="Coffee-maker" d="M958.017 408.338c-34.254 27.763-78.603 40.383-140.259 40.383v102.4h-562.118v-510.918h-102.039l0.361 817.397h102.039l178.479-204.079h204.439l175.234 204.439h3.606v102.039l-766.197-0.361-0.361-1021.476h766.558v102.039c60.214 0 106.366 13.701 140.62 41.825 42.546 34.975 63.82 89.42 63.82 162.614 0 74.276-21.634 129.442-64.18 163.696zM679.662 857.6l-87.617-102.039h-111.054l-89.42 102.039c0 0 288.090 0 288.090 0zM715.718 40.203h-357.679v408.879h357.679v-408.879zM817.758 142.242v204.439c36.417 0 61.296-5.769 76.079-17.668 17.307-14.062 26.321-42.546 26.321-84.372 0-76.8-25.961-102.4-102.4-102.4z" />
<glyph unicode="&#xe928;" glyph-name="Console" d="M511.74 806.571c46.246 0 91.046-7.586 133.679-22.035l51.665 89.586c-57.446 22.396-119.95 34.678-184.983 34.678-65.394 0-127.537-12.282-184.983-34.678l51.665-89.947c41.91 14.449 86.711 22.396 132.957 22.396zM456.823 646.906c17.703 3.974 36.13 6.141 54.917 6.141s37.213-2.167 54.917-6.141l52.388 92.114c-33.962 10.837-70.091 16.617-107.666 16.617s-73.704-5.78-107.666-16.617l53.11-92.114zM992.985 171.163l-69.369 275.621c-23.123 91.031-104.776 154.608-198.712 154.608h-426.329c-93.937 0-175.59-63.577-198.712-154.608l-69.007-274.898v-0.722c-11.561-48.766-3.974-99.7 22.039-142.687s66.84-73.691 115.253-86.335c49.497-13.004 101.524-5.057 146.325 21.674 38.297 23.119 67.924 58.881 83.098 100.061h229.061c15.174-41.181 44.439-76.943 83.098-100.061 30.71-18.423 64.672-27.815 98.634-27.815 15.897 0 31.794 2.167 47.33 6.141 48.414 12.643 89.601 43.348 115.253 86.335 26.013 43.348 33.962 93.921 22.039 142.687zM830.041 41.48c-22.762-5.78-46.607-2.167-67.562 10.476-21.316 12.643-36.852 33.595-42.633 57.075l-13.729 57.436h-388.393l-13.729-57.436c-5.781-23.48-20.955-44.432-42.633-57.075-20.955-12.643-45.162-16.255-67.562-10.476-45.885 11.921-74.427 59.242-63.588 105.48l69.369 274.898c11.561 45.515 52.388 77.304 99.356 77.304h426.329c46.968 0 87.795-31.788 99.356-77.304l69.369-274.898c10.478-46.238-18.065-93.559-63.949-105.48zM358.189 396.933h-51.304v-51.295h-50.943v-51.295h50.943v-51.295h51.304v51.295h51.304v51.295h-51.304v51.295zM690.942 396.572c42.633 0 76.956-34.317 76.956-76.581s-34.323-76.581-76.956-76.581c-42.633 0-76.956 34.317-76.956 76.581s34.323 76.581 76.956 76.581z" />
<glyph unicode="&#xe929;" glyph-name="Desklamp" d="M915.11 423.482l-240.135 240.856 66.344 65.623-230.4 230.039-153.239-153.239-306.479-102.4 408.518-434.479 127.639 307.561 14.423 14.423 174.152-168.744-314.772-383.279h-103.482v-102.039h460.079v102.039h-223.549l320.901 383.639zM501.183 635.854l-7.932-18.749-67.065-161.893-191.099 202.997 177.758 59.132 98.073 98.073 85.093-85.093-94.828-94.468z" />
<glyph unicode="&#xe92a;" glyph-name="Desktop-computer" d="M0 524.755v-588.755h382.871v588.755h-382.871zM102.942 38.942v382.871h176.988v-50.207h-101.858v-51.29h101.858v-281.374h-176.988zM1024 270.109v689.891h-921.781v-382.51h103.303v279.568h715.175v-484.007h-486.174v-102.942h76.935v-76.574h-76.935v-102.219h307.381v102.219h-127.865v76.574h409.961z" />
<glyph unicode="&#xe92b;" glyph-name="Dishwasher" d="M76.8 959.639l1.803-482.434-1.442-539.403h868.958v1022.197l-869.318-0.361zM843.718 857.961v-204.439h-663.437l-0.721 204.079 664.158 0.361zM179.561 40.203l1.082 437.003-0.361 125.115h663.437v-562.118h-664.158zM741.318 806.761c28.124 0 51.2-23.076 51.2-51.2s-23.076-51.2-51.2-51.2c-28.124 0-51.2 23.076-51.2 51.2s23.076 51.2 51.2 51.2zM613.679 806.761c28.124 0 51.2-23.076 51.2-51.2s-23.076-51.2-51.2-51.2c-28.124 0-51.2 23.076-51.2 51.2s23.076 51.2 51.2 51.2zM243.020 449.082c0-92.304 51.921-142.783 127.639-151.797v-154.682h-76.439v-51.2h204.439v51.2h-76.8v154.682c75.718 9.014 127.639 59.493 127.639 151.797v102.039h-306.479v-102.039zM294.22 499.921h204.439v-51.2c0-34.614-9.014-60.935-27.042-77.882-21.634-20.192-52.642-24.518-75.358-24.518s-53.363 4.687-74.997 24.879c-18.028 16.946-27.042 42.907-27.042 77.882v50.839zM651.899 551.121h51.2v-102.4h-51.2v102.4zM575.459 551.121h51.2v-102.4h-51.2v102.4zM728.699 449.082c0-64.541-27.042-76.8-76.8-76.8h-25.6v-280.879h51.2v231.121c40.744 3.966 102.039 24.518 102.039 126.558v102.039h-50.839v-102.039z" />
<glyph unicode="&#xe92c;" glyph-name="Door-closed" d="M179.2-10.997v919.797h664.158v-919.797h-664.158zM281.6 806.761v-715.718h460.079v715.718h-460.079zM306.839 474.321h153.239v-51.2h-153.239v51.2z" />
<glyph unicode="&#xe92d;" glyph-name="Door-open" d="M536.879 473.961h76.8v-51.2h-76.8v51.2zM843.718 881.758v0 27.042h-664.518v-919.797h664.158v892.755h0.361zM511.279 225.893v445.656l230.039 106.006v-658.028l-230.039 106.366zM281.239 806.4h278.355l-150.715-69.589v-576.541l150.715-69.589h-278.355v715.718z" />
<glyph unicode="&#xe92e;" glyph-name="Dryer" d="M945.758 960v-1022.197h-868.958l1.442 539.403-1.442 482.794h868.958zM843.718 857.6h-664.158l1.082-380.394-1.082-437.003h664.158v817.397zM509.476 653.521c153.961 0 279.076-87.617 279.076-281.6s-124.755-281.6-279.076-281.6c-153.961 0-279.076 87.617-279.076 281.6s125.115 281.6 279.076 281.6zM509.837 551.121c-4.687-28.845-18.028-46.152-29.206-60.935-11.899-15.504-20.192-26.321-20.192-50.839s8.293-35.696 20.192-51.2c13.701-18.028 30.648-40.383 30.648-82.569s-16.946-64.541-30.648-82.569c-6.851-7.932-12.259-16.946-16.225-26.321 14.783-2.524 29.927-3.606 45.070-3.606v0h3.606c4.687 28.845 18.028 46.152 29.206 60.935 11.538 15.144 20.192 26.682 20.192 51.2s-8.293 35.696-20.192 51.2c-14.062 18.028-31.008 40.383-31.008 82.569 0 41.825 17.307 64.18 31.008 82.208 6.49 7.572 11.899 16.225 15.865 25.6-15.865 2.885-32.090 4.327-48.315 4.327zM607.189 530.93c-5.769-14.783-14.062-28.485-24.158-40.744-11.899-15.504-20.192-27.042-20.192-51.561s8.293-35.696 20.192-51.2c13.701-18.028 30.648-40.383 30.648-82.569s-16.946-64.541-30.648-82.569c-6.13-7.211-11.177-15.144-15.144-23.797 24.879 5.769 49.758 16.225 70.31 34.975 32.090 29.566 48.315 75.718 48.315 138.096s-16.225 108.89-48.315 138.096c-9.375 8.654-19.831 15.865-31.008 21.273zM455.752 546.073c-26.321-5.769-53.003-16.225-74.637-36.056-32.090-29.566-47.955-75.358-47.955-137.735s16.225-108.89 48.315-138.096c10.096-9.375 21.634-16.946 34.254-22.715 6.13 18.389 15.865 31.369 24.518 42.546 11.538 15.144 20.192 26.682 20.192 51.2s-8.293 35.696-20.192 51.2c-13.701 18.028-30.648 40.383-30.648 82.569s16.946 64.541 30.648 82.569c6.13 7.211 11.538 15.504 15.504 24.518zM741.318 806.761c28.277 0 51.2-22.923 51.2-51.2s-22.923-51.2-51.2-51.2c-28.277 0-51.2 22.923-51.2 51.2s22.923 51.2 51.2 51.2zM613.51 806.759c28.277 0.095 51.278-22.751 51.373-51.027s-22.75-51.278-51.028-51.373c-28.277-0.095-51.277 22.751-51.372 51.028s22.751 51.277 51.027 51.372z" />
<glyph unicode="&#xe92f;" glyph-name="Electric-kettle" d="M561.758 654.242h102.761v-409.239h-102.761v409.239zM76.079 40.203h817.758v-102.039h-817.758v102.039zM817.397 66.163h-664.158v493.251l-153.239 299.628 647.572 100.597 197.228 0.361c47.234 0 87.977-19.47 115.38-55.166 23.437-30.648 35.696-70.67 35.696-116.101v-314.051h-102.4v314.051c0 22.355-5.048 41.104-14.423 53.363-7.932 10.456-18.749 15.144-33.893 15.144h-27.403l-0.361-791.076zM256 168.924h458.637v687.955h-59.132l-491.087-76.8 91.583-192.901v-418.254z" />
<glyph unicode="&#xe930;" glyph-name="Electric-stove" d="M533.994 326.851c0 92.304 62.017 154.321 153.961 154.321 92.304 0 153.961-62.017 153.961-154.321s-62.017-154.321-153.961-154.321c-91.944 0.361-153.961 62.377-153.961 154.321zM789.994 326.851c0 63.82-37.859 101.679-101.679 101.679s-101.679-38.22-101.679-101.679c0-63.459 38.22-102.039 101.679-102.039 63.459 0.361 101.679 38.58 101.679 102.039v0zM176.676 326.851c0 92.304 62.017 154.321 153.961 154.321 92.304 0 153.961-62.017 153.961-154.321s-62.017-154.321-153.961-154.321c-91.944 0.361-153.961 62.377-153.961 154.321zM432.676 326.851c0 63.82-37.859 101.679-101.679 101.679s-101.679-38.22-101.679-101.679c0-63.459 38.22-102.039 101.679-102.039 63.459 0.361 101.679 38.58 101.679 102.039zM176.676 679.482c0 92.304 62.017 154.321 154.321 154.321s153.961-62.017 153.961-154.321c0-92.304-62.017-154.321-153.961-154.321-92.304 0.361-154.321 62.377-154.321 154.321zM432.676 679.482c0 63.82-37.859 101.679-101.679 101.679s-101.679-38.22-101.679-101.679c0-63.459 37.859-101.679 101.679-101.679 63.459 0 101.679 38.22 101.679 101.679zM533.994 678.761c0 92.304 62.017 154.321 153.961 154.321 92.304 0 153.961-62.017 153.961-154.321s-62.017-154.321-153.961-154.321c-91.944 0.361-153.961 62.017-153.961 154.321zM789.994 678.761c0 63.82-37.859 101.679-101.679 101.679s-101.679-38.22-101.679-101.679c0-63.459 38.22-102.039 101.679-102.039 63.459 0.361 101.679 38.22 101.679 102.039v0zM421.859 143.324c20.913 0 37.859-16.946 37.859-37.859s-16.946-37.859-37.859-37.859c-20.913 0-37.859 16.946-37.859 37.859s16.946 37.859 37.859 37.859zM601.059 143.324c20.913 0 37.859-16.946 37.859-37.859s-16.946-37.859-37.859-37.859c-20.913 0-37.859 16.946-37.859 37.859s16.946 37.859 37.859 37.859zM754.299 142.242c20.913 0 37.859-16.946 37.859-37.859s-16.946-37.859-37.859-37.859c-20.913 0-37.859 16.946-37.859 37.859s16.946 37.859 37.859 37.859zM267.538 143.324c20.913 0 37.859-16.946 37.859-37.859s-16.946-37.859-37.859-37.859c-20.913 0-37.859 16.946-37.859 37.859s16.946 37.859 37.859 37.859zM868.237 856.879v-816.315h-714.276v816.315h714.276zM970.997 960h-919.797v-1022.197h919.797v1022.197z" />
<glyph unicode="&#xe931;" glyph-name="Electric-tooth-brush" d="M460.079 562.659c-75.718 0-138.817-55.527-151.076-127.639h-104.563v76.8h-51.2v-76.8h-25.6v76.8h-50.839v-76.8h-25.6v76.8h-51.2v-179.2h308.642c12.259-72.473 75.358-127.639 151.076-127.639h562.118v357.679h-561.758zM919.797 307.020h-459.718c-28.124 0-51.2 23.076-51.2 51.2v51.2c0 28.124 23.076 51.2 51.2 51.2h460.079l-0.361-153.6zM255.639 613.859v76.439h-178.839c-42.546 0-76.8-34.254-76.8-76.439v-76.8h178.839c42.186 0 76.8 34.254 76.8 76.8zM51.2 613.859c0 14.062 11.538 25.6 25.6 25.6h127.639v-25.6c0-14.062-11.538-25.6-25.6-25.6h-127.639v25.6zM498.299 422.039c21.273 0 38.22-17.307 38.22-38.22s-17.307-38.22-38.22-38.22c-20.913 0-38.22 17.307-38.22 38.22s16.946 38.22 38.22 38.22z" />
<glyph unicode="&#xe932;" glyph-name="Espresso-machine" d="M817.397 960v-102.4h-77.161v-74.997h135.572c9.375 14.783 25.6 23.797 43.268 23.797 18.749 0 35.696-10.096 44.71-25.961 13.701-24.518 5.048-55.887-19.47-69.589s-55.887-5.048-69.589 19.47v0h-134.13v-103.482h-434.118v230.4h-153.239l-0.361-817.397h204.079v306.479h333.161v-80.406c26.321-0.721 46.873-7.211 63.099-20.192 14.783-11.899 32.451-34.975 32.451-78.242 0-42.186-17.307-65.623-32.090-77.521-16.586-13.341-37.138-20.192-63.459-20.552v0-29.566h127.639v-102.039h-767.279l0.361 1021.837 204.079 0.361h562.479zM586.997 243.921h-127.279v-175.234h127.279v175.234zM689.758 213.634v-91.944c13.341 0.361 23.437 2.885 30.287 8.654 8.654 7.211 12.98 19.47 12.98 37.138 0 18.028-4.327 30.648-12.98 37.499-4.327 3.606-12.259 8.293-30.287 8.654v0zM535.437 601.239c0 0 63.099-59.493 63.459-106.727 0-43.268-28.124-63.459-63.459-63.459s-63.459 20.192-63.459 63.459c0 47.234 63.459 106.727 63.459 106.727zM637.837 857.6h-228.597v-127.639h228.597v127.639z" />
<glyph unicode="&#xe933;" glyph-name="Extractor-hood" d="M499.38 221.206l-28.124-84.732 25.6-76.439-22.715-68.507 48.315-16.225 28.124 84.732-25.239 76.439 22.715 68.507-48.676 16.225zM639.639 221.206l-28.124-84.732 25.6-76.439-23.076-68.507 48.676-16.225 28.124 84.732-25.6 76.439 23.076 68.507-48.676 16.225zM407.797 204.98l-48.315 16.225-28.124-84.732 25.6-76.439-23.076-68.507 48.676-16.225 28.124 84.732-25.6 76.439 22.715 68.507zM897.082 358.22l-156.124 254.197v307.921h-459.718v-308.282l-156.124-254.197h-48.315v-102.039h868.597v102.039h-48.315v0.361zM384 817.577h254.197v-152.518h-254.558l0.361 152.518zM371.020 562.299h280.158l125.476-204.079h-531.11l125.476 204.079z" />
<glyph unicode="&#xe934;" glyph-name="Fairy-lights" d="M971.358 250.411l50.839-75.718v-204.439h-1022.197v204.439l51.921 75.718 50.839-75.718v-101.679h50.479v101.679h0.361l51.921 75.718 50.479-75.718v-101.679h50.479v101.679h0.361l51.921 75.718 50.479-75.718v-101.679h50.839v101.679l51.921 75.718 50.839-75.718v-101.679h50.479v101.679l51.921 75.718 50.839-75.718v-101.679h50.479v101.679l51.921 75.718 50.839-75.718v-101.679h50.118v101.679l51.921 75.718zM570.411 570.231v-23.076c0-10.096 12.62-28.845 18.749-36.417 17.668-21.273 32.090-42.186 32.090-80.766 0-64.18-49.397-102.4-115.020-102.4s-115.020 38.22-114.661 102.4c0 38.58 14.064 59.493 32.092 80.766 6.13 7.572 19.11 26.321 19.11 36.417v0 23.076h127.639zM524.98 519.031h-37.138c-7.572-19.47-20.192-35.696-25.239-41.465-13.341-15.865-19.831-25.6-19.831-47.594 0-15.865 4.687-27.763 14.783-36.417 11.177-9.375 28.485-14.783 48.676-14.783 19.11 0 63.82 5.048 64.18 51.2 0 21.634-6.13 31.008-20.192 47.594-3.606 4.327-17.307 21.273-25.239 41.465v0zM215.256 634.411v-23.076c0-10.096 12.62-28.845 18.749-36.417 17.668-21.273 32.090-42.186 32.090-80.766 0-64.18-49.397-102.4-115.020-102.4s-115.020 38.22-114.661 102.4c0 38.58 14.064 59.493 32.092 80.766 6.13 7.572 19.11 26.321 19.11 36.417v0 23.076h127.639zM941.792 634.411v-23.076c0-10.096 12.62-28.845 18.749-36.417 17.668-21.273 32.090-42.186 32.090-80.766 0-64.18-49.397-102.4-115.020-102.4s-115.020 38.22-114.661 102.4c0 38.58 14.064 59.493 32.092 80.766 6.13 7.572 19.11 26.321 19.11 36.417v0 23.076h127.639zM169.825 583.211h-37.138c-7.572-19.47-20.192-35.696-25.239-41.465-13.341-15.865-19.831-25.6-19.831-47.594 0-15.865 4.687-27.763 14.783-36.417 11.177-9.375 28.485-14.783 48.676-14.783 19.11 0 63.82 5.048 64.18 51.2 0 21.634-6.13 31.008-20.192 47.594-3.606 4.327-17.307 21.273-25.239 41.465v0zM896.361 583.211h-37.138c-7.572-19.47-20.192-35.696-25.239-41.465-13.341-15.865-19.831-25.6-19.831-47.594 0-15.865 4.687-27.763 14.783-36.417 11.177-9.375 28.485-14.783 48.676-14.783 19.11 0 63.82 5.048 64.18 51.2 0 21.634-6.13 31.008-20.192 47.594-3.606 4.327-17.307 21.273-25.239 41.465v0zM536.518 634.411c18.749 0 33.532-18.389 33.532-38.22v0h-128c0 20.192 15.504 38.22 34.254 38.22v0zM0 921.42c74.997-70.31 274.028-131.966 533.994-131.606 155.403 0 301.070 21.994 410.321 62.377 29.927 10.817 55.887 23.076 77.882 35.696v0-59.493c-18.028-9.014-37.859-17.668-59.493-25.6-18.389-6.851-37.499-12.98-57.69-18.749v0-69.949h-52.282v56.248c-94.828-21.994-204.439-33.532-318.377-33.532v0h-1.442v-90.141h-52.282v91.223c-109.972 3.606-214.175 18.028-302.873 42.186v0-65.983h-52.282v81.848c-6.851 2.163-13.341 4.327-19.831 6.851-41.825 15.504-77.161 33.172-105.645 52.282v0zM181.363 698.592c18.749 0 33.532-18.389 33.532-38.22v0h-128c0 20.192 15.504 38.22 34.254 38.22v0zM907.899 698.592c18.749 0 33.532-18.389 33.532-38.22v0h-128c0 20.192 15.504 38.22 34.254 38.22v0z" />
<glyph unicode="&#xe935;" glyph-name="Freezer" d="M802.975 551.121l29.927 42.546-20.552 14.423-20.913 14.423-50.118-71.392h-51.2v51.2l65.262 45.792-28.845 41.104-36.417-25.239v91.944h-50.479v-91.944l-36.417 25.239-14.423-20.552-14.423-20.913 65.262-45.431v-51.2h-51.2l-46.513 66.344-20.552-14.783-20.552-14.423 25.961-37.138h-91.944v-50.479h92.304l-23.797-34.254 20.552-14.423 20.552-14.783 44.349 63.459h50.839v-51.921l-71.752-46.873 13.701-21.273 14.062-21.273 43.989 28.845v-117.904h50.479v117.183l40.023-28.124 14.423 20.913 14.423 20.552-68.868 48.315v51.561h51.2l47.234-67.425 20.552 14.423 20.913 14.783-27.042 38.22h91.944v50.479h-91.944zM332.439 654.603h51.2v-255.639h-51.2v255.639zM230.4 40.203h562.118v-102.039h-562.118v102.039zM740.958 167.842h-459.358v690.118h459.358v-101.679h102.4v203.718h-664.158v-894.197h664.158v205.882h-102.4v-103.842z" />
<glyph unicode="&#xe936;" glyph-name="Fridge-freezer" d="M335.685 832.361h51.2v-127.639h-51.2v127.639zM335.685 551.121h51.2v-255.639h-51.2v255.639zM233.645 40.203h562.118v-102.039h-562.118v102.039zM182.445 960v-894.197h664.518v894.197h-664.518zM284.845 167.842v408.879h459.718v-408.879h-459.718zM744.563 678.761h-459.718v178.839h459.718v-178.839z" />
<glyph unicode="&#xe937;" glyph-name="Fridge" d="M335.685 655.324h51.2v-255.639h-51.2v255.639zM233.645 40.203h562.118v-102.039h-562.118v102.039zM182.445 959.639v-894.197h664.158v894.558l-664.158-0.361zM744.563 167.842h-459.718v690.118h460.079v-690.118h-0.361z" />
<glyph unicode="&#xe938;" glyph-name="Gas-stove" d="M421.859 143.324c20.913 0 37.859-16.946 37.859-37.859s-16.946-37.859-37.859-37.859c-20.913 0-37.859 16.946-37.859 37.859s16.946 37.859 37.859 37.859zM601.059 143.324c20.913 0 37.859-16.946 37.859-37.859s-16.946-37.859-37.859-37.859c-20.913 0-37.859 16.946-37.859 37.859s16.946 37.859 37.859 37.859zM754.299 142.242c20.913 0 37.859-16.946 37.859-37.859s-16.946-37.859-37.859-37.859c-20.913 0-37.859 16.946-37.859 37.859s16.946 37.859 37.859 37.859zM267.538 143.324c20.913 0 37.859-16.946 37.859-37.859s-16.946-37.859-37.859-37.859c-20.913 0-37.859 16.946-37.859 37.859s16.946 37.859 37.859 37.859zM689.397 475.763c-92.304 0-153.961-62.017-153.961-154.321s62.017-154.321 153.961-154.321c92.304 0 153.961 62.017 153.961 154.321s-62.017 154.321-153.961 154.321zM788.913 347.403h-73.915v73.915c40.023-7.572 66.344-33.893 73.915-73.915zM663.797 421.318v-73.915h-73.915c7.572 40.023 33.532 66.344 73.915 73.915v0zM589.882 296.203h73.915v-73.915c-40.383 7.211-66.344 33.532-73.915 73.915zM714.997 221.927v73.915h73.915c-7.572-40.023-33.893-66.344-73.915-73.915v0zM333.161 475.763c-92.304 0-153.961-62.017-153.961-154.321s62.017-154.321 153.961-154.321c92.304 0 153.961 62.017 153.961 154.321s-62.017 154.321-153.961 154.321zM432.676 347.403h-73.915v73.915c40.023-7.572 66.344-33.893 73.915-73.915zM307.561 421.318v-73.915h-73.915c7.572 40.023 33.532 66.344 73.915 73.915zM233.645 296.203h73.915v-73.915c-40.383 7.211-66.344 33.532-73.915 73.915zM358.761 221.927v73.915h73.915c-7.572-40.023-33.893-66.344-73.915-73.915zM689.397 832.361c-92.304 0-153.961-62.017-153.961-154.321s62.017-154.321 153.961-154.321c92.304 0 153.961 62.017 153.961 154.321s-62.017 154.321-153.961 154.321zM788.913 703.639h-73.915v74.276c40.023-7.572 66.344-33.893 73.915-74.276zM663.797 777.915v-73.915h-73.915c7.572 40.023 33.532 66.344 73.915 73.915zM589.882 652.8h73.915v-73.915c-40.383 7.211-66.344 33.532-73.915 73.915zM714.997 578.524v74.276h73.915c-7.572-40.383-33.893-66.704-73.915-74.276zM333.161 832.361c-92.304 0-153.961-62.017-153.961-154.321s62.017-154.321 153.961-154.321c92.304 0 153.961 62.017 153.961 154.321s-62.017 154.321-153.961 154.321zM432.676 703.639h-73.915v74.276c40.023-7.572 66.344-33.893 73.915-74.276zM307.561 777.915v-73.915h-73.915c7.572 40.023 33.532 66.344 73.915 73.915zM233.645 652.8h73.915v-73.915c-40.383 7.211-66.344 33.532-73.915 73.915zM358.761 578.524v74.276h73.915c-7.572-40.383-33.893-66.704-73.915-74.276zM868.237 856.879v-816.315h-714.276v816.315h714.276zM970.997 960h-919.797v-1022.197h919.797v1022.197z" />
<glyph unicode="&#xe939;" glyph-name="Hair-straightener" d="M959.487 661.333l35.4-96.441-722.88-265.376c21.907-26.548 35.082-60.556 35.082-97.585 0-17.806-3.080-34.898-8.679-50.814v0h723.659v-102.733l-870.845 0.059c-83.596 1.251-151.224 69.599-151.224 153.488 0 67.597 43.924 125.087 104.715 145.539v0l854.772 313.862zM153.547 252.746c-28.017 0-50.814-22.797-50.814-50.814s22.797-50.814 50.814-50.814c28.017 0 50.81 22.797 50.81 50.814s-22.793 50.814-50.81 50.814zM1022.069 228.918v-52.282h-433.993v52.282h433.993zM1004.031 541.481l18.037-49.071-458.023-168.355-18.037 49.071 458.023 168.355zM229.393 842.835c35.553 0 64.475-28.924 64.475-64.475s-28.922-64.475-64.475-64.475c-6.792 0-12.261-5.47-12.261-12.192s5.468-12.194 12.194-12.194c35.584 0 64.507-28.924 64.507-64.475s-28.922-64.474-64.472-64.474v52.282c6.722 0 12.19 5.47 12.19 12.192 0 6.723-5.468 12.194-12.19 12.194-35.588 0-64.511 28.924-64.511 64.475s28.923 64.473 64.475 64.473c6.792 0 12.261 5.47 12.261 12.194s-5.468 12.194-12.194 12.194v52.282zM409.512 840.983v-280.433h-52.282v280.433h52.282z" />
<glyph unicode="&#xe93a;" glyph-name="Hairdryer" d="M200.222 868.61l541.334-95.034v-313.176l-281.528-49.424v-384.031h-332.173v349.082c-45.468 15.64-73.168 45.851-89.535 72.489-25.785 41.965-38.32 97.081-38.32 168.496 0 71.412 12.535 126.521 38.324 168.479 23.306 37.917 69.535 83.118 157.423 83.118v0h4.475zM357.267 392.937l-126.651-22.234v-240.997h126.651v263.231zM191.373 765.832c-29.718-0.345-88.613-7.322-88.613-148.819 0-141.542 58.894-148.523 88.613-148.868v0l259.134 45.492v206.702zM860.898 561.451l76.439-25.6 68.507 22.715 16.225-48.315-84.732-28.124-76.439 25.6-68.146-23.076-16.225 48.676 84.372 28.124zM553.267 702.299v-170.621l85.529 15.015v140.592l-85.529 15.015zM860.898 666.286l76.439-25.239 68.507 22.715 16.225-48.676-84.732-28.124-76.439 25.6-68.146-22.715-16.225 48.315 84.372 28.124zM860.898 771.121l76.439-25.6 68.507 23.076 16.225-48.676-84.732-28.124-76.439 25.6-68.146-23.076-16.225 48.676 84.372 28.124z" />
<glyph unicode="&#xe93b;" glyph-name="Indution-stove" d="M970.997 960v-1022.197h-919.797v1022.197h919.797zM868.237 856.879h-714.276v-816.315h714.276v816.315zM446.377 141.161c20.909 0 37.859-16.95 37.859-37.859s-16.95-37.859-37.859-37.859c-20.909 0-37.859 16.95-37.859 37.859s16.95 37.859 37.859 37.859zM575.82 141.161c20.909 0 37.859-16.95 37.859-37.859s-16.95-37.859-37.859-37.859c-20.909 0-37.859 16.95-37.859 37.859s16.95 37.859 37.859 37.859zM689.037 472.879c92.304 0 153.961-62.017 153.961-154.321s-62.017-154.321-153.961-154.321c-92.304 0-153.961 62.017-153.961 154.321s62.017 154.321 153.961 154.321zM331.718 472.879c92.304 0 153.961-62.017 153.961-154.321s-62.017-154.321-153.961-154.321c-91.944 0-153.961 62.017-153.961 154.321s62.017 154.321 153.961 154.321zM689.037 420.237c-63.82 0-101.679-38.22-101.679-101.679s38.22-102.039 101.679-102.039c63.82 0.361 101.679 38.22 101.679 102.039s-37.859 101.679-101.679 101.679zM332.079 420.237c-63.82 0-101.679-38.22-101.679-101.679s38.22-102.039 101.679-102.039c63.459 0.361 101.679 38.22 101.679 102.039s-37.859 101.679-101.679 101.679zM691.2 398.242c45.070 0 77.521-32.811 77.521-77.882s-32.811-77.882-77.521-77.882c-45.070 0-77.521 32.811-77.521 77.882s32.811 77.882 77.521 77.882zM332.079 398.242c45.070 0 77.521-32.811 77.521-77.882 0.361-45.070-32.451-77.882-77.521-77.882s-77.521 32.811-77.521 77.882c0 45.070 32.811 77.882 77.521 77.882zM691.2 345.6c-16.225 0-25.239-9.014-25.239-25.239s9.014-25.239 25.239-25.239c16.225 0 25.239 9.014 25.239 25.239s-9.014 25.239-25.239 25.239zM332.079 345.6c-16.225 0-25.239-9.014-25.239-25.239s9.014-25.239 25.239-25.239c16.225 0 25.239 9.014 25.239 25.239s-9.014 25.239-25.239 25.239zM689.037 832c92.304 0 153.961-62.017 153.961-154.321s-62.017-153.961-153.961-153.961c-92.304 0-153.961 62.017-153.961 153.961 0 92.304 62.017 154.321 153.961 154.321zM333.161 833.082c92.304 0 153.961-62.017 153.961-154.321s-62.017-154.321-153.961-154.321c-91.944 0-153.961 62.017-153.961 154.321s62.017 154.321 153.961 154.321zM689.037 779.358c-63.82 0-101.679-38.22-101.679-101.679s38.22-102.039 101.679-102.039c63.82 0.361 101.679 38.58 101.679 102.039 0 63.82-37.859 101.679-101.679 101.679zM333.521 780.439c-63.82 0-101.679-38.22-101.679-101.679s38.22-102.039 101.679-102.039c63.459 0 101.679 38.22 101.679 102.039s-37.859 101.679-101.679 101.679zM691.2 757.003c45.070 0 77.521-32.811 77.521-77.882s-32.811-77.882-77.521-77.882c-45.070 0-77.521 32.811-77.521 77.882s32.811 77.882 77.521 77.882zM333.521 756.642c45.070 0 77.521-32.811 77.521-77.882s-32.451-77.521-77.521-77.521c-45.070 0-77.882 32.451-77.882 77.521s32.811 77.882 77.882 77.882zM691.2 704.361c-16.225 0-25.239-9.014-25.239-25.239s9.014-25.239 25.239-25.239c16.225 0 25.239 9.014 25.239 25.239s-9.014 25.239-25.239 25.239zM333.521 704.361c-16.225 0-25.239-9.014-25.239-25.239s9.014-25.239 25.239-25.239c16.225 0 25.239 9.014 25.239 25.239s-9.014 25.239-25.239 25.239z" />
<glyph unicode="&#xe93c;" glyph-name="Kettle" d="M1022.197-62.197c0 228.597-97.352 425.465-281.239 513.442v329.915h-459.718v-329.915c-34.975-16.586-67.786-37.859-97.352-62.738l-71.031 71.031-72.113-72.113 73.194-73.194c-74.997-99.876-113.938-231.842-113.938-376.428h1022.197zM383.279 678.761h255.639v-192.541c-84.372 18.389-171.268 18.389-255.639 0v192.541zM208.766 269.161c33.893 40.023 76.079 72.113 124.034 93.386 52.282 23.437 112.135 35.335 178.118 35.335s125.837-11.899 178.118-35.335c47.955-21.273 90.141-53.363 124.034-93.386v0c50.479-59.493 84.372-138.817 98.794-229.318h-801.893c14.423 90.501 48.315 169.825 98.794 229.318z" />
<glyph unicode="&#xe93d;" glyph-name="Kitchen-machine" d="M794.682 40.203c2.885 3.245 6.13 6.49 9.014 9.735 47.594 54.445 75.358 121.51 86.896 321.983l2.885 50.839h-200.834l-131.606 310.806v73.194h76.8v51.2h255.639v102.039l-893.115-0.361-0.361-1021.837h1022.197v102.039l-227.515 0.361zM726.175 117.363v0 0c-20.913-23.797-46.873-42.546-75.718-55.166-33.172-14.423-71.752-21.634-115.020-21.634s-81.848 7.211-115.020 21.634c-28.845 12.62-54.806 31.369-75.358 54.806-32.451 36.777-48.315 90.862-57.69 202.276h65.983c14.062-100.597 88.699-175.594 181.724-175.594 50.839 0 98.794 23.076 134.851 64.541 27.042 31.369 44.71 69.949 51.2 110.693h62.738c-12.259-138.096-34.254-174.873-57.69-201.555zM509.837 422.4h-74.997l74.997 177.037v-177.037zM561.037 319.639h107.087c-12.98-59.854-55.166-107.808-107.087-120.068v120.068zM509.837 199.211c-51.921 11.538-92.304 58.772-103.482 120.428h103.482v-120.428zM635.673 422.4h-74.637v176.676l74.637-176.676zM102.039 857.961h330.637v-51.2h76.8v-73.555l-131.606-311.166h-200.113l2.885-50.839c9.014-154.321 25.239-251.313 86.896-321.623 2.885-3.245 5.769-6.49 9.014-9.735h-174.513v818.118z" />
<glyph unicode="&#xe93e;" glyph-name="Laptop" d="M1022.197 193.442v-102.039h-1022.197v102.039h1022.197zM919.797 755.561v-510.197h-817.758v510.197h817.758zM817.758 653.521h-613.318v-305.758h613.318v305.758z" />
<glyph unicode="&#xe93f;" glyph-name="Light-switch" d="M842.997 960v-1022.197h-664.158v1022.197h664.158zM740.958 423.482h-460.079v-383.279h460.079v383.279zM510.918 321.082c56.608 0 102.4-31.369 102.4-102.039s-45.792-102.4-102.4-102.4c-56.248 0-102.039 32.090-102.039 102.4s45.431 102.039 102.039 102.039zM510.918 270.242c-45.070 0-50.839-27.403-51.2-51.2 0-23.797 5.769-51.2 51.2-51.2s51.2 27.403 51.2 51.2c0 23.797-5.769 51.2-51.2 51.2zM741.318 857.961h-460.079v-383.279h460.079v383.279zM536.518 781.161v-204.439h-51.2v204.439h51.2z" />
<glyph unicode="&#xe940;" glyph-name="Lightbulb-step-1" d="M741.318 39.842c-0.361-56.248-46.152-102.039-102.4-102.039h-255.639c-54.035 0-97.886 41.723-101.761 94.437l-0.278 7.602h460.079zM510.918 806.761c197.228 0 357.679-103.482 357.679-332.079 0-108.53-36.056-188.935-95.189-243.38-20.913-19.11-32.451-46.152-32.451-74.637v0-65.262h-459.358v64.541c0 28.485-11.899 55.887-32.811 74.997-59.132 54.445-95.549 134.851-95.549 243.741 0 228.958 160.451 332.079 357.679 332.079zM510.918 704.361c-78.603 0-143.144-19.47-187.493-56.248-45.070-38.22-68.146-96.631-68.146-173.792 0-73.555 20.913-130.163 62.377-168.383 32.451-29.927 54.445-69.589 62.377-112.496v0h262.13c7.932 42.907 29.566 82.93 62.017 112.856 41.465 37.859 62.377 94.468 62.377 168.023 0 77.161-23.076 135.572-68.507 173.792-43.628 36.777-108.53 56.248-187.132 56.248zM34.614 669.386l92.304-43.989c-16.586-45.070-24.879-95.549-24.879-150.715v0-51.2h-102.039v51.2c0 76.8 13.701 140.98 34.614 194.704v0z" />
<glyph unicode="&#xe941;" glyph-name="Lightbulb-step-2" d="M741.318 39.842c-0.361-56.248-46.152-102.039-102.4-102.039h-255.639c-54.035 0-97.886 41.723-101.761 94.437l-0.278 7.602h460.079zM510.918 806.761c197.228 0 357.679-103.482 357.679-332.079 0-108.53-36.056-188.935-95.189-243.38-20.913-19.11-32.451-46.152-32.451-74.637v0-65.262h-459.358v64.541c0 28.485-11.899 55.887-32.811 74.997-59.132 54.445-95.549 134.851-95.549 243.741 0 228.958 160.451 332.079 357.679 332.079zM510.918 704.361c-78.603 0-143.144-19.47-187.493-56.248-45.070-38.22-68.146-96.631-68.146-173.792 0-73.555 20.913-130.163 62.377-168.383 32.451-29.927 54.445-69.589 62.377-112.496v0h262.13c7.932 42.907 29.566 82.93 62.017 112.856 41.465 37.859 62.377 94.468 62.377 168.023 0 77.161-23.076 135.572-68.507 173.792-43.628 36.777-108.53 56.248-187.132 56.248zM34.614 669.386l92.304-43.989c-16.586-45.070-24.879-95.549-24.879-150.715v0-51.2h-102.039v51.2c0 76.8 13.701 140.98 34.614 194.704v0zM270.423 912.766l38.22-95.189c-30.648-13.701-58.411-31.008-83.29-51.921-18.028-15.144-34.254-32.090-48.676-50.839v0l-94.107 44.71c24.518 35.335 51.561 63.099 76.8 84.372 32.811 27.763 70.31 50.839 111.054 68.868v0z" />
<glyph unicode="&#xe942;" glyph-name="Lightbulb-step-3" d="M740.958 39.842c0-56.248-45.431-102.039-102.039-102.039v0h-255.639c-56.608 0-102.039 45.792-102.039 102.039v0zM510.918 806.761c197.228 0 357.679-103.482 357.679-332.079 0-108.53-36.056-188.935-95.189-243.38-20.913-19.11-32.451-46.152-32.451-74.637v0-65.262h-459.358v64.541c0 28.485-11.899 55.887-32.811 74.997-59.132 54.445-95.549 134.851-95.549 243.741 0 228.958 160.451 332.079 357.679 332.079zM510.558 704.361c-78.603 0-143.504-19.47-187.132-56.248-45.070-38.22-68.146-96.631-68.146-173.792 0-73.555 20.913-130.163 62.377-168.383 32.451-29.927 54.445-69.589 62.377-112.496v0h262.13c7.932 42.907 29.566 82.93 62.017 112.856 41.465 38.22 62.377 94.828 62.021 168.023 0 77.161-23.081 135.572-68.512 173.792-43.628 36.777-108.53 56.248-187.132 56.248zM34.614 669.386l92.304-43.989c-16.586-45.070-24.879-95.549-24.879-150.715v0-51.2h-102.039v51.2c0 76.8 13.701 140.98 34.614 194.704v0zM270.423 912.766l38.22-95.189c-30.648-13.701-58.411-31.008-83.29-51.921-18.028-15.144-34.254-32.090-48.676-50.839v0l-94.107 44.71c24.518 35.335 51.561 63.099 76.8 84.372 32.811 27.763 70.31 50.839 111.054 68.868v0zM510.918 960c50.118 0 98.073-5.408 143.504-15.504v0l-38.58-96.27c-33.172 6.49-68.146 9.735-104.924 9.735s-71.752-3.245-104.563-9.735v0l-38.58 96.27c45.070 10.096 93.025 15.504 143.144 15.504z" />
<glyph unicode="&#xe943;" glyph-name="Lightbulb-step-4" d="M741.318 39.842c-0.361-56.248-46.152-102.039-102.4-102.039h-255.639c-54.035 0-97.886 41.723-101.761 94.437l-0.278 7.602h460.079zM510.918 806.761c197.228 0 357.679-103.482 357.679-332.079 0-108.53-36.056-188.935-95.189-243.38-20.913-19.11-32.451-46.152-32.451-74.637v0-65.262h-459.358v64.541c0 28.485-11.899 55.887-32.811 74.997-59.132 54.445-95.549 134.851-95.549 243.741 0 228.958 160.451 332.079 357.679 332.079zM510.918 704.361c-78.603 0-143.144-19.47-187.493-56.248-45.070-38.22-68.146-96.631-68.146-173.792 0-73.555 20.913-130.163 62.377-168.383 32.451-29.927 54.445-69.589 62.377-112.496v0h262.13c7.932 42.907 29.566 82.93 62.017 112.856 41.465 37.859 62.377 94.468 62.377 168.023 0 77.161-23.076 135.572-68.507 173.792-43.628 36.777-108.53 56.248-187.132 56.248zM34.614 669.386l92.304-43.989c-16.586-45.070-24.879-95.549-24.879-150.715v0-51.2h-102.039v51.2c0 76.8 13.701 140.98 34.614 194.704v0zM751.414 912.766c40.744-18.028 77.882-41.104 111.054-68.868 25.239-21.273 52.282-49.037 76.8-84.372v0l-94.107-44.71c-14.062 18.749-30.287 35.696-48.315 50.839-24.879 20.913-52.642 38.22-83.29 51.921v0zM270.423 912.766l38.22-95.189c-30.648-13.701-58.411-31.008-83.29-51.921-18.028-15.144-34.254-32.090-48.676-50.839v0l-94.107 44.71c24.518 35.335 51.561 63.099 76.8 84.372 32.811 27.763 70.31 50.839 111.054 68.868v0zM510.918 960c50.118 0 98.073-5.408 143.504-15.504v0l-38.58-96.27c-33.172 6.49-68.146 9.735-104.924 9.735s-71.752-3.245-104.563-9.735v0l-38.58 96.27c45.070 10.096 93.025 15.504 143.144 15.504z" />
<glyph unicode="&#xe944;" glyph-name="Lightbulb-step-5" d="M740.958 39.842c0-56.248-45.431-102.039-102.039-102.039v0h-255.639c-56.608 0-102.039 45.792-102.039 102.039v0zM510.918 806.761c197.228 0 357.679-103.482 357.679-332.079 0-108.53-36.056-188.935-95.189-243.38-20.913-19.11-32.451-46.152-32.451-74.637v0-65.262h-459.358v64.541c0 28.485-11.899 55.887-32.811 74.997-59.132 54.445-95.549 134.851-95.549 243.741 0 228.958 160.451 332.079 357.679 332.079zM510.558 704.361c-78.603 0-143.504-19.47-187.132-56.248-45.070-38.22-68.146-96.631-68.146-173.792 0-73.555 20.913-130.163 62.377-168.383 32.451-29.927 54.445-69.589 62.377-112.496v0h262.13c7.932 42.907 29.566 82.93 62.017 112.856 41.465 38.22 62.377 94.828 62.021 168.023 0 77.161-23.081 135.572-68.512 173.792-43.628 36.777-108.53 56.248-187.132 56.248zM987.583 669.025c20.913-53.363 34.614-117.544 34.254-194.704v0-51.2h-102.039v51.2c0 55.166-8.293 105.645-24.879 150.715v0zM34.614 669.386l92.304-43.989c-16.586-45.070-24.879-95.549-24.879-150.715v0-51.2h-102.039v51.2c0 76.8 13.701 140.98 34.614 194.704v0zM751.414 912.766c40.744-18.028 77.882-41.104 111.054-68.868 25.239-21.273 52.282-49.037 76.8-84.372v0l-94.107-44.71c-14.062 18.749-30.287 35.696-48.315 50.839-24.879 20.913-52.642 38.22-83.29 51.921v0zM270.423 912.766l38.22-95.189c-30.648-13.701-58.411-31.008-83.29-51.921-18.028-15.144-34.254-32.090-48.676-50.839v0l-94.107 44.71c24.518 35.335 51.561 63.099 76.8 84.372 32.811 27.763 70.31 50.839 111.054 68.868v0zM510.918 960c50.118 0 98.073-5.408 143.504-15.504v0l-38.58-96.27c-33.172 6.49-68.146 9.735-104.924 9.735s-71.752-3.245-104.563-9.735v0l-38.58 96.27c45.070 10.096 93.025 15.504 143.144 15.504z" />
<glyph unicode="&#xe945;" glyph-name="Microwave" d="M1022.197 806.761v-715.358h-1022.197v715.358h1022.197zM612.597 321.082c-23.076 0-32.811-7.932-47.955-19.831-17.307-13.701-38.941-31.008-79.685-31.008s-62.377 16.946-79.685 31.008c-15.144 11.899-24.879 19.831-47.955 19.831s-32.811-7.932-47.955-19.831c-17.307-13.701-38.941-31.008-79.685-31.008s-62.377 16.946-79.685 31.008c-14.783 11.899-24.879 19.831-47.955 19.831v0-127.639h510.558zM920.518 704.721h-205.161v-511.279h205.161v511.279zM612.958 449.442c-23.076 0-32.811-7.932-47.955-19.831-16.946-13.701-38.941-31.008-79.685-31.008s-62.377 17.307-79.685 31.008c-15.144 11.899-24.879 19.831-47.955 19.831s-32.811-7.932-47.955-19.831c-17.307-13.701-38.941-31.008-79.685-31.008s-62.377 17.307-79.685 31.008c-14.783 11.899-24.879 19.831-47.955 19.831v0-77.161c40.744 0 62.377-17.307 79.685-31.008 15.144-11.899 24.879-19.831 47.955-19.831s32.811 7.932 47.955 19.831c17.307 13.701 38.941 31.008 79.685 31.008s62.377-17.307 79.685-31.008c15.144-11.899 24.879-19.831 47.955-19.831s32.811 7.932 47.955 19.831c17.668 13.701 38.941 31.008 80.045 31.008v0h-0.361zM817.758 525.882c28.485 0 51.2-15.865 51.2-51.2s-23.076-51.2-51.2-51.2c-28.485 0-51.2 15.865-51.2 51.2s22.715 51.2 51.2 51.2zM612.958 576.721c-23.076 0-32.811-7.932-47.955-19.831-17.307-13.701-38.941-31.008-79.685-31.008s-62.377 16.946-79.685 31.008c-15.144 11.899-24.879 19.831-47.955 19.831s-32.811-7.932-47.955-19.831c-17.307-13.701-38.941-31.008-79.685-31.008s-62.377 16.946-79.685 31.008c-14.783 11.899-24.879 19.831-47.955 19.831v0-76.439c40.744 0 62.377-17.307 79.685-31.008 15.144-11.899 24.879-19.831 47.955-19.831s32.811 7.932 47.955 19.831c17.307 13.701 38.941 31.008 79.685 31.008s62.377-16.946 79.685-31.008c15.144-11.899 24.879-19.831 47.955-19.831s32.811 7.932 47.955 19.831c17.668 13.701 38.941 31.008 80.045 31.008v0h-0.361zM817.758 653.521c28.277 0 51.2-22.923 51.2-51.2s-22.923-51.2-51.2-51.2c-28.277 0-51.2 22.923-51.2 51.2s22.923 51.2 51.2 51.2zM613.318 704.361l-510.918-0.361v-76.079c40.744 0 62.377-17.307 79.685-31.008 15.144-11.899 24.879-19.831 47.955-19.831s32.811 7.932 47.955 19.831c17.307 13.701 38.941 31.008 79.685 31.008s62.377-17.307 79.685-31.008c15.144-11.899 24.879-19.831 47.955-19.831s32.811 7.932 47.955 19.831c17.668 13.701 38.941 31.008 80.045 31.008v0 76.439z" />
<glyph unicode="&#xe946;" glyph-name="Moon" d="M728.338 899.425c-65.983 23.437-139.538 34.975-217.059 34.975-282.321 0-511.279-151.076-511.279-485.318s228.958-485.318 510.918-485.318c77.521 0 151.437 11.538 217.059 34.975 173.792 62.017 293.86 208.045 293.86 450.344 0.36 242.299-120.068 388.327-293.499 450.344zM510.918 65.803c-122.231 0-224.27 32.090-294.58 92.665-75.718 65.262-114.299 162.975-114.299 290.614s38.22 225.352 114.299 290.614c70.31 60.575 172.349 92.665 294.58 92.665 29.566 0 57.69-1.803 84.732-5.408-99.155-79.324-161.172-203.718-161.172-377.87s62.017-298.546 161.172-377.87c-27.042-3.606-55.166-5.408-84.732-5.408z" />
<glyph unicode="&#xe947;" glyph-name="Outdoor-lamp" d="M616.779 717.501v-181.219c144.838-24.528 255.515-150.801 255.515-302.512v0-51.38h-123.239c-3.472-63.218-31.37-100.149-54.607-120.086-32.134-27.687-76.81-42.356-129.109-42.356-52.109 0-96.743 14.637-129.077 42.328-23.275 20.060-51.080 57.009-54.523 120.114v0h-123.24l0.004 52.947c0.763 151.008 111.18 276.501 255.516 300.945v0 78.459h-459.933v102.761h562.694zM646.069 182.389h-161.343c2.838-28.58 14.442-38.67 18.504-42.17 13.141-11.253 35.243-17.51 62.109-17.51 26.943 0 49.007 6.222 62.12 17.518 4.143 3.556 15.771 13.618 18.61 42.163v0zM565.396 437.907c-94.824 0-174.754-64.982-197.588-152.757v0h395.176c-22.834 87.774-102.764 152.757-197.588 152.757zM909.503 870.879c21.185 0 41.276-4.63 59.373-12.875-49.567-22.582-84.043-72.519-84.043-130.541s34.476-107.959 84.043-130.541c-18.097-8.245-38.189-12.875-59.373-12.875-79.207 0-143.416 64.209-143.416 143.416s64.209 143.416 143.416 143.416z" />
<glyph unicode="&#xe948;" glyph-name="Patio-heater" d="M741.318 960h-460.439c-112.856 0-204.439-91.583-204.439-204.8v-102.4h276.552c1.082-74.637 42.186-129.803 107.087-148.192v-259.966h-25.6c-56.248 0-102.039-45.792-102.039-102.4v-204.439h357.318v204.439c0 56.608-45.792 102.4-102.039 102.4h-25.6v259.966c64.901 18.749 106.006 73.555 107.087 148.192h276.552v102.4c0 113.217-91.583 204.8-204.439 204.8 0 0 0 0 0 0zM587.718 142.603v-102.4h-153.239v102.4c0 0 0 0 0 0v0h153.239c0 0 0 0 0 0zM510.918 600.518c-51.921 0-55.166 35.335-55.527 52.282h111.054c0-16.946-3.606-52.282-55.527-52.282zM178.479 755.2c0 56.608 45.792 102.4 102.039 102.4h464.045c56.248 0 102.039-45.792 102.039-102.4h-668.124z" />
<glyph unicode="&#xe949;" glyph-name="Phone-charging" d="M919.797 960c56.248 0 102.4-45.792 102.4-102.039v0-817.758c0-56.248-45.792-102.039-102.039-102.039v0h-460.079c-56.248 0-102.039 45.792-102.039 102.039v0 817.758c0 56.248 45.792 102.039 102.039 102.039v0zM920.158 857.961h-460.079v-817.758h460.079v817.758zM689.758 219.403c35.446 0 64.18-28.734 64.18-64.18s-28.734-64.18-64.18-64.18c-35.446 0-64.18 28.734-64.18 64.18s28.734 64.18 64.18 64.18zM204.439 960l-43.989-153.239h120.789l-204.439-255.639 43.628 153.239h-120.428l204.439 255.639zM766.558 806.761v-51.2h-153.239v51.2h153.239z" />
<glyph unicode="&#xe94a;" glyph-name="Pressing-iron" d="M823.527 730.321l-1.082-0.361h-669.927v-102.039h591.324l58.772-234.006c0 0-506.231 0-509.115 0-23.076 0-135.211-7.211-181.724-139.899l-111.775-316.214h1022.197l-198.67 792.518zM145.307 40.924l63.099 179.2c10.817 30.648 26.682 50.839 48.676 61.656 10.817 5.408 22.355 8.293 34.254 9.375v0h536.158l62.738-250.231h-744.924z" />
<glyph unicode="&#xe94b;" glyph-name="Radiator" d="M202.637 806.761v-715.358h-98.794v102.039h-103.842v102.4h103.842v510.918h98.794zM381.476 806.761v-715.358h-98.794v715.358h98.794zM560.315 806.761v-715.358h-98.794v715.358h98.794zM739.155 806.761v-715.358h-98.794v715.358h98.794zM918.355 806.761v-102.4h103.842v-102.039h-103.842v-510.918h-98.794v715.358h98.794z" />
<glyph unicode="&#xe94c;" glyph-name="Rain" d="M587.718 244.642l-127.639-306.839h-102.4l128 306.839h102.039zM383.279 244.642l-127.639-306.839h-102.4l128 306.839h102.039zM792.158 244.642l-127.639-306.839h-102.4l127.639 306.839h102.4zM429.431 960c116.823 0 221.386-56.248 279.437-142.783 9.014 0.721 18.028 1.082 27.042 1.082 72.113 0.721 142.062-24.518 196.868-71.392 56.969-49.037 89.42-118.265 89.062-189.656 0-71.752-32.454-140.98-89.062-190.017-54.806-46.513-124.755-72.113-196.868-71.392v0h-510.918c-56.248-0.361-110.693 19.47-153.6 55.887-44.71 37.859-71.031 93.386-71.392 152.158 0 55.527 23.437 108.53 63.82 145.668 11.899 11.177 24.879 20.913 38.58 29.206 2.163 36.417 11.538 72.113 27.763 104.924 17.668 36.056 42.546 68.146 73.194 94.468 60.935 52.642 141.341 81.848 226.073 81.848zM429.792 857.961c-124.394 0-224.992-87.256-224.992-194.704 0-18.389 2.885-36.417 8.654-53.724-62.377-5.048-111.054-50.479-111.054-105.645 0-58.411 54.806-106.006 122.592-106.006v0h510.918c101.679 0 184.248 71.392 184.248 159.369s-82.208 159.369-183.887 159.369c-29.566 0-58.772-6.13-85.454-18.389-18.749 90.862-110.693 159.73-221.025 159.73z" />
<glyph unicode="&#xe94d;" glyph-name="Router" d="M868.958 602.321v-281.239h153.239v-383.279h-1022.197v383.279h766.918v281.239h102.039zM919.797 219.042h-817.758v-179.2l817.758 0.361v178.839zM191.459 167.842c21.108 0 38.22-17.112 38.22-38.22s-17.112-38.22-38.22-38.22c-21.108 0-38.22 17.112-38.22 38.22s17.112 38.22 38.22 38.22zM293.859 167.842c21.108 0 38.22-17.112 38.22-38.22s-17.112-38.22-38.22-38.22c-21.108 0-38.22 17.112-38.22 38.22s17.112 38.22 38.22 38.22zM710.31 738.975c69.949 21.994 144.946 21.994 214.535 0v0l-52.282-91.944c-36.417 7.932-73.915 7.932-109.972 0v0zM632.789 874.546c118.986 45.792 250.592 45.792 369.577 0v0l-51.2-90.141c-42.907 14.783-87.977 22.355-133.408 22.355s-90.501-7.572-133.408-21.994v0z" />
<glyph unicode="&#xe94e;" glyph-name="Smart-plug" d="M510.918 652.8c197.589 0 357.679-111.054 357.679-357.318s-160.090-357.318-357.679-357.318c-197.589 0-357.679 111.054-357.679 357.318s160.090 357.318 357.679 357.318zM511.279 550.039c-53.724 0-129.442-10.456-184.248-59.854-47.234-42.546-71.031-108.169-71.031-195.065 0-86.535 23.797-152.518 71.031-195.065 54.806-49.397 130.524-59.854 184.248-59.854s129.442 10.456 184.248 59.854c47.234 42.907 71.031 108.53 71.031 195.065s-23.797 152.518-71.031 195.065c-54.806 49.397-130.524 59.854-184.248 59.854zM389.769 352.811c31.662 0 57.33-25.829 57.33-57.69s-25.667-57.69-57.33-57.69c-31.662 0-57.33 25.829-57.33 57.69s25.667 57.69 57.33 57.69zM632.428 352.811c31.662 0 57.33-25.829 57.33-57.69s-25.667-57.69-57.33-57.69c-31.662 0-57.33 25.829-57.33 57.69s25.667 57.69 57.33 57.69zM510.558 806.761c37.499 0 73.555-5.769 107.448-16.586v0l-52.282-91.944c-17.668 3.966-36.056 6.13-54.806 6.13s-37.138-2.163-54.806-6.13v0l-53.003 91.944c33.893 10.817 69.949 16.586 107.448 16.586zM510.918 960c65.262 0 127.639-12.259 184.969-34.254v0l-51.561-90.141c-42.546 14.423-87.256 21.994-133.408 21.994s-90.862-7.572-133.048-22.355v0l-51.561 90.141c57.33 22.355 119.346 34.614 184.608 34.614z" />
<glyph unicode="&#xe94f;" glyph-name="Smart-thermostat" d="M531.831 702.558c129.442 0 234.366-104.924 234.366-234.006v-296.744c0-129.082-104.924-234.006-234.006-234.006h-297.825c-129.442 0-234.366 104.924-234.366 234.006v296.744c0.361 129.442 105.285 234.006 234.366 234.006h297.465zM531.831 600.518h-297.465c-72.834 0-131.966-58.772-131.966-131.606v-296.744c0.361-72.834 59.493-131.606 131.966-131.606h297.465c72.834 0 131.966 58.772 131.966 131.606v296.744c-0.361 72.834-59.132 131.606-131.966 131.606zM468.372 455.572c74.637 0 124.394-38.22 132.327-102.039h-68.868c-5.048 24.158-26.321 44.71-64.18 44.71-40.383 0-74.276-23.797-74.276-86.535 0-62.377 33.532-86.535 74.276-86.535 37.859 0 59.493 20.913 64.18 44.71h68.868c-7.932-63.82-57.69-102.039-132.327-102.039-81.487 0-148.192 45.070-148.192 143.504 0 98.073 66.704 144.225 148.192 144.225zM226.794 451.966c47.955 0 74.276-27.763 74.276-67.786s-26.321-67.786-74.276-67.786c-47.955 0-74.276 28.124-74.276 67.786 0 40.383 26.321 67.786 74.276 67.786zM226.794 412.665c-18.749 0-28.845-11.177-28.845-28.485s9.735-28.485 28.845-28.485c19.11 0 29.566 11.538 29.566 28.485 0 17.307-10.817 28.485-29.566 28.485zM721.848 810.006c64.18-34.975 116.462-88.699 149.273-154.321v0l-102.4-25.961c-19.47 31.369-45.431 58.411-76.439 78.963v0zM765.115 960c115.741-53.363 207.324-148.192 256.721-265.735v0l-100.237-25.6c-19.11 41.104-45.070 78.963-76.8 111.414-31.369 32.811-68.146 59.854-108.53 80.406v0z" />
<glyph unicode="&#xe950;" glyph-name="Smoke-alarm" d="M644.687 138.637l51.2-89.78c-118.986-45.792-250.592-45.792-369.577 0v0l51.2 89.78c42.907-14.423 87.977-21.994 133.408-21.994s90.501 7.572 133.769 21.994v0zM566.085 276.011l52.642-91.583c-69.949-21.994-144.946-21.994-214.896 0v0l52.282 91.583c36.417-7.932 73.915-7.932 109.972 0v0zM1022.197 883.2v-332.079h-117.904l-76.8-204.439h-632.789l-76.8 204.439h-117.904v332.079h1022.197zM613.318 551.121h-204.439v-102.039h204.439v102.039zM306.479 551.121h-79.324l38.22-102.039h41.104v102.039zM795.042 551.121h-79.685v-102.039h41.465l38.22 102.039zM919.797 781.161h-817.758v-127.639h817.758v127.639z" />
<glyph unicode="&#xe951;" glyph-name="Snow" d="M408.879 91.403c28.277 0 51.2-22.923 51.2-51.2s-22.923-51.2-51.2-51.2c-28.277 0-51.2 22.923-51.2 51.2s22.923 51.2 51.2 51.2zM153.239 91.403c28.277 0 51.2-22.923 51.2-51.2s-22.923-51.2-51.2-51.2c-28.277 0-51.2 22.923-51.2 51.2s22.923 51.2 51.2 51.2zM664.518 91.403c28.277 0 51.2-22.923 51.2-51.2s-22.923-51.2-51.2-51.2c-28.277 0-51.2 22.923-51.2 51.2s22.923 51.2 51.2 51.2zM280.781 244.641c28.277 0.054 51.244-22.825 51.298-51.102s-22.825-51.244-51.102-51.298c-28.277-0.054-51.244 22.825-51.298 51.102s22.825 51.244 51.102 51.298zM536.518 244.642c28.485 0 51.2-15.865 51.2-51.2s-23.076-51.2-51.2-51.2c-28.124 0-51.2 15.865-51.2 51.2s23.076 51.2 51.2 51.2zM792.158 244.642c28.124 0 51.2-15.865 51.2-51.2s-23.076-51.2-51.2-51.2c-28.124 0-51.2 15.865-51.2 51.2s23.076 51.2 51.2 51.2zM429.431 960c116.823 0 221.386-56.248 279.437-142.783 9.014 0.721 18.028 1.082 27.042 1.082 72.113 0.721 142.062-24.518 196.868-71.392 56.969-49.037 89.059-117.904 89.059-189.656s-32.451-140.98-89.059-190.017c-54.806-46.513-124.755-72.113-196.868-71.392v0h-510.918c-56.248-0.361-110.693 19.47-153.6 55.887-44.71 37.859-71.031 93.386-71.392 152.158 0 55.527 23.437 108.53 63.82 145.668 11.899 11.177 24.879 20.913 38.58 29.206 2.163 36.417 11.538 72.113 27.763 104.924 17.668 36.056 42.546 68.146 73.194 94.468 60.935 52.642 141.341 81.848 226.073 81.848zM429.792 857.961c-124.394 0-224.992-87.256-224.992-194.704 0-18.389 2.885-36.417 8.654-53.724-62.377-5.048-111.054-50.479-111.054-105.645 0-58.411 54.806-106.006 122.592-106.006v0h510.918c101.679 0 184.248 71.392 184.248 159.369s-82.208 159.369-183.887 159.369c-29.566 0-58.772-6.13-85.454-18.389-18.749 90.862-110.693 159.73-221.025 159.73z" />
<glyph unicode="&#xe952;" glyph-name="Stove-with-grill" d="M970.997 960v-1022.197h-919.797l1.803 539.403-1.803 482.434 919.797 0.361zM868.597 602.321h-715.358v-562.118h715.358v562.118zM510.197 576.721c51.2 0 74.637-81.127 74.637-156.124 0-34.614-5.048-69.949-15.144-98.434 28.485-5.048 61.296-18.028 93.386-36.417 32.811-18.749 60.935-41.825 79.685-64.18 32.451-39.301 25.6-65.983 17.307-77.882-5.769-10.096-20.192-25.239-53.724-25.239-7.572 0-15.504 0.721-23.076 2.163-28.845 4.687-62.377 18.028-95.189 36.777-31.73 18.028-58.772 40.023-77.521 61.656-18.389-21.994-46.152-43.989-77.882-62.377-32.451-18.749-66.344-32.090-95.189-36.777-7.572-1.442-15.144-2.163-23.076-2.163-33.532 0-47.955 15.144-53.724 25.239-7.211 12.259-14.062 38.941 18.389 78.242 18.749 22.355 46.873 45.431 79.685 64.18 31.369 18.028 64.18 30.648 92.304 36.056-10.456 28.485-15.504 64.541-15.504 99.155 0 75.358 23.437 156.124 74.637 156.124zM483.876 271.324c-12.98 1.803-50.118-3.606-99.155-31.73-48.676-28.124-72.113-57.69-76.8-69.949 12.98-1.803 50.118 3.606 99.155 31.73s72.473 57.69 76.8 69.949zM637.115 240.315c-49.037 28.485-86.175 33.893-99.155 31.73 4.687-12.259 27.763-41.825 76.8-69.949s86.175-33.532 99.155-31.73c-4.687 12.259-27.763 41.825-76.8 69.949zM510.197 522.276c-8.293-10.456-22.355-45.070-22.355-101.679s14.062-91.583 22.355-101.679c8.293 10.456 22.355 45.070 22.355 101.679s-14.062 91.583-22.355 101.679zM868.597 857.961h-715.358v-204.439h715.358v204.439zM638.558 805.318c28.277 0 51.2-22.923 51.2-51.2s-22.923-51.2-51.2-51.2c-28.277 0-51.2 22.923-51.2 51.2s22.923 51.2 51.2 51.2zM766.558 805.318c28.277 0 51.2-22.923 51.2-51.2s-22.923-51.2-51.2-51.2c-28.277 0-51.2 22.923-51.2 51.2s22.923 51.2 51.2 51.2zM510.918 805.318c28.277 0 51.2-22.923 51.2-51.2s-22.923-51.2-51.2-51.2c-28.277 0-51.2 22.923-51.2 51.2s22.923 51.2 51.2 51.2zM383.279 805.318c28.277 0 51.2-22.923 51.2-51.2s-22.923-51.2-51.2-51.2c-28.277 0-51.2 22.923-51.2 51.2s22.923 51.2 51.2 51.2zM255.279 805.318c28.277 0 51.2-22.923 51.2-51.2s-22.923-51.2-51.2-51.2c-28.277 0-51.2 22.923-51.2 51.2s22.923 51.2 51.2 51.2z" />
<glyph unicode="&#xe953;" glyph-name="Sun" d="M1022.197 397.882v102.4h-204.079c-7.932 51.561-28.124 93.386-57.33 126.197l144.586 144.225-72.113 72.473-156.124-155.763c-36.417 16.225-74.997 26.321-114.659 30.287v242.299h-102.4v-242.659c-39.662-3.606-78.242-14.062-114.659-30.287l-155.763 155.763-72.113-72.113 144.225-144.225c-29.206-32.811-49.397-74.637-57.33-126.197h-204.439v-102.4h204.079c7.932-51.561 28.124-93.386 57.33-126.197l-143.865-144.586 72.473-72.113 155.403 155.763c36.417-16.225 74.997-26.321 114.659-30.287v-242.659h102.4v242.659c39.662 3.606 78.242 14.062 114.659 30.287l156.124-155.763 72.113 72.473-144.586 144.225c29.206 32.811 49.397 74.637 57.33 126.197h204.079zM302.513 449.082c0 56.608 16.946 97.352 52.282 125.115s90.862 43.628 156.485 43.628c65.623 0 120.789-15.504 156.485-43.628s52.282-68.507 52.282-125.115c0-56.608-16.946-97.713-52.282-125.115s-90.862-43.628-156.485-43.628c-65.623 0-120.789 15.504-156.485 43.628s-52.282 68.507-52.282 125.115z" />
<glyph unicode="&#xe954;" glyph-name="Surveillance" d="M638.918 142.242v281.239h332.079v434.479h-943.234l39.301-102.039h-67.065v-230.039h155.403l39.301-102.4h341.814v-383.279h485.679v102.4l-383.279-0.361zM176.676 755.561h692.282v-230.039h-603.944l-88.338 230.039z" />
<glyph unicode="&#xe955;" glyph-name="Table-lamp-two" d="M717.161 499.561l305.037-0.721-230.761 461.161h-560.676l-230.761-458.997 305.758-0.721c-4.687-10.096-9.375-20.552-14.062-32.090-40.383-102.4-60.575-244.823-60.575-422.22v-108.169h560.676v108.169c0 177.397-20.552 319.459-60.935 422.22-4.687 11.177-9.014 21.634-13.701 31.369zM293.499 857.6h434.839l128.361-256-691.2 1.082 128 254.918zM689.397 39.842h-356.237v6.13c0 217.42 33.172 377.51 90.501 453.949l175.234-0.361c57.33-76.8 90.501-236.89 90.501-453.949v-5.769z" />
<glyph unicode="&#xe956;" glyph-name="Table-lamp" d="M561.758 39.842v460.079l460.079-0.721-230.4 460.8h-560.676l-230.761-458.997 460.439-0.721v-460.439h-255.279v-101.679h611.876v101.679h-255.279zM460.079 601.961l-294.941 0.721 128.361 255.639h434.839l128.361-256.721-294.941 0.721-101.679-0.361z" />
<glyph unicode="&#xe957;" glyph-name="Thunder" d="M932.777 746.907c-54.806 46.873-124.755 72.113-196.868 71.392-9.014 0-18.028-0.361-27.042-1.082-58.051 86.535-162.614 142.783-279.437 142.783-84.732 0-165.138-29.206-226.073-81.848-30.648-26.321-55.527-58.411-73.194-94.468-16.225-32.811-25.6-68.507-27.763-104.924-13.701-8.293-26.682-18.028-38.58-29.206-40.383-37.138-63.82-90.141-63.82-145.668 0.361-58.772 26.682-114.299 71.392-152.158 42.907-36.417 97.352-56.248 153.6-55.887h209.848l-102.039-178.839h155.403l-102.4-179.2h117.904l160.451 281.239h-155.403l43.628 76.8h183.166c72.113-0.721 142.062 24.879 196.868 71.392 56.608 49.037 89.059 118.265 89.059 190.017 0.721 71.392-31.73 140.62-88.699 189.656zM735.91 397.882h-510.918c-67.786 0-122.592 47.594-122.592 106.006 0 55.166 48.676 100.597 111.054 105.645-5.769 17.307-8.654 35.335-8.654 53.724 0 107.448 100.597 194.704 224.992 194.704 110.332 0 202.276-68.868 221.025-159.73 26.682 12.259 55.887 18.389 85.454 18.389 101.679 0 183.887-71.392 183.887-159.369s-82.569-159.369-184.248-159.369z" />
<glyph unicode="&#xe958;" glyph-name="Tv-remote" d="M715.358 653.521v-715.718h-408.879v715.718h408.879zM613.318 551.121h-204.439v-510.918h204.439v510.918zM510.918 500.282c28.277 0 51.2-22.923 51.2-51.2s-22.923-51.2-51.2-51.2c-28.277 0-51.2 22.923-51.2 51.2s22.923 51.2 51.2 51.2zM403.831 790.175c69.949 21.994 144.946 21.994 214.896 0v0l-52.642-91.944c-18.028 3.966-36.777 6.13-55.166 6.13s-36.777-1.803-54.806-6.13v0zM326.31 925.386c118.986 45.792 250.592 45.792 369.577 0v0l-51.561-89.78c-42.907 14.423-87.977 21.994-133.408 21.994-45.431 0.361-90.501-7.211-133.408-21.994v0z" />
<glyph unicode="&#xe959;" glyph-name="Vacuum-cleaner" d="M538.229 17.92c-6.108-43.116-43.475-76.531-88.387-76.531s-81.92 33.055-88.387 76.531h-131.144c-6.108-43.116-43.475-76.531-88.387-76.531s-81.92 33.055-88.387 76.531h-50.661v178.212c0 112.46 91.262 203.722 203.722 203.722h128.269l0.359 406.726c0 84.076 67.907 152.342 152.342 153.061l51.020 0.359c90.902 0 153.78-63.955 169.589-150.546l187.554-766.024h126.114v-101.681h-356.783v101.681h127.551l-186.835 763.149c-9.701 37.367-39.164 51.38-66.829 51.38l-51.020-0.719c-28.025 0-50.661-22.995-50.661-50.661l0.359-412.474c90.902-22.636 154.498-104.196 154.498-197.614v-178.212l-53.895-0.359zM494.035 196.132c0 56.051-45.631 101.681-101.681 101.681h-185.039c-56.051 0-101.681-45.631-101.681-101.681l0.359-77.249h388.042v77.249z" />
<glyph unicode="&#xe95a;" glyph-name="Ventilator" d="M899.966 582.13l-3.606 1.442c-50.839 19.47-125.115 23.076-199.752 12.62 38.941 61.656 65.623 128 69.589 181.003v3.966c0 77.161-52.282 144.225-127.279 162.975-83.651 20.913-172.349 20.913-256 0-74.997-18.749-127.279-85.814-127.279-163.335v-3.606c3.966-52.642 30.287-119.346 69.589-181.003-74.276 10.456-148.913 6.851-199.752-12.62l-3.606-1.442c-69.589-32.451-107.808-108.53-93.386-184.248 16.225-84.732 53.363-164.777 107.448-231.842 32.451-40.383 80.406-62.377 129.803-62.377 24.158 0 48.315 5.048 71.031 15.865l3.245 1.803c40.744 22.715 83.29 66.344 119.707 118.625v-199.752h-153.239v-102.039h408.879v102.039h-153.239v199.752c36.417-52.282 79.324-95.549 119.707-118.625l3.245-1.803c22.715-10.817 47.234-15.865 71.031-15.865 49.037 0 96.992 21.994 129.803 62.377 54.085 67.065 91.223 147.11 107.448 231.842v0.361c14.783 75.718-23.797 151.437-93.386 183.887zM292.056 211.831c-27.042-11.899-58.411-4.327-77.161 18.749-43.628 54.085-73.555 118.625-86.535 187.132-5.769 29.206 8.654 58.411 35.335 71.392 59.493 21.634 161.532 10.096 232.563-14.062l34.975-75.358c-27.403-69.949-84.011-156.124-139.177-187.854zM358.039 782.963c0.721 29.566 20.913 55.166 49.758 62.377 67.425 16.946 138.817 16.946 206.242 0 28.845-7.211 49.037-32.451 49.758-62.377-5.769-63.459-59.493-151.437-111.414-205.882h-82.93c-51.921 54.085-106.006 142.062-111.414 205.882zM510.918 423.482c-28.124 0-51.2 22.715-51.2 51.2 0 28.124 22.715 51.2 51.2 51.2s51.2-22.715 51.2-51.2c0-28.485-22.715-51.2-51.2-51.2zM893.837 417.713v-0.361c-12.98-68.146-43.268-133.048-86.535-187.132-18.749-23.076-50.118-30.648-77.161-18.749-54.806 32.090-111.775 117.904-138.817 188.214l34.975 75.358c70.67 24.158 172.71 35.696 232.563 14.062 25.961-13.341 40.383-42.546 34.975-71.392z" />
<glyph unicode="&#xe95b;" glyph-name="Washing-machine" d="M945.397 960v-1022.197h-868.597v1021.837l868.597 0.361zM843.358 857.6h-664.518v-817.397h664.518v817.397zM510.918 653.521c155.403 0 281.239-87.617 281.239-281.6s-125.837-281.6-281.239-281.6c-155.042 0-280.879 87.617-280.879 281.6s125.476 281.6 280.879 281.6zM594.208 372.282c-35.696 0-51.561-9.735-72.113-21.994-23.076-13.701-48.676-29.206-98.434-29.206-43.989 0-69.589 12.259-90.501 24.518 3.966-49.037 19.831-86.535 47.594-111.414 37.859-34.254 91.583-41.465 130.163-41.465s92.304 7.211 130.163 41.465c25.961 23.437 41.825 58.411 46.873 103.842-7.572 3.966-14.783 8.293-21.634 12.259-20.552 12.259-36.417 21.994-72.113 21.994zM510.918 551.121c-38.58 0-92.304-7.211-130.163-41.465-26.321-24.158-42.186-59.493-47.234-105.285 6.49-3.606 12.259-7.211 18.028-10.456 20.552-12.259 36.417-21.994 72.113-21.994s51.561 9.735 72.113 21.994c23.076 13.701 48.676 29.206 98.434 29.206 47.234 0 72.834-14.062 94.828-27.042-3.966 49.758-19.831 87.977-47.955 113.577-37.859 34.254-91.583 41.465-130.163 41.465zM740.87 806.76c28.277 0.049 51.24-22.834 51.289-51.111s-22.834-51.24-51.111-51.289c-28.277-0.049-51.24 22.834-51.289 51.111s22.834 51.24 51.111 51.289zM613.318 806.761c28.277 0 51.2-22.923 51.2-51.2s-22.923-51.2-51.2-51.2c-28.277 0-51.2 22.923-51.2 51.2s22.923 51.2 51.2 51.2z" />
<glyph unicode="&#xe95c;" glyph-name="Window-blinds" d="M0 908.8v-919.797h1022.197v919.797h-1022.197zM919.797 729.961h-357.679v76.8h357.679v-76.8zM460.079 551.121v-76.8h-357.679v76.8h357.679zM102.4 602.321v76.439h357.679v-76.439h-357.679zM460.079 423.482v-76.8h-357.679v76.8h357.679zM460.079 295.842v-76.8h-357.679v76.8h357.679zM562.118 295.842h357.679v-76.8h-357.679v76.8zM562.118 346.682v76.8h357.679v-76.8h-357.679zM562.118 474.682v76.8h357.679v-76.8h-357.679zM562.118 602.321v76.439h357.679v-76.439h-357.679zM460.079 806.761v-76.439h-357.679v76.439h357.679zM102.4 167.842h357.679v-76.439h-357.679v76.439zM562.118 91.403v76.439h357.679v-76.439h-357.679z" />
<glyph unicode="&#xe95d;" glyph-name="Window-closed" d="M0 908.8v-919.797h1022.197v919.797h-1022.197zM102.4 806.761h357.318v-332.079h-102.039v-51.2h102.039v-332.079h-357.318v715.358zM919.797 91.403h-358.039v332.079h102.4v51.2h-102.4v332.079h358.039v-715.358z" />
<glyph unicode="&#xe95e;" glyph-name="Window-open" d="M1022.197 908.8h-1022.197v-919.797h1022.197v919.797zM102.039 781.161l255.639-110.332v-443.493l-255.639-110.332v664.158zM460.079 167.842v562.118l-160.090 76.8h421.859l-159.73-76.8v-562.118l159.73-76.8h-421.859l160.090 76.8zM664.518 227.335v443.493l255.639 110.332v-664.518l-255.639 110.693z" />
<glyph unicode="&#xe95f;" glyph-name="Window" d="M0 908.8v-919.797h1022.197v919.797h-1022.197zM919.797 627.561h-358.039v179.2h358.039v-179.2zM459.718 806.761v-178.839h-357.318v178.839h357.318zM102.039 525.521h357.318v-434.118h-356.958l-0.361 434.118zM561.758 91.403v434.118h358.039v-434.118h-358.039z" />
<glyph unicode="&#xe960;" glyph-name="Calendar-1" d="M357.318 960v-25.961h307.561v25.961h101.318v-25.961h256v-969.915h-1022.197v969.915h256v25.961h101.318zM920.518 601.6h-819.2v-536.518h819.2v536.518zM586.276 521.555v-378.592h-99.155v277.634l-93.386-35.335v82.208l136.293 54.085h56.248zM256 832.721h-154.682v-126.918h819.561v126.918h-154.321v-51.561h-101.318v51.561h-307.921v-51.561h-101.318v51.561z" />
<glyph unicode="&#xe961;" glyph-name="Calendar-2" d="M357.318 960v-25.961h307.561v25.961h101.318v-25.961h256v-969.915h-1022.197v969.915h256v25.961h101.318zM920.518 601.6h-819.2v-536.518h819.2v536.518zM512.721 527.324c34.975 0 64.901-4.687 89.78-14.062s43.989-23.076 56.969-40.383c12.98-17.668 19.831-39.301 19.47-61.296 0.361-18.389-4.687-36.777-14.783-52.282-11.177-16.586-25.6-30.648-42.186-41.825-24.518-16.225-49.758-31.369-76.079-44.349l-44.71-23.076c-10.817-5.408-21.273-11.538-31.008-18.389-3.606-2.524-6.49-6.13-7.932-10.456h221.386v-79.324h-344.338v31.369c-0.361 17.307 2.163 34.254 7.572 50.839 5.048 13.341 15.504 27.042 31.73 41.104s41.465 29.927 75.358 47.594l54.806 28.845c25.961 13.701 43.989 24.879 54.445 33.893 9.735 7.572 15.504 19.47 15.865 32.090s-6.49 24.518-18.028 30.287c-11.899 6.49-28.845 9.735-50.839 10.096-45.070 0-68.507-13.701-70.31-41.465h-97.713c0.721 38.941 16.225 68.507 47.234 89.42 30.648 20.913 71.752 31.369 123.313 31.369zM256 832.721h-154.682v-126.918h819.561v126.918h-154.321v-51.561h-101.318v51.561h-307.921v-51.561h-101.318v51.561z" />
<glyph unicode="&#xe962;" glyph-name="Calendar-3" d="M357.318 960v-25.961h307.561v25.961h101.318v-25.961h256v-969.915h-1022.197v969.915h256v25.961h101.318zM920.518 601.6h-819.2v-536.518h819.2v536.518zM515.245 532.011c51.2 0 90.862-9.014 118.986-26.682s42.186-43.268 42.546-76.079c0-38.941-18.389-66.704-54.806-83.651 47.955-17.668 72.113-49.037 72.113-94.107 0-36.417-15.504-64.18-46.513-82.93s-74.997-28.485-132.687-28.485c-62.017 0-108.169 10.817-138.456 32.090s-46.152 50.118-47.955 86.175h99.155c3.966-11.899 12.62-21.634 26.682-28.485 13.701-6.851 33.172-10.456 58.051-10.456 25.961 0 45.792 3.606 60.575 11.177 14.423 7.572 21.634 18.028 21.634 32.090 0 13.701-7.211 24.518-21.273 32.090-14.423 7.572-34.975 11.177-62.017 11.177h-53.724v73.555h54.085c21.994 0 38.941 3.245 50.839 9.735s17.668 15.504 17.668 27.403c0 11.899-6.13 20.913-18.028 27.042-11.899 6.49-29.927 9.375-53.724 9.375-23.076 0-40.023-2.885-51.2-9.014-10.456-5.048-17.668-15.144-19.11-26.682h-96.992c2.885 33.532 17.668 61.296 45.431 82.569 27.403 21.634 70.31 32.090 128.721 32.090zM256 832.721h-154.682v-126.918h819.561v126.918h-154.321v-51.561h-101.318v51.561h-307.921v-51.561h-101.318v51.561z" />
<glyph unicode="&#xe963;" glyph-name="Calendar-4" d="M357.318 960v-25.961h307.561v25.961h101.318v-25.961h256v-969.915h-1022.197v969.915h256v25.961h101.318zM920.518 601.6h-819.2v-536.518h819.2v536.518zM649.735 521.555v-220.304h52.282v-78.963h-52.282v-79.324h-96.27v79.324h-233.285v78.963l207.685 220.304h121.87zM553.104 431.414h-0.721l-121.51-130.163h122.231v130.163zM256 832.721h-154.682v-126.918h819.561v126.918h-154.321v-51.561h-101.318v51.561h-307.921v-51.561h-101.318v51.561z" />
</font>
</defs>
</svg>
