<?xml version="1.0" encoding="UTF-8"?>
<svg width="36px" height="36px" viewBox="0 0 36 36" version="1.1" xmlns="http://www.w3.org/2000/svg" xmlns:xlink="http://www.w3.org/1999/xlink">
    <!-- Generator: Sketch 52.4 (67378) - http://www.bohemiancoding.com/sketch -->
    <title>Icon / Social / Instagram</title>
    <desc>Created with Sketch.</desc>
    <defs>
        <path d="M24.2749083,4 C28.5400323,4.00598889 31.995647,7.46292931 32,11.7280553 L32,24.2739204 C31.9951006,28.5394309 28.538443,31.9960884 24.2729325,32.0009879 L11.7270675,32.0009879 C7.46155701,31.9960884 4.00489945,28.5394309 4,24.2739204 L4,11.7280553 C4.00435704,7.46138863 7.46237598,4.00381168 11.7290432,4 L24.2749083,4 Z M29.6666667,24.3561682 L29.664665,11.6467954 C29.6619072,8.71486892 27.2856883,6.33860601 24.3532641,6.33529626 L11.6427325,6.33529626 C8.71069986,6.33970957 6.33553745,8.71625902 6.33333333,11.6477961 L6.33333333,24.3561682 C6.33609207,27.2879322 8.71247197,29.6639084 11.6447342,29.6666667 L24.3552658,29.6666667 C27.287528,29.6639084 29.6639079,27.2879322 29.6666667,24.3561682 Z M18.0001023,11 C21.8636305,11.0058086 24.9941914,14.1363696 25,17.9998978 C25,20.8310922 23.2945297,23.383509 20.6788472,24.4669602 C18.0631647,25.5504114 15.0523839,24.9515298 13.0504272,22.9495731 C11.0484705,20.9476163 10.4495889,17.9368355 11.5330401,15.3211529 C12.6164913,12.7054704 15.168908,11 18.0001023,11 Z M18.0009879,22.7318657 C20.6124256,22.7286 22.7286,20.6124256 22.7318657,18.0009879 C22.7318657,15.3881962 20.6137795,13.2701101 18.0009879,13.2701101 C15.3881962,13.2701101 13.2701101,15.3881962 13.2701101,18.0009879 C13.2701101,20.6137795 15.3881962,22.7318657 18.0009879,22.7318657 Z M25.3910615,8.66666781 C25.9054894,8.66848309 26.3984921,8.87289096 26.7632824,9.23561554 C27.4196335,9.89145895 27.5211196,10.9196893 27.0056472,11.691193 C26.4901749,12.4626966 25.5013975,12.7624686 24.6442897,12.4070962 C23.787182,12.0517237 23.3006052,11.140243 23.4822671,10.2303355 C23.663929,9.32042796 24.4632035,8.66566929 25.3910615,8.66666781 Z" id="path-1"></path>
    </defs>
    <g id="Icon-/-Social-/-Instagram" stroke="none" stroke-width="1" fill="none" fill-rule="evenodd">
        <mask id="mask-2" fill="white">
            <use xlink:href="#path-1"></use>
        </mask>
        <use id="Mask" fill="#000000" fill-rule="nonzero" xlink:href="#path-1"></use>
        <g id="Color-/-Primary-/-Blue-/-Default" mask="url(#mask-2)" fill="#1964A3" fill-rule="nonzero">
            <g transform="translate(2.000000, 2.000000)" id="Rectangle">
                <rect x="0" y="0" width="32" height="32"></rect>
            </g>
        </g>
    </g>
</svg>