<?xml version="1.0" encoding="UTF-8"?>
<svg width="36px" height="36px" viewBox="0 0 36 36" version="1.1" xmlns="http://www.w3.org/2000/svg" xmlns:xlink="http://www.w3.org/1999/xlink">
    <!-- Generator: Sketch 52.4 (67378) - http://www.bohemiancoding.com/sketch -->
    <title>Icon / Social / Youtube</title>
    <desc>Created with Sketch.</desc>
    <defs>
        <path d="M28.5958028,18.2940098 C28.8652676,19.4759459 29,21.3225544 29,23.8338352 C28.999346,26.3030945 28.8646135,28.1493695 28.5958028,29.37266 C28.4614531,29.9772419 28.1468423,30.5245705 27.6951885,30.9394591 C27.2603439,31.3525644 26.7042332,31.6081796 26.1127367,31.6668301 C24.2094779,31.8889434 21.3385657,32 17.5,32 C13.6614343,32 10.7905221,31.8889434 8.88726327,31.6668301 C8.29333862,31.6074922 7.7346273,31.3521065 7.29598191,30.9394591 C6.84198602,30.5279618 6.52940873,29.9787869 6.40419724,29.37266 C6.13473241,28.1907239 6,26.3444489 6,23.8338352 C6.00065404,21.3645758 6.13538645,19.5179673 6.40419724,18.2940098 C6.53890923,17.6895741 6.85345978,17.1423503 7.30481147,16.7272107 C7.74559783,16.3116799 8.3053604,16.0511463 8.90197918,15.9838316 C10.7954274,15.7717234 13.6614343,15.6660028 17.5,15.6666698 C21.3385657,15.6673368 24.2094779,15.7730574 26.1127367,15.9838316 C27.3366742,16.1398141 28.3314518,17.0653285 28.5958028,18.2940098 Z M12.5652619,20.0486841 L12.5652619,18.5778593 L7.72372462,18.5778593 L7.72372462,20.0486841 L9.35326736,20.0486841 L9.35326736,28.9388273 L10.9043252,28.9388273 L10.9043252,20.0486841 L12.5652619,20.0486841 Z M16.7553745,28.9388273 L16.7543934,21.2192196 L15.3730592,21.2192196 L15.3730592,27.1252381 C15.0630438,27.5625015 14.7687255,27.7811331 14.4901041,27.7811331 C14.3030484,27.7804746 14.1941506,27.6711588 14.1634107,27.4531856 C14.1470803,27.2712672 14.1418382,27.0885121 14.1477137,26.9059479 L14.1477137,21.2192196 L12.7663795,21.2192196 L12.7663795,27.3297114 C12.7670335,27.84073 12.8085651,28.2210306 12.8909742,28.4706131 C13.014588,28.8558527 13.3147927,29.0484724 13.7915885,29.0484724 C14.2873514,29.049131 14.8148354,28.7313907 15.3740403,28.0952515 L15.3740403,28.9388273 L16.7553745,28.9388273 Z M22.0315219,26.6273901 L22.0315219,23.5464616 C22.0315219,22.7871775 21.985085,22.2715492 21.8922112,21.9995767 C21.7162742,21.4167784 21.3487033,21.1253792 20.7894984,21.1253792 C20.2728061,21.1247207 19.7917591,21.4059127 19.3463573,21.9689551 L19.3463573,18.5778593 L17.9660041,18.5778593 L17.9660041,28.9398151 L19.3463573,28.9398151 L19.3463573,28.1900797 C19.8120344,28.7623415 20.2930814,29.0484724 20.7894984,29.0484724 C21.3487033,29.0484724 21.7162742,28.7623415 21.8922112,28.1900797 C21.985085,27.9075707 22.0315219,27.3866742 22.0315219,26.6273901 Z M27.2772564,25.3432583 L27.2772564,23.7341424 C27.2779105,22.910981 27.1379457,22.3067805 26.8573622,21.921541 C26.4629756,21.391425 25.9145624,21.1260378 25.2121225,21.1253792 C24.5096826,21.1247207 23.9563641,21.390108 23.5521669,21.921541 C23.2617727,22.3067805 23.1185378,22.9113102 23.1185378,23.7341424 L23.1185378,26.4377337 C23.1185378,27.2608951 23.2679861,27.8644371 23.5668828,28.2483596 C23.970426,28.7797926 24.5293039,29.0455091 25.2435165,29.0455091 C25.988469,29.0448505 26.5473469,28.7689268 26.9201501,28.217738 C27.0946065,27.9670584 27.2063457,27.6776606 27.2458625,27.3741621 C27.2755686,27.0728838 27.2860548,26.7699973 27.2772564,26.4673675 L27.2772564,26.2648698 L25.8645282,26.2648698 C25.8736191,26.5829371 25.8634627,26.9012667 25.8341153,27.2180907 C25.7608628,27.5927938 25.5535318,27.7801453 25.2121225,27.7801453 C24.7366348,27.7801453 24.498891,27.4205884 24.498891,26.7014746 L24.498891,25.3432583 L27.2772564,25.3432583 Z M20.0448729,22.390743 C20.4484161,22.390743 20.6501877,22.7397634 20.6501877,23.4378043 L20.6501877,26.7350596 C20.6501877,27.432442 20.4484161,27.7811331 20.0448729,27.7811331 C19.806475,27.7811331 19.5749445,27.6665491 19.3463573,27.4383687 L19.3463573,22.7344952 C19.5749445,22.505327 19.806475,22.390743 20.0448729,22.390743 Z M25.1974066,22.390743 C25.6630837,22.3900844 25.8959222,22.7443731 25.8959222,23.453609 L25.8959222,24.171735 L24.498891,24.171735 L24.498891,23.453609 C24.498891,22.7450316 24.7317295,22.390743 25.1974066,22.390743 Z M11.6656287,10.2349538 C11.5178155,9.46381618 11.2019138,8.35913356 10.7179236,6.92090595 C10.3359637,5.84882053 10.0001137,4.87518521 9.71037366,4 L11.3546323,4 L12.4563641,8.10922176 L13.5110049,4 L15.0944378,4 L13.2176676,10.2349538 L13.2176676,14.4706131 L11.6656287,14.4706131 L11.6656287,10.2349538 Z M17.1742877,14.5772949 L17.1742877,14.5753193 C16.4803503,14.5759778 15.9371694,14.3105906 15.5447449,13.7791576 C15.2550048,13.3840401 15.1101348,12.7699617 15.1101348,11.9369223 L15.1101348,9.20270938 C15.1107888,8.37032856 15.2556589,7.76085985 15.5447449,7.37430325 C15.9384775,6.84352878 16.4816584,6.57814154 17.1742877,6.57814154 C17.8871922,6.57880007 18.4356054,6.8441873 18.8195274,7.37430325 C19.1086134,7.76085985 19.2531565,8.37032856 19.2531565,9.20270938 L19.2531565,11.9369223 C19.2531565,12.7811567 19.1086134,13.3958936 18.8195274,13.7811331 C18.4369135,14.3119076 17.8885003,14.5772949 17.1742877,14.5772949 Z M16.507166,8.92118817 L16.507166,12.1986876 C16.507166,12.9283379 16.7295399,13.2931631 17.1742877,13.2931631 C17.6190354,13.2931631 17.8414093,12.9283379 17.8414093,12.1986876 L17.8414093,8.92118817 C17.8414093,8.20339143 17.6190354,7.84416379 17.1742877,7.84350526 C16.7295399,7.84284673 16.507166,8.20207437 16.507166,8.92118817 Z M21.4419041,14.5772949 C20.9664164,14.5779534 20.6609794,14.3856629 20.5255929,14.0004233 C20.4431838,13.7501823 20.4019792,13.3596745 20.4019792,12.8289 L20.4019792,6.67692091 L21.8156884,6.67692091 L21.8156884,12.4061243 C21.8084668,12.5886836 21.8137115,12.7715267 21.8313854,12.953362 C21.8627794,13.1825302 21.9713502,13.2971142 22.1570978,13.2971142 C22.4357192,13.2971142 22.7300375,13.0728851 23.0400529,12.6244267 L23.0400529,6.67198194 L24.4527811,6.67198194 L24.4527811,14.4706131 L23.0400529,14.4706131 L23.0400529,13.609257 C22.4919667,14.2546156 21.9592504,14.5772949 21.4419041,14.5772949 Z" id="path-1"></path>
    </defs>
    <g id="Icon-/-Social-/-Youtube" stroke="none" stroke-width="1" fill="none" fill-rule="evenodd">
        <mask id="mask-2" fill="white">
            <use xlink:href="#path-1"></use>
        </mask>
        <use id="Mask" fill="#000000" fill-rule="nonzero" xlink:href="#path-1"></use>
        <g id="Color-/-Primary-/-Blue-/-Default" mask="url(#mask-2)" fill="#1964A3" fill-rule="nonzero">
            <g transform="translate(2.000000, 2.000000)" id="Rectangle">
                <rect x="0" y="0" width="32" height="32"></rect>
            </g>
        </g>
    </g>
</svg>