<?xml version="1.0" encoding="UTF-8"?>
<svg width="20px" height="20px" viewBox="0 0 20 20" version="1.1" xmlns="http://www.w3.org/2000/svg" xmlns:xlink="http://www.w3.org/1999/xlink">
    <title>Atoms/Icons/CUSTOM_location</title>
    <g id="Guideline-&amp;-UI-Kit" stroke="none" stroke-width="1" fill="none" fill-rule="evenodd">
        <g id="InCharge-Portal-•-App" transform="translate(-157.000000, -3958.000000)" fill="#000000">
            <g id="Atoms/Icons/CUSTOM_location" transform="translate(157.000000, 3958.000000)">
                <path d="M11,0 L11.0008503,2.0388874 C15.0860424,2.36541396 17.6230183,4.74366152 17.9612649,8.99999579 L20,9 L20,11 L17.9616793,11.0011784 C17.6250258,15.2569684 15.0867258,17.6345873 11.0011978,17.9611031 L11,20 L9,20 L8.99989825,17.9610796 C4.91787034,17.6343247 2.37806267,15.2548438 2.03890604,11.0010793 L0,11 L0,9 L2.03824182,8.99981885 C2.37460519,4.74305571 4.91336941,2.36505008 8.99980256,2.03881695 L9,0 L11,0 Z M10,4 C6.00510214,4 4,5.95912982 4,9.99623716 C4,14.0358955 6.00823329,16 10,16 C13.9948979,16 16,14.0408702 16,10.0037628 C16,5.96095274 13.9952863,4 10,4 Z M10,8 C11.1045695,8 12,8.8954305 12,10 C12,11.1045695 11.1045695,12 10,12 C8.8954305,12 8,11.1045695 8,10 C8,8.8954305 8.8954305,8 10,8 Z" id="Combined-Shape"></path>
            </g>
        </g>
    </g>
</svg>