<?xml version="1.0" encoding="UTF-8"?>
<svg width="20px" height="17px" viewBox="0 0 20 17" version="1.1" xmlns="http://www.w3.org/2000/svg" xmlns:xlink="http://www.w3.org/1999/xlink">
    <title>Atoms/Icons/Connector Types/Type2</title>
    <g id="Guideline-&amp;-UI-Kit" stroke="none" stroke-width="1" fill="none" fill-rule="evenodd">
        <g id="InCharge-Portal-•-App" transform="translate(-924.000000, -3720.000000)" fill="#000000">
            <g id="Atoms/Icons/Connector-Types/Type2" transform="translate(924.000000, 3720.000000)">
                <path d="M17.1417247,0.000297770737 C18.9098017,1.8040226 20,4.27469657 20,7 C20,12.5228475 15.5228475,17 10,17 C4.4771525,17 0,12.5228475 0,7 C0,4.27469657 1.09019833,1.8040226 2.8582753,0.000297770737 L17.1417247,0.000297770737 Z M16.243,2 L3.756,2 L3.67375422,2.10204702 C2.66219512,3.40534497 2.07211377,4.994524 2.00619264,6.68241029 L2,7 C2,11.418278 5.581722,15 10,15 C14.418278,15 18,11.418278 18,7 C18,5.1942881 17.4010273,3.48680109 16.3262458,2.10204702 L16.243,2 Z M7.5,10 C8.32842712,10 9,10.6715729 9,11.5 C9,12.3284271 8.32842712,13 7.5,13 C6.67157288,13 6,12.3284271 6,11.5 C6,10.6715729 6.67157288,10 7.5,10 Z M12.5,10 C13.3284271,10 14,10.6715729 14,11.5 C14,12.3284271 13.3284271,13 12.5,13 C11.6715729,13 11,12.3284271 11,11.5 C11,10.6715729 11.6715729,10 12.5,10 Z M5.5,6.00136247 C6.32842712,6.00136247 7,6.67293534 7,7.50136247 C7,8.32978959 6.32842712,9.00136247 5.5,9.00136247 C4.67157288,9.00136247 4,8.32978959 4,7.50136247 C4,6.67293534 4.67157288,6.00136247 5.5,6.00136247 Z M10,6.00136247 C10.8284271,6.00136247 11.5,6.67293534 11.5,7.50136247 C11.5,8.32978959 10.8284271,9.00136247 10,9.00136247 C9.17157288,9.00136247 8.5,8.32978959 8.5,7.50136247 C8.5,6.67293534 9.17157288,6.00136247 10,6.00136247 Z M14.5,6.00136247 C15.3284271,6.00136247 16,6.67293534 16,7.50136247 C16,8.32978959 15.3284271,9.00136247 14.5,9.00136247 C13.6715729,9.00136247 13,8.32978959 13,7.50136247 C13,6.67293534 13.6715729,6.00136247 14.5,6.00136247 Z M7.5,3 C8.05228475,3 8.5,3.44771525 8.5,4 C8.5,4.55228475 8.05228475,5 7.5,5 C6.94771525,5 6.5,4.55228475 6.5,4 C6.5,3.44771525 6.94771525,3 7.5,3 Z M12.5,3 C13.0522847,3 13.5,3.44771525 13.5,4 C13.5,4.55228475 13.0522847,5 12.5,5 C11.9477153,5 11.5,4.55228475 11.5,4 C11.5,3.44771525 11.9477153,3 12.5,3 Z" id="Combined-Shape"></path>
            </g>
        </g>
    </g>
</svg>