<?xml version="1.0" encoding="UTF-8"?>
<svg width="21px" height="21px" viewBox="0 0 21 21" version="1.1" xmlns="http://www.w3.org/2000/svg" xmlns:xlink="http://www.w3.org/1999/xlink">
    <title>Atoms/Icons/charger-speed/CUSTOM_charging_fast</title>
    <g id="Guideline-&amp;-UI-Kit" stroke="none" stroke-width="1" fill="none" fill-rule="evenodd">
        <g id="InCharge-Portal-•-App" transform="translate(-157.000000, -3574.000000)" fill="#000000">
            <g id="Atoms/Icons/charger-speed/CUSTOM_charging_fast" transform="translate(157.000000, 3574.000000)">
                <path d="M19.0935801,4.58300065e-13 L17.0926208,6.5 L20.0539474,6.5 L11.2396208,20.4560171 L11.2396208,12 L8,12 L12.02,4.58300065e-13 L19.0935801,4.58300065e-13 Z M9,15 L9,17 L0,17 L0.67,15 L9,15 Z M16.3856208,2 L13.4586208,2 L10.7786208,10 L13.2396208,10 L13.2396208,13.543 L16.4246208,8.5 L14.3856615,8.5 L16.3856208,2 Z M7,9 L6.33,11 L2,11 L2.67,9 L7,9 Z M9,3 L8.33,5 L4,5 L4.67,3 L9,3 Z" id="Combined-Shape"></path>
            </g>
        </g>
    </g>
</svg>