<?xml version="1.0" encoding="UTF-8"?>
<svg width="20px" height="20px" viewBox="0 0 20 20" version="1.1" xmlns="http://www.w3.org/2000/svg" xmlns:xlink="http://www.w3.org/1999/xlink">
    <title>Icons / Action / Sort</title>
    <defs>
        <path d="M15.7535211,5.5067062e-14 L15.7464789,16.1478873 L18.5492958,13.3521127 L19.9647887,14.7605634 L14.7535211,19.9647887 L9.54225352,14.7605634 L10.9577465,13.3450704 L13.7535211,16.1408451 L13.7535211,5.5067062e-14 L15.7535211,5.5067062e-14 Z M6.52112676,14 L6.52112676,16 L-2.71782596e-13,16 L-2.71782596e-13,14 L6.52112676,14 Z M10.5211268,7.97183099 L10.5211268,9.97183099 L-2.72670775e-13,9.97183099 L-2.72670775e-13,7.97183099 L10.5211268,7.97183099 Z M10.4788732,1.98591549 L10.4788732,3.98591549 L-5.6754601e-13,3.98591549 L-5.6754601e-13,1.98591549 L10.4788732,1.98591549 Z" id="path-1"></path>
    </defs>
    <g id="Icons-/-Action-/-Sort" stroke="none" stroke-width="1" fill="none" fill-rule="evenodd">
        <mask id="mask-2" fill="white">
            <use xlink:href="#path-1"></use>
        </mask>
        <use id="Mask" fill="#000000" fill-rule="nonzero" xlink:href="#path-1"></use>
        <g id="Group" mask="url(#mask-2)">
            <g transform="translate(0.000000, 0.000000)" id="Colors-/-Grayscale-/-Black">
                <rect id="Rectangle" fill="#000000" fill-rule="nonzero" x="0" y="0" width="20" height="20"></rect>
            </g>
        </g>
    </g>
</svg>